# Blender v3.0.0 OBJ File: 'box_experiment.blend'
# www.blender.org
o 10
v -0.250000 -0.250000 -0.250000
v -0.166667 -0.166667 -1.000000
v -1.000000 -0.166666 -0.166667
v -1.000000 0.000000 -1.000000
v -1.000001 -1.000000 0.000000
v -0.166667 -1.000000 -0.166667
v -0.000001 -1.000000 -1.000000
v 0.250000 0.250000 0.250000
v 0.166668 0.166667 1.000000
v 1.000000 0.166666 0.166666
v 1.000001 -0.000000 0.999999
v 1.000000 1.000000 -0.000001
v 0.166667 1.000000 0.166667
v 0.000001 1.000000 1.000000
v -0.753955 -0.168451 -0.168451
v -0.531636 -0.180941 -0.180941
v -0.355630 -0.211749 -0.211749
v -0.211749 -0.211749 -0.355629
v -0.180941 -0.180941 -0.531636
v -0.168451 -0.168451 -0.753954
v -0.320313 -0.070313 -1.000000
v -0.520833 -0.020833 -1.000000
v -0.752604 -0.002604 -1.000000
v -1.000000 -0.002604 -0.752604
v -1.000000 -0.020833 -0.520833
v -1.000000 -0.070312 -0.320312
v -1.000000 -0.752604 -0.002604
v -1.000000 -0.520833 -0.020833
v -1.000000 -0.320312 -0.070312
v -0.752605 -1.000000 -0.002604
v -0.520834 -1.000000 -0.020833
v -0.320313 -1.000000 -0.070312
v -0.070313 -1.000000 -0.320312
v -0.020834 -1.000000 -0.520833
v -0.002605 -1.000000 -0.752604
v -0.168451 -0.753955 -0.168451
v -0.180942 -0.531636 -0.180941
v -0.211749 -0.355630 -0.211749
v -0.002605 -0.752604 -1.000000
v -0.020834 -0.520834 -1.000000
v -0.070313 -0.320313 -1.000000
v 0.753955 0.168451 0.168450
v 0.531636 0.180941 0.180941
v 0.355630 0.211749 0.211749
v 0.211750 0.211749 0.355629
v 0.180942 0.180941 0.531636
v 0.168452 0.168451 0.753954
v 0.320313 0.070312 1.000000
v 0.520834 0.020833 1.000000
v 0.752605 0.002604 1.000000
v 1.000001 0.002604 0.752604
v 1.000000 0.020833 0.520833
v 1.000000 0.070312 0.320312
v 1.000000 0.752604 0.002603
v 1.000000 0.520833 0.020833
v 1.000000 0.320312 0.070312
v 0.752604 1.000000 0.002604
v 0.520834 1.000000 0.020833
v 0.320313 1.000000 0.070312
v 0.070313 1.000000 0.320312
v 0.020834 1.000000 0.520833
v 0.002605 1.000000 0.752604
v 0.168451 0.753954 0.168451
v 0.180942 0.531636 0.180941
v 0.211750 0.355629 0.211749
v 0.002605 0.752604 1.000000
v 0.020834 0.520833 1.000000
v 0.070313 0.320312 1.000000
v -0.344514 -0.130972 -0.344514
v -0.328511 -0.088493 -0.528598
v -0.321337 -0.072585 -0.753575
v -0.528598 -0.088493 -0.328511
v -0.523534 -0.040895 -0.523534
v -0.521171 -0.023341 -0.752942
v -0.753575 -0.072585 -0.321337
v -0.752942 -0.023341 -0.521171
v -0.752646 -0.005196 -0.752646
v -0.344514 -0.344514 -0.130972
v -0.528598 -0.328511 -0.088493
v -0.753575 -0.321337 -0.072585
v -0.328511 -0.528598 -0.088493
v -0.523534 -0.523534 -0.040895
v -0.752942 -0.521171 -0.023341
v -0.321338 -0.753575 -0.072585
v -0.521171 -0.752942 -0.023341
v -0.752647 -0.752646 -0.005196
v -0.072585 -0.321338 -0.753575
v -0.088494 -0.328511 -0.528598
v -0.130972 -0.344514 -0.344514
v -0.023341 -0.521171 -0.752942
v -0.040895 -0.523534 -0.523534
v -0.088494 -0.528598 -0.328511
v -0.005197 -0.752647 -0.752646
v -0.023341 -0.752942 -0.521171
v -0.072585 -0.753575 -0.321337
v 0.344514 0.130972 0.344513
v 0.328511 0.088493 0.528597
v 0.321338 0.072585 0.753574
v 0.528598 0.088493 0.328510
v 0.523535 0.040895 0.523534
v 0.521172 0.023341 0.752941
v 0.753575 0.072585 0.321337
v 0.752942 0.023341 0.521170
v 0.752647 0.005196 0.752646
v 0.344514 0.344513 0.130972
v 0.528598 0.328511 0.088493
v 0.753575 0.321337 0.072585
v 0.328511 0.528597 0.088493
v 0.523534 0.523534 0.040895
v 0.752942 0.521171 0.023341
v 0.321338 0.753575 0.072585
v 0.521171 0.752942 0.023341
v 0.752647 0.752646 0.005196
v 0.072586 0.321337 0.753575
v 0.088494 0.328511 0.528597
v 0.130972 0.344513 0.344514
v 0.023342 0.521171 0.752942
v 0.040896 0.523534 0.523534
v 0.088494 0.528598 0.328511
v 0.005197 0.752646 0.752646
v 0.023342 0.752942 0.521171
v 0.072586 0.753575 0.321337
vt 0.343266 0.343266
vt 0.318528 0.528164
vt 0.520062 0.520062
vt 0.528164 0.318528
vt 0.752508 0.510320
vt 0.753520 0.288405
vt 0.288405 0.753521
vt 0.510320 0.752508
vt 0.751290 0.751290
vt 0.250000 0.250000
vt 0.210013 0.355630
vt 0.355630 0.210013
vt 0.531636 0.167052
vt 0.753955 0.118104
vt 1.000000 0.250000
vt 1.000000 0.000000
vt 1.000000 0.500000
vt 1.000000 0.750000
vt 0.750000 1.000000
vt 1.000000 1.000000
vt 0.500000 1.000000
vt 0.250000 1.000000
vt 0.118104 0.753955
vt 0.000000 1.000000
vt 0.167052 0.531636
vt 0.128476 0.343266
vt 0.078077 0.318528
vt 0.033951 0.520062
vt 0.078077 0.528164
vt 0.012056 0.752508
vt 0.039599 0.753520
vt 0.039599 0.288405
vt 0.012056 0.510320
vt 0.002484 0.751290
vt 0.210013 0.210013
vt 0.000000 1.000000
vt 0.000000 1.000000
vt 0.000000 1.000000
vt 0.000000 0.750000
vt 0.000000 1.000000
vt 0.000000 0.500000
vt 0.000000 0.250000
vt 0.118104 0.118104
vt 0.000000 0.000000
vt 0.167052 0.167052
vt 0.753520 0.039599
vt 0.752508 0.012056
vt 0.520062 0.033951
vt 0.528164 0.078077
vt 0.318528 0.078077
vt 0.343266 0.128476
vt 0.751290 0.002484
vt 0.510320 0.012056
vt 0.288405 0.039599
vt 1.000000 0.000000
vt 0.250000 0.000000
vt 0.500000 0.000000
vt 0.750000 0.000000
vt 1.000000 0.000000
vt 1.000000 0.000000
vt 1.000000 0.000000
vt 0.343266 0.343266
vt 0.318528 0.528164
vt 0.520062 0.520062
vt 0.528164 0.318528
vt 0.752508 0.510320
vt 0.753520 0.288405
vt 0.288405 0.753521
vt 0.510320 0.752508
vt 0.751290 0.751290
vt 0.250000 0.250000
vt 0.210013 0.355630
vt 0.355630 0.210013
vt 0.531636 0.167052
vt 0.753955 0.118104
vt 1.000000 0.250000
vt 1.000000 0.000000
vt 1.000000 0.500000
vt 1.000000 0.750000
vt 0.750000 1.000000
vt 1.000000 1.000000
vt 0.500000 1.000000
vt 0.250000 1.000000
vt 0.118104 0.753955
vt 0.000000 1.000000
vt 0.167052 0.531636
vt 0.128476 0.343266
vt 0.078077 0.318528
vt 0.033951 0.520062
vt 0.078077 0.528164
vt 0.012056 0.752508
vt 0.039599 0.753520
vt 0.039599 0.288405
vt 0.012056 0.510320
vt 0.002484 0.751290
vt 0.210013 0.210013
vt 0.000000 1.000000
vt 0.000000 1.000000
vt 0.000000 1.000000
vt 0.000000 0.750000
vt 0.000000 1.000000
vt 0.000000 0.500000
vt 0.000000 0.250000
vt 0.118104 0.118104
vt 0.000000 0.000000
vt 0.167052 0.167052
vt 0.753520 0.039599
vt 0.752508 0.012056
vt 0.520062 0.033951
vt 0.528164 0.078077
vt 0.318528 0.078077
vt 0.343266 0.128476
vt 0.751290 0.002484
vt 0.510320 0.012056
vt 0.288405 0.039599
vt 1.000000 0.000000
vt 0.250000 0.000000
vt 0.500000 0.000000
vt 0.750000 0.000000
vt 1.000000 0.000000
vt 1.000000 0.000000
vt 1.000000 0.000000
vn -0.3677 -0.8541 -0.3677
vn -0.1572 -0.9087 -0.3868
vn -0.1581 -0.9747 -0.1581
vn -0.3868 -0.9087 -0.1572
vn -0.1590 -0.9863 -0.0436
vn -0.3900 -0.9197 -0.0437
vn -0.0437 -0.9197 -0.3900
vn -0.0436 -0.9863 -0.1590
vn -0.0442 -0.9980 -0.0442
vn -0.5773 -0.5773 -0.5773
vn -0.3515 -0.6620 -0.6620
vn -0.6620 -0.6620 -0.3515
vn -0.6983 -0.6983 -0.1574
vn -0.7064 -0.7064 -0.0443
vn -0.3903 -0.9206 -0.0102
vn -0.7071 -0.7071 -0.0103
vn -0.1594 -0.9872 -0.0102
vn -0.0444 -0.9989 -0.0104
vn -0.0104 -0.9989 -0.0444
vn -0.0105 -0.9999 -0.0105
vn -0.0102 -0.9872 -0.1594
vn -0.0102 -0.9206 -0.3903
vn -0.0443 -0.7064 -0.7064
vn -0.0103 -0.7071 -0.7071
vn -0.1574 -0.6983 -0.6983
vn -0.3677 -0.3677 -0.8541
vn -0.3868 -0.1572 -0.9087
vn -0.1581 -0.1581 -0.9747
vn -0.1572 -0.3868 -0.9087
vn -0.0436 -0.1590 -0.9863
vn -0.0437 -0.3900 -0.9197
vn -0.3900 -0.0437 -0.9197
vn -0.1590 -0.0436 -0.9863
vn -0.0442 -0.0442 -0.9980
vn -0.6620 -0.3515 -0.6620
vn -0.0102 -0.3903 -0.9206
vn -0.0102 -0.1594 -0.9872
vn -0.0104 -0.0444 -0.9989
vn -0.0444 -0.0104 -0.9989
vn -0.0105 -0.0105 -0.9999
vn -0.1594 -0.0102 -0.9872
vn -0.3903 -0.0102 -0.9206
vn -0.7064 -0.0443 -0.7064
vn -0.7071 -0.0103 -0.7071
vn -0.6983 -0.1574 -0.6983
vn -0.9197 -0.3900 -0.0437
vn -0.9863 -0.1590 -0.0436
vn -0.9747 -0.1581 -0.1581
vn -0.9087 -0.3868 -0.1572
vn -0.9087 -0.1572 -0.3868
vn -0.8541 -0.3677 -0.3677
vn -0.9980 -0.0442 -0.0442
vn -0.9863 -0.0436 -0.1590
vn -0.9197 -0.0437 -0.3900
vn -0.9206 -0.3903 -0.0102
vn -0.9206 -0.0102 -0.3903
vn -0.9872 -0.0102 -0.1594
vn -0.9989 -0.0104 -0.0444
vn -0.9989 -0.0444 -0.0104
vn -0.9999 -0.0105 -0.0105
vn -0.9872 -0.1594 -0.0102
s 1
f 69/1/1 72/2/2 73/3/3 70/4/4
f 70/4/4 73/3/3 74/5/5 71/6/6
f 72/2/2 75/7/7 76/8/8 73/3/3
f 73/3/3 76/8/8 77/9/9 74/5/5
f 1/10/10 17/11/11 69/1/1 18/12/12
f 18/12/12 69/1/1 70/4/4 19/13/13
f 19/13/13 70/4/4 71/6/6 20/14/14
f 20/14/14 71/6/6 21/15/15 2/16/16
f 71/6/6 74/5/5 22/17/17 21/15/15
f 74/5/5 77/9/9 23/18/18 22/17/17
f 77/9/9 24/19/19 4/20/20 23/18/18
f 76/8/8 25/21/21 24/19/19 77/9/9
f 75/7/7 26/22/22 25/21/21 76/8/8
f 15/23/23 3/24/24 26/22/22 75/7/7
f 16/25/25 15/23/23 75/7/7 72/2/2
f 17/11/11 16/25/25 72/2/2 69/1/1
f 78/26/26 81/27/27 82/28/28 79/29/29
f 79/29/29 82/28/28 83/30/30 80/31/31
f 81/27/27 84/32/32 85/33/33 82/28/28
f 82/28/28 85/33/33 86/34/34 83/30/30
f 1/10/10 38/35/35 78/26/26 17/11/11
f 17/11/11 78/26/26 79/29/29 16/25/25
f 16/25/25 79/29/29 80/31/31 15/23/23
f 15/23/23 80/31/31 29/36/36 3/24/24
f 80/31/31 83/30/30 28/37/37 29/36/36
f 83/30/30 86/34/34 27/38/38 28/37/37
f 86/34/34 30/39/39 5/40/40 27/38/38
f 85/33/33 31/41/41 30/39/39 86/34/34
f 84/32/32 32/42/42 31/41/41 85/33/33
f 36/43/43 6/44/44 32/42/42 84/32/32
f 37/45/45 36/43/43 84/32/32 81/27/27
f 38/35/35 37/45/45 81/27/27 78/26/26
f 87/46/46 90/47/47 91/48/48 88/49/49
f 88/49/49 91/48/48 92/50/50 89/51/51
f 90/47/47 93/52/52 94/53/53 91/48/48
f 91/48/48 94/53/53 95/54/54 92/50/50
f 2/16/16 41/55/55 87/46/46 20/14/14
f 20/14/14 87/46/46 88/49/49 19/13/13
f 19/13/13 88/49/49 89/51/51 18/12/12
f 18/12/12 89/51/51 38/35/35 1/10/10
f 89/51/51 92/50/50 37/45/45 38/35/35
f 92/50/50 95/54/54 36/43/43 37/45/45
f 95/54/54 33/56/56 6/44/44 36/43/43
f 94/53/53 34/57/57 33/56/56 95/54/54
f 93/52/52 35/58/58 34/57/57 94/53/53
f 39/59/59 7/60/60 35/58/58 93/52/52
f 40/61/61 39/59/59 93/52/52 90/47/47
f 41/55/55 40/61/61 90/47/47 87/46/46
f 96/62/1 99/63/2 100/64/3 97/65/4
f 97/65/4 100/64/3 101/66/5 98/67/6
f 99/63/2 102/68/7 103/69/8 100/64/3
f 100/64/3 103/69/8 104/70/9 101/66/5
f 8/71/10 44/72/11 96/62/1 45/73/12
f 45/73/12 96/62/1 97/65/4 46/74/13
f 46/74/13 97/65/4 98/67/6 47/75/14
f 47/75/14 98/67/6 48/76/15 9/77/16
f 98/67/6 101/66/5 49/78/17 48/76/15
f 101/66/5 104/70/9 50/79/18 49/78/17
f 104/70/9 51/80/19 11/81/20 50/79/18
f 103/69/8 52/82/21 51/80/19 104/70/9
f 102/68/7 53/83/22 52/82/21 103/69/8
f 42/84/23 10/85/24 53/83/22 102/68/7
f 43/86/25 42/84/23 102/68/7 99/63/2
f 44/72/11 43/86/25 99/63/2 96/62/1
f 105/87/26 108/88/27 109/89/28 106/90/29
f 106/90/29 109/89/28 110/91/30 107/92/31
f 108/88/27 111/93/32 112/94/33 109/89/28
f 109/89/28 112/94/33 113/95/34 110/91/30
f 8/71/10 65/96/35 105/87/26 44/72/11
f 44/72/11 105/87/26 106/90/29 43/86/25
f 43/86/25 106/90/29 107/92/31 42/84/23
f 42/84/23 107/92/31 56/97/36 10/85/24
f 107/92/31 110/91/30 55/98/37 56/97/36
f 110/91/30 113/95/34 54/99/38 55/98/37
f 113/95/34 57/100/39 12/101/40 54/99/38
f 112/94/33 58/102/41 57/100/39 113/95/34
f 111/93/32 59/103/42 58/102/41 112/94/33
f 63/104/43 13/105/44 59/103/42 111/93/32
f 64/106/45 63/104/43 111/93/32 108/88/27
f 65/96/35 64/106/45 108/88/27 105/87/26
f 114/107/46 117/108/47 118/109/48 115/110/49
f 115/110/49 118/109/48 119/111/50 116/112/51
f 117/108/47 120/113/52 121/114/53 118/109/48
f 118/109/48 121/114/53 122/115/54 119/111/50
f 9/77/16 68/116/55 114/107/46 47/75/14
f 47/75/14 114/107/46 115/110/49 46/74/13
f 46/74/13 115/110/49 116/112/51 45/73/12
f 45/73/12 116/112/51 65/96/35 8/71/10
f 116/112/51 119/111/50 64/106/45 65/96/35
f 119/111/50 122/115/54 63/104/43 64/106/45
f 122/115/54 60/117/56 13/105/44 63/104/43
f 121/114/53 61/118/57 60/117/56 122/115/54
f 120/113/52 62/119/58 61/118/57 121/114/53
f 66/120/59 14/121/60 62/119/58 120/113/52
f 67/122/61 66/120/59 120/113/52 117/108/47
f 68/116/55 67/122/61 117/108/47 114/107/46
