# Blender v3.0.0 OBJ File: 'box_experiment.blend'
# www.blender.org
o 3
v 0.181818 -0.000000 0.000000
v 0.166667 1.000000 0.166667
v 0.166667 -0.166667 -1.000000
v 0.166667 0.166667 1.000000
v 0.000000 1.000000 1.000000
v 0.166667 -1.000000 -0.166667
v -0.000000 -1.000000 -1.000000
v 1.000000 -0.000000 -1.000000
v 1.000000 0.166667 -0.166667
v 1.000000 1.000000 0.000000
v 1.000000 -0.166667 0.166667
v 1.000000 -0.000000 1.000000
v 1.000000 -1.000000 0.000000
v 0.166908 -0.164497 -0.750868
v 0.168596 -0.149306 -0.506944
v 0.173169 -0.106554 -0.270399
v 0.173169 0.270399 0.106554
v 0.168596 0.506944 0.149306
v 0.166908 0.750868 0.164497
v 0.070312 0.320312 1.000000
v 0.020833 0.520833 1.000000
v 0.002604 0.752604 1.000000
v 0.173169 0.106554 0.270399
v 0.168596 0.149306 0.506945
v 0.166908 0.164497 0.750868
v 0.002604 1.000000 0.752604
v 0.020833 1.000000 0.520833
v 0.070313 1.000000 0.320313
v 0.002604 -1.000000 -0.752604
v 0.020833 -1.000000 -0.520833
v 0.070312 -1.000000 -0.320312
v 0.173169 -0.270399 -0.106554
v 0.168596 -0.506945 -0.149305
v 0.166908 -0.750868 -0.164496
v 0.070312 -0.320313 -1.000000
v 0.020833 -0.520833 -1.000000
v 0.002604 -0.752604 -1.000000
v 1.000000 0.002604 -0.752604
v 1.000000 0.020833 -0.520833
v 1.000000 0.070312 -0.320312
v 1.000000 0.320312 -0.070312
v 1.000000 0.520833 -0.020833
v 1.000000 0.752604 -0.002604
v 0.320312 -0.070313 -1.000000
v 0.520833 -0.020833 -1.000000
v 0.752604 -0.002604 -1.000000
v 0.320313 1.000000 0.070313
v 0.520833 1.000000 0.020833
v 0.752604 1.000000 0.002604
v 0.752411 0.164496 -0.164497
v 0.519290 0.149305 -0.149305
v 0.317049 0.106554 -0.106554
v 1.000000 -0.070313 0.320313
v 1.000000 -0.020833 0.520833
v 1.000000 -0.002604 0.752604
v 1.000000 -0.320313 0.070313
v 1.000000 -0.520834 0.020833
v 1.000000 -0.752604 0.002604
v 0.320312 -1.000000 -0.070312
v 0.520833 -1.000000 -0.020833
v 0.752604 -1.000000 -0.002604
v 0.752411 -0.164497 0.164497
v 0.519290 -0.149306 0.149306
v 0.317049 -0.106554 0.106554
v 0.752604 0.002604 1.000000
v 0.520833 0.020833 1.000000
v 0.320312 0.070312 1.000000
v 0.071476 0.751356 0.319010
v 0.079620 0.510851 0.309896
v 0.104689 0.288303 0.288303
v 0.022955 0.752170 0.520399
v 0.037809 0.517361 0.517361
v 0.079620 0.309896 0.510851
v 0.005148 0.752550 0.752550
v 0.022955 0.520399 0.752170
v 0.071476 0.319010 0.751356
v 0.318231 -0.288303 0.000000
v 0.319637 -0.510851 -0.049913
v 0.320228 -0.751356 -0.067763
v 0.519724 -0.309896 0.049913
v 0.520448 -0.517361 0.000000
v 0.520785 -0.752170 -0.018229
v 0.752466 -0.319011 0.067763
v 0.752556 -0.520399 0.018229
v 0.752598 -0.752550 0.000000
v 0.104689 -0.288303 -0.288303
v 0.079620 -0.309896 -0.510851
v 0.071476 -0.319010 -0.751356
v 0.079620 -0.510851 -0.309896
v 0.037809 -0.517361 -0.517361
v 0.022955 -0.520399 -0.752170
v 0.071476 -0.751356 -0.319010
v 0.022955 -0.752170 -0.520399
v 0.005148 -0.752550 -0.752550
v 0.318231 0.288303 0.000000
v 0.319637 0.510851 0.049913
v 0.320228 0.751356 0.067763
v 0.519724 0.309896 -0.049913
v 0.520448 0.517361 0.000000
v 0.520785 0.752170 0.018229
v 0.752466 0.319010 -0.067763
v 0.752556 0.520399 -0.018229
v 0.752598 0.752550 0.000000
v 0.320228 -0.067763 -0.751356
v 0.319637 -0.049913 -0.510851
v 0.318231 -0.000000 -0.288303
v 0.520785 -0.018229 -0.752170
v 0.520447 -0.000000 -0.517361
v 0.519724 0.049913 -0.309896
v 0.752598 -0.000000 -0.752550
v 0.752556 0.018229 -0.520399
v 0.752466 0.067762 -0.319010
v 0.320228 0.067763 0.751356
v 0.319637 0.049913 0.510851
v 0.318231 -0.000000 0.288303
v 0.520785 0.018229 0.752170
v 0.520447 -0.000000 0.517361
v 0.519724 -0.049913 0.309896
v 0.752598 -0.000000 0.752550
v 0.752556 -0.018229 0.520399
v 0.752466 -0.067763 0.319011
vt 0.751857 0.000609
vt 0.751929 0.000193
vt 0.515432 0.001543
vt 0.514853 0.004871
vt 0.304784 0.004437
vt 0.302019 0.014964
vt 0.751218 0.000024
vt 0.509742 0.000193
vt 0.286687 0.000555
vt 1.000000 0.000000
vt 1.000000 0.000000
vt 0.751640 0.001206
vt 0.513117 0.009645
vt 0.293724 0.033308
vt 0.138125 0.023325
vt 0.090909 0.090909
vt 0.145062 0.006173
vt 0.115355 0.000772
vt 0.250000 0.000000
vt 0.000000 0.000000
vt 0.500000 0.000000
vt 0.750000 0.000000
vt 1.000000 0.000000
vt 1.000000 0.000000
vt 1.000000 0.000000
vt 0.014964 0.051097
vt 0.004871 0.014419
vt 0.001543 0.015432
vt 0.004437 0.054784
vt 0.000193 0.009742
vt 0.000555 0.036687
vt 0.000609 0.001802
vt 0.000193 0.001929
vt 0.000024 0.001218
vt 0.033308 0.033308
vt 0.023325 0.138125
vt 0.006173 0.145062
vt 0.000772 0.115355
vt 0.000000 0.000000
vt 0.000000 0.000000
vt 0.000000 0.000000
vt 0.000000 0.000000
vt 0.000000 0.000000
vt 0.000000 0.000000
vt 0.000000 0.000000
vt 0.000000 0.000000
vt 0.001206 0.001206
vt 0.000000 0.000000
vt 0.009645 0.009645
vt 0.014964 0.302019
vt 0.004437 0.304784
vt 0.001543 0.515432
vt 0.004871 0.514853
vt 0.000193 0.751929
vt 0.000609 0.751857
vt 0.000555 0.286687
vt 0.000193 0.509742
vt 0.000024 0.751218
vt 0.033308 0.293724
vt 0.009645 0.513117
vt 0.001206 0.751640
vt 0.000000 1.000000
vt 0.000000 1.000000
vt 0.000000 1.000000
vt 0.000000 1.000000
vt 0.000000 0.750000
vt 0.000000 1.000000
vt 0.000000 0.500000
vt 0.000000 0.250000
vt 0.302019 0.051097
vt 0.304784 0.054784
vt 0.515432 0.015432
vt 0.514853 0.014419
vt 0.751929 0.001929
vt 0.751857 0.001802
vt 0.286687 0.036687
vt 0.509742 0.009742
vt 0.751218 0.001218
vt 0.138125 0.138125
vt 1.000000 0.000000
vt 1.000000 0.000000
vt 1.000000 0.000000
vt 0.750000 0.000000
vt 1.000000 0.000000
vt 0.500000 0.000000
vt 0.250000 0.000000
vt 0.115355 0.115355
vt 0.000000 0.000000
vt 0.145062 0.145062
vt 0.001802 0.751857
vt 0.001929 0.751929
vt 0.015432 0.515432
vt 0.014419 0.514853
vt 0.054784 0.304784
vt 0.051097 0.302019
vt 0.001218 0.751218
vt 0.009742 0.509742
vt 0.036687 0.286687
vt 0.000000 1.000000
vt 0.000000 0.250000
vt 0.000000 0.500000
vt 0.000000 0.750000
vt 0.000000 1.000000
vt 0.000000 1.000000
vt 0.000000 1.000000
vt 0.036687 0.000555
vt 0.009742 0.000193
vt 0.015432 0.001543
vt 0.054784 0.004437
vt 0.014419 0.004871
vt 0.051097 0.014964
vt 0.001218 0.000024
vt 0.001929 0.000193
vt 0.001802 0.000609
vt 0.000000 0.000000
vt 0.000000 0.000000
vt 0.000000 0.000000
vt 0.000000 0.000000
vt 0.000000 0.000000
vt 0.000000 0.000000
vt 0.000000 0.000000
vn 0.9273 0.0100 0.3742
vn 0.9882 0.0316 0.1496
vn 0.9860 0.1177 0.1177
vn 0.9457 0.0478 0.3215
vn 0.9457 0.3215 0.0478
vn 0.9657 0.1836 0.1836
vn 0.9983 0.0416 0.0416
vn 0.9882 0.1496 0.0316
vn 0.9273 0.3742 0.0100
vn 0.7095 -0.0047 0.7047
vn 0.9221 0.0022 0.3869
vn 0.7177 -0.0184 0.6960
vn 0.7518 -0.0548 0.6571
vn 0.8511 -0.0729 0.5199
vn 0.8511 0.5199 -0.0729
vn 1.0000 0.0000 0.0000
vn 0.7518 0.6571 -0.0548
vn 0.7177 0.6960 -0.0184
vn 0.9221 0.3869 0.0022
vn 0.7095 0.7047 -0.0047
vn 0.9875 0.1575 0.0075
vn 0.9990 0.0439 0.0099
vn 0.9990 0.0099 0.0439
vn 0.9999 0.0104 0.0104
vn 0.9875 0.0075 0.1575
vn 0.4596 0.3069 -0.8334
vn 0.1760 0.3759 -0.9098
vn 0.1643 0.1530 -0.9745
vn 0.4107 0.1299 -0.9024
vn 0.1603 0.0432 -0.9861
vn 0.3951 0.0375 -0.9179
vn 0.0487 0.3880 -0.9204
vn 0.0456 0.1583 -0.9863
vn 0.0446 0.0443 -0.9980
vn 0.5097 0.6084 -0.6084
vn 0.8511 0.0729 -0.5199
vn 0.7518 0.0548 -0.6571
vn 0.7177 0.0184 -0.6960
vn 0.3914 0.0091 -0.9202
vn 0.7095 0.0047 -0.7047
vn 0.1596 0.0103 -0.9871
vn 0.0445 0.0105 -0.9989
vn 0.0105 0.0444 -0.9989
vn 0.0105 0.0105 -0.9999
vn 0.0108 0.1593 -0.9872
vn 0.0115 0.3899 -0.9208
vn 0.0512 0.7062 -0.7062
vn 0.0121 0.7071 -0.7071
vn 0.1863 0.6947 -0.6947
vn 0.9657 -0.1836 -0.1836
vn 0.9457 -0.0478 -0.3215
vn 0.9860 -0.1177 -0.1177
vn 0.9457 -0.3215 -0.0478
vn 0.9882 -0.1496 -0.0316
vn 0.9273 -0.3742 -0.0100
vn 0.9273 -0.0100 -0.3742
vn 0.9882 -0.0316 -0.1496
vn 0.9983 -0.0416 -0.0416
vn 0.8511 -0.5199 0.0729
vn 0.7518 -0.6571 0.0548
vn 0.7177 -0.6960 0.0184
vn 0.9221 -0.3869 -0.0022
vn 0.7095 -0.7047 0.0047
vn 0.9875 -0.1575 -0.0075
vn 0.9990 -0.0439 -0.0099
vn 0.9990 -0.0099 -0.0439
vn 0.9999 -0.0104 -0.0104
vn 0.9875 -0.0075 -0.1575
vn 0.9221 -0.0022 -0.3869
vn 0.4596 -0.3069 0.8334
vn 0.1760 -0.3759 0.9098
vn 0.1643 -0.1530 0.9745
vn 0.4107 -0.1299 0.9024
vn 0.1603 -0.0432 0.9861
vn 0.3951 -0.0375 0.9179
vn 0.0487 -0.3880 0.9204
vn 0.0456 -0.1583 0.9863
vn 0.0446 -0.0443 0.9980
vn 0.5097 -0.6084 0.6084
vn 0.3914 -0.0091 0.9202
vn 0.1596 -0.0103 0.9871
vn 0.0445 -0.0105 0.9989
vn 0.0105 -0.0444 0.9989
vn 0.0105 -0.0105 0.9999
vn 0.0108 -0.1593 0.9872
vn 0.0115 -0.3899 0.9208
vn 0.0512 -0.7062 0.7062
vn 0.0121 -0.7071 0.7071
vn 0.1863 -0.6947 0.6947
vn 0.3951 -0.9179 0.0375
vn 0.1603 -0.9861 0.0432
vn 0.1643 -0.9745 0.1530
vn 0.4107 -0.9024 0.1299
vn 0.1760 -0.9098 0.3759
vn 0.4596 -0.8334 0.3069
vn 0.0446 -0.9980 0.0443
vn 0.0456 -0.9863 0.1583
vn 0.0487 -0.9204 0.3880
vn 0.3914 -0.9202 0.0091
vn 0.0115 -0.9208 0.3899
vn 0.0108 -0.9872 0.1593
vn 0.0105 -0.9989 0.0444
vn 0.0445 -0.9989 0.0105
vn 0.0105 -0.9999 0.0105
vn 0.1596 -0.9871 0.0103
vn 0.3951 0.9179 -0.0375
vn 0.1603 0.9861 -0.0432
vn 0.1643 0.9745 -0.1530
vn 0.4107 0.9024 -0.1299
vn 0.1760 0.9098 -0.3759
vn 0.4596 0.8334 -0.3069
vn 0.0446 0.9980 -0.0443
vn 0.0456 0.9863 -0.1583
vn 0.0487 0.9204 -0.3880
vn 0.3914 0.9202 -0.0091
vn 0.0115 0.9208 -0.3899
vn 0.0108 0.9872 -0.1593
vn 0.0105 0.9989 -0.0444
vn 0.0445 0.9989 -0.0105
vn 0.0105 0.9999 -0.0105
vn 0.1596 0.9871 -0.0103
s 1
f 68/1/1 71/2/2 72/3/3 69/4/4
f 69/4/4 72/3/3 73/5/5 70/6/6
f 71/2/2 74/7/7 75/8/8 72/3/3
f 72/3/3 75/8/8 76/9/9 73/5/5
f 2/10/10 28/11/11 68/1/1 19/12/12
f 19/12/12 68/1/1 69/4/4 18/13/13
f 18/13/13 69/4/4 70/6/6 17/14/14
f 17/14/14 70/6/6 23/15/15 1/16/16
f 70/6/6 73/5/5 24/17/17 23/15/15
f 73/5/5 76/9/9 25/18/18 24/17/17
f 76/9/9 20/19/19 4/20/20 25/18/18
f 75/8/8 21/21/21 20/19/19 76/9/9
f 74/7/7 22/22/22 21/21/21 75/8/8
f 26/23/23 5/24/24 22/22/22 74/7/7
f 27/25/25 26/23/23 74/7/7 71/2/2
f 28/11/11 27/25/25 71/2/2 68/1/1
f 77/26/26 80/27/27 81/28/28 78/29/29
f 78/29/29 81/28/28 82/30/30 79/31/31
f 80/27/27 83/32/32 84/33/33 81/28/28
f 81/28/28 84/33/33 85/34/34 82/30/30
f 1/16/16 64/35/35 77/26/26 32/36/36
f 32/36/36 77/26/26 78/29/29 33/37/37
f 33/37/37 78/29/29 79/31/31 34/38/38
f 34/38/38 79/31/31 59/39/39 6/40/40
f 79/31/31 82/30/30 60/41/41 59/39/39
f 82/30/30 85/34/34 61/42/42 60/41/41
f 85/34/34 58/43/43 13/44/44 61/42/42
f 84/33/33 57/45/45 58/43/43 85/34/34
f 83/32/32 56/46/46 57/45/45 84/33/33
f 62/47/47 11/48/48 56/46/46 83/32/32
f 63/49/49 62/47/47 83/32/32 80/27/27
f 64/35/35 63/49/49 80/27/27 77/26/26
f 86/50/50 89/51/51 90/52/52 87/53/53
f 87/53/53 90/52/52 91/54/54 88/55/55
f 89/51/51 92/56/56 93/57/57 90/52/52
f 90/52/52 93/57/57 94/58/58 91/54/54
f 1/16/16 32/36/36 86/50/50 16/59/59
f 16/59/59 86/50/50 87/53/53 15/60/60
f 15/60/60 87/53/53 88/55/55 14/61/61
f 14/61/61 88/55/55 35/62/62 3/63/63
f 88/55/55 91/54/54 36/64/64 35/62/62
f 91/54/54 94/58/58 37/65/65 36/64/64
f 94/58/58 29/66/66 7/67/67 37/65/65
f 93/57/57 30/68/68 29/66/66 94/58/58
f 92/56/56 31/69/69 30/68/68 93/57/57
f 34/38/38 6/40/40 31/69/69 92/56/56
f 33/37/37 34/38/38 92/56/56 89/51/51
f 32/36/36 33/37/37 89/51/51 86/50/50
f 95/70/70 98/71/71 99/72/72 96/73/73
f 96/73/73 99/72/72 100/74/74 97/75/75
f 98/71/71 101/76/76 102/77/77 99/72/72
f 99/72/72 102/77/77 103/78/78 100/74/74
f 1/16/16 52/79/79 95/70/70 17/14/14
f 17/14/14 95/70/70 96/73/73 18/13/13
f 18/13/13 96/73/73 97/75/75 19/12/12
f 19/12/12 97/75/75 47/80/80 2/10/10
f 97/75/75 100/74/74 48/81/81 47/80/80
f 100/74/74 103/78/78 49/82/82 48/81/81
f 103/78/78 43/83/83 10/84/84 49/82/82
f 102/77/77 42/85/85 43/83/83 103/78/78
f 101/76/76 41/86/86 42/85/85 102/77/77
f 50/87/87 9/88/88 41/86/86 101/76/76
f 51/89/89 50/87/87 101/76/76 98/71/71
f 52/79/79 51/89/89 98/71/71 95/70/70
f 104/90/90 107/91/91 108/92/92 105/93/93
f 105/93/93 108/92/92 109/94/94 106/95/95
f 107/91/91 110/96/96 111/97/97 108/92/92
f 108/92/92 111/97/97 112/98/98 109/94/94
f 3/63/63 44/99/99 104/90/90 14/61/61
f 14/61/61 104/90/90 105/93/93 15/60/60
f 15/60/60 105/93/93 106/95/95 16/59/59
f 16/59/59 106/95/95 52/79/79 1/16/16
f 106/95/95 109/94/94 51/89/89 52/79/79
f 109/94/94 112/98/98 50/87/87 51/89/89
f 112/98/98 40/100/100 9/88/88 50/87/87
f 111/97/97 39/101/101 40/100/100 112/98/98
f 110/96/96 38/102/102 39/101/101 111/97/97
f 46/103/103 8/104/104 38/102/102 110/96/96
f 45/105/105 46/103/103 110/96/96 107/91/91
f 44/99/99 45/105/105 107/91/91 104/90/90
f 113/106/106 116/107/107 117/108/108 114/109/109
f 114/109/109 117/108/108 118/110/110 115/111/111
f 116/107/107 119/112/112 120/113/113 117/108/108
f 117/108/108 120/113/113 121/114/114 118/110/110
f 4/20/20 67/115/115 113/106/106 25/18/18
f 25/18/18 113/106/106 114/109/109 24/17/17
f 24/17/17 114/109/109 115/111/111 23/15/15
f 23/15/15 115/111/111 64/35/35 1/16/16
f 115/111/111 118/110/110 63/49/49 64/35/35
f 118/110/110 121/114/114 62/47/47 63/49/49
f 121/114/114 53/116/116 11/48/48 62/47/47
f 120/113/113 54/117/117 53/116/116 121/114/114
f 119/112/112 55/118/118 54/117/117 120/113/113
f 65/119/119 12/120/120 55/118/118 119/112/112
f 66/121/121 65/119/119 119/112/112 116/107/107
f 67/115/115 66/121/121 116/107/107 113/106/106
