# Blender v3.0.0 OBJ File: 'box_experiment.blend'
# www.blender.org
o 1
v 0.250000 0.250000 0.250000
v 1.000000 0.166667 0.166667
v 0.166666 0.166666 1.000000
v 1.000000 -0.000000 1.000000
v -0.000000 1.000000 1.000000
v 0.166667 1.000000 0.166667
v 1.000000 1.000000 0.000000
v 0.168451 0.168451 0.753954
v 0.180941 0.180941 0.531636
v 0.211749 0.211749 0.355629
v 0.355630 0.211749 0.211749
v 0.531636 0.180941 0.180941
v 0.753955 0.168451 0.168451
v 1.000000 0.070313 0.320313
v 1.000000 0.020833 0.520834
v 1.000000 0.002604 0.752604
v 0.752604 0.002604 1.000000
v 0.520833 0.020833 1.000000
v 0.320312 0.070312 1.000000
v 0.002604 0.752604 1.000000
v 0.020833 0.520833 1.000000
v 0.070312 0.320312 1.000000
v 0.002604 1.000000 0.752604
v 0.020833 1.000000 0.520833
v 0.070312 1.000000 0.320313
v 0.320313 1.000000 0.070313
v 0.520833 1.000000 0.020834
v 0.752604 1.000000 0.002605
v 0.168451 0.753955 0.168451
v 0.180941 0.531636 0.180941
v 0.211749 0.355630 0.211749
v 1.000000 0.752604 0.002605
v 1.000000 0.520833 0.020834
v 1.000000 0.320313 0.070313
v 0.344514 0.130972 0.344514
v 0.328511 0.088493 0.528598
v 0.321337 0.072585 0.753575
v 0.528598 0.088493 0.328511
v 0.523534 0.040895 0.523534
v 0.521171 0.023341 0.752942
v 0.753575 0.072585 0.321337
v 0.752942 0.023341 0.521171
v 0.752646 0.005196 0.752646
v 0.130972 0.344514 0.344514
v 0.088493 0.528598 0.328511
v 0.072585 0.753575 0.321337
v 0.088493 0.328511 0.528598
v 0.040895 0.523534 0.523534
v 0.023341 0.752942 0.521171
v 0.072585 0.321337 0.753575
v 0.023341 0.521171 0.752942
v 0.005196 0.752646 0.752646
v 0.753575 0.321337 0.072585
v 0.752942 0.521171 0.023341
v 0.752647 0.752647 0.005197
v 0.528598 0.328511 0.088494
v 0.523534 0.523534 0.040895
v 0.521171 0.752942 0.023341
v 0.344514 0.344514 0.130972
v 0.328511 0.528598 0.088494
v 0.321337 0.753575 0.072585
vt 0.250000 0.250000
vt 0.500000 0.250000
vt 0.500000 0.500000
vt 0.250000 0.500000
vt 0.500000 0.750000
vt 0.250000 0.750000
vt 0.750000 0.250000
vt 0.750000 0.500000
vt 0.750000 0.750000
vt 0.000000 0.000000
vt 0.250000 0.000000
vt 0.000000 0.250000
vt 0.000000 0.500000
vt 0.000000 0.750000
vt 0.250000 1.000000
vt 0.000000 1.000000
vt 0.500000 1.000000
vt 0.750000 1.000000
vt 1.000000 0.750000
vt 1.000000 1.000000
vt 1.000000 0.500000
vt 1.000000 0.250000
vt 0.750000 0.000000
vt 1.000000 0.000000
vt 0.500000 0.000000
vt 0.036133 0.286133
vt 0.009549 0.509549
vt 0.013889 0.513889
vt 0.050347 0.300347
vt 0.009549 0.509549
vt 0.036133 0.286133
vt 0.001194 0.751194
vt 0.001736 0.751736
vt 0.001194 0.751194
vt 0.114583 0.114583
vt 0.138889 0.138889
vt 0.114583 0.114583
vt 0.000000 0.250000
vt 0.000000 0.000000
vt 0.000000 0.500000
vt 0.000000 0.750000
vt 0.000000 1.000000
vt 0.000000 1.000000
vt 0.000000 1.000000
vt 0.000000 1.000000
vt 0.751194 0.001194
vt 0.509549 0.009549
vt 0.513889 0.013889
vt 0.751736 0.001736
vt 0.509549 0.009549
vt 0.751194 0.001194
vt 0.286133 0.036133
vt 0.300347 0.050347
vt 0.286133 0.036133
vt 1.000000 0.000000
vt 1.000000 0.000000
vt 1.000000 0.000000
vt 0.750000 0.000000
vt 1.000000 0.000000
vt 0.500000 0.000000
vt 0.250000 0.000000
vn -0.2370 -0.9421 -0.2370
vn -0.2385 -0.9681 -0.0763
vn -0.0763 -0.9681 -0.2385
vn -0.0774 -0.9940 -0.0774
vn -0.4703 -0.7468 -0.4703
vn -0.5195 -0.8216 -0.2347
vn -0.5301 -0.8444 -0.0769
vn -0.5312 -0.8472 -0.0100
vn -0.2394 -0.9709 -0.0101
vn -0.0783 -0.9969 -0.0103
vn -0.0105 -0.9999 -0.0105
vn -0.0103 -0.9969 -0.0783
vn -0.0101 -0.9709 -0.2394
vn -0.0100 -0.8472 -0.5312
vn -0.0769 -0.8444 -0.5301
vn -0.2347 -0.8216 -0.5195
vn -0.9421 -0.2370 -0.2370
vn -0.9681 -0.0763 -0.2385
vn -0.9681 -0.2385 -0.0763
vn -0.9940 -0.0774 -0.0774
vn -0.7468 -0.4703 -0.4703
vn -0.8216 -0.2347 -0.5195
vn -0.8444 -0.0769 -0.5301
vn -0.8472 -0.0100 -0.5312
vn -0.9709 -0.0101 -0.2394
vn -0.9969 -0.0103 -0.0783
vn -0.9999 -0.0105 -0.0105
vn -0.9969 -0.0783 -0.0103
vn -0.9709 -0.2394 -0.0101
vn -0.8472 -0.5312 -0.0100
vn -0.8444 -0.5301 -0.0769
vn -0.8216 -0.5195 -0.2347
vn -0.0763 -0.2385 -0.9681
vn -0.0774 -0.0774 -0.9940
vn -0.2370 -0.2370 -0.9421
vn -0.2385 -0.0763 -0.9681
vn -0.0100 -0.5312 -0.8472
vn -0.0101 -0.2394 -0.9709
vn -0.0103 -0.0783 -0.9969
vn -0.0105 -0.0105 -0.9999
vn -0.0783 -0.0103 -0.9969
vn -0.2394 -0.0101 -0.9709
vn -0.5312 -0.0100 -0.8472
vn -0.5301 -0.0769 -0.8444
vn -0.5195 -0.2347 -0.8216
vn -0.4703 -0.4703 -0.7468
vn -0.2347 -0.5195 -0.8216
vn -0.0769 -0.5301 -0.8444
s off
f 35/1/1 38/2/1 39/3/1 36/4/1
f 36/4/2 39/3/2 40/5/2 37/6/2
f 38/2/3 41/7/3 42/8/3 39/3/3
f 39/3/4 42/8/4 43/9/4 40/5/4
f 1/10/5 11/11/5 35/1/5 10/12/5
f 10/12/6 35/1/6 36/4/6 9/13/6
f 9/13/7 36/4/7 37/6/7 8/14/7
f 8/14/8 37/6/8 19/15/8 3/16/8
f 37/6/9 40/5/9 18/17/9 19/15/9
f 40/5/10 43/9/10 17/18/10 18/17/10
f 43/9/11 16/19/11 4/20/11 17/18/11
f 42/8/12 15/21/12 16/19/12 43/9/12
f 41/7/13 14/22/13 15/21/13 42/8/13
f 13/23/14 2/24/14 14/22/14 41/7/14
f 12/25/15 13/23/15 41/7/15 38/2/15
f 11/11/16 12/25/16 38/2/16 35/1/16
f 44/26/17 47/27/17 48/28/17 45/29/17
f 45/29/18 48/28/18 49/30/18 46/31/18
f 47/27/19 50/32/19 51/33/19 48/28/19
f 48/28/20 51/33/20 52/34/20 49/30/20
f 1/10/21 10/12/21 44/26/21 31/35/21
f 31/35/22 44/26/22 45/29/22 30/36/22
f 30/36/23 45/29/23 46/31/23 29/37/23
f 29/37/24 46/31/24 25/38/24 6/39/24
f 46/31/25 49/30/25 24/40/25 25/38/25
f 49/30/26 52/34/26 23/41/26 24/40/26
f 52/34/27 20/42/27 5/43/27 23/41/27
f 51/33/28 21/44/28 20/42/28 52/34/28
f 50/32/29 22/45/29 21/44/29 51/33/29
f 8/14/30 3/16/30 22/45/30 50/32/30
f 9/13/31 8/14/31 50/32/31 47/27/31
f 10/12/32 9/13/32 47/27/32 44/26/32
f 53/46/33 56/47/33 57/48/33 54/49/33
f 54/49/34 57/48/34 58/50/34 55/51/34
f 56/47/35 59/52/35 60/53/35 57/48/35
f 57/48/36 60/53/36 61/54/36 58/50/36
f 2/24/37 13/23/37 53/46/37 34/55/37
f 34/55/38 53/46/38 54/49/38 33/56/38
f 33/56/39 54/49/39 55/51/39 32/57/39
f 32/57/40 55/51/40 28/58/40 7/59/40
f 55/51/41 58/50/41 27/60/41 28/58/41
f 58/50/42 61/54/42 26/61/42 27/60/42
f 61/54/43 29/37/43 6/39/43 26/61/43
f 60/53/44 30/36/44 29/37/44 61/54/44
f 59/52/45 31/35/45 30/36/45 60/53/45
f 11/11/46 1/10/46 31/35/46 59/52/46
f 12/25/47 11/11/47 59/52/47 56/47/47
f 13/23/48 12/25/48 56/47/48 53/46/48
