# Blender v3.0.0 OBJ File: 'box_experiment.blend'
# www.blender.org
o 10
v -0.250000 -0.250000 -0.250000
v -0.166667 -0.166667 -1.000000
v -1.000000 -0.166666 -0.166667
v -1.000000 0.000000 -1.000000
v -1.000001 -1.000000 0.000000
v -0.166667 -1.000000 -0.166667
v -0.000001 -1.000000 -1.000000
v 0.250000 0.250000 0.250000
v 0.166668 0.166667 1.000000
v 1.000000 0.166666 0.166666
v 1.000001 -0.000000 0.999999
v 1.000000 1.000000 -0.000001
v 0.166667 1.000000 0.166667
v 0.000001 1.000000 1.000000
v -0.753955 -0.168451 -0.168451
v -0.531636 -0.180941 -0.180941
v -0.355630 -0.211749 -0.211749
v -0.211749 -0.211749 -0.355629
v -0.180941 -0.180942 -0.531636
v -0.168451 -0.168451 -0.753954
v -0.320313 -0.070313 -1.000000
v -0.520833 -0.020833 -1.000000
v -0.752604 -0.002604 -1.000000
v -1.000000 -0.002604 -0.752604
v -1.000000 -0.020833 -0.520833
v -1.000000 -0.070312 -0.320312
v -1.000000 -0.752604 -0.002604
v -1.000000 -0.520833 -0.020833
v -1.000000 -0.320312 -0.070312
v -0.752605 -1.000000 -0.002604
v -0.520834 -1.000000 -0.020833
v -0.320313 -1.000000 -0.070312
v -0.070313 -1.000000 -0.320312
v -0.020834 -1.000000 -0.520833
v -0.002605 -1.000000 -0.752604
v -0.168451 -0.753955 -0.168451
v -0.180942 -0.531636 -0.180941
v -0.211749 -0.355630 -0.211749
v -0.002605 -0.752604 -1.000000
v -0.020834 -0.520834 -1.000000
v -0.070313 -0.320313 -1.000000
v 0.753955 0.168451 0.168450
v 0.531636 0.180941 0.180941
v 0.355630 0.211749 0.211749
v 0.211750 0.211749 0.355629
v 0.180942 0.180941 0.531636
v 0.168452 0.168451 0.753954
v 0.320313 0.070312 1.000000
v 0.520834 0.020833 1.000000
v 0.752605 0.002604 1.000000
v 1.000001 0.002604 0.752604
v 1.000000 0.020833 0.520833
v 1.000000 0.070312 0.320312
v 1.000000 0.752604 0.002603
v 1.000000 0.520833 0.020833
v 1.000000 0.320312 0.070312
v 0.752604 1.000000 0.002604
v 0.520834 1.000000 0.020833
v 0.320313 1.000000 0.070312
v 0.070313 1.000000 0.320312
v 0.020834 1.000000 0.520833
v 0.002605 1.000000 0.752604
v 0.168451 0.753954 0.168451
v 0.180942 0.531636 0.180941
v 0.211750 0.355629 0.211749
v 0.002605 0.752604 1.000000
v 0.020834 0.520833 1.000000
v 0.070313 0.320312 1.000000
v -0.344514 -0.130972 -0.344514
v -0.528598 -0.088493 -0.328511
v -0.753575 -0.072585 -0.321337
v -0.328511 -0.088494 -0.528598
v -0.523534 -0.040895 -0.523534
v -0.752942 -0.023341 -0.521171
v -0.321337 -0.072585 -0.753575
v -0.521171 -0.023341 -0.752942
v -0.752646 -0.005196 -0.752646
v -0.344514 -0.344514 -0.130972
v -0.328511 -0.528598 -0.088493
v -0.321338 -0.753575 -0.072585
v -0.528598 -0.328511 -0.088493
v -0.523534 -0.523534 -0.040895
v -0.521171 -0.752942 -0.023341
v -0.753575 -0.321337 -0.072585
v -0.752942 -0.521171 -0.023341
v -0.752647 -0.752646 -0.005196
v -0.072585 -0.321338 -0.753575
v -0.023341 -0.521171 -0.752942
v -0.005197 -0.752647 -0.752646
v -0.088494 -0.328511 -0.528598
v -0.040895 -0.523534 -0.523534
v -0.023341 -0.752942 -0.521171
v -0.130972 -0.344514 -0.344514
v -0.088494 -0.528598 -0.328511
v -0.072585 -0.753575 -0.321337
v 0.344514 0.130972 0.344513
v 0.328511 0.088493 0.528597
v 0.321338 0.072585 0.753574
v 0.528598 0.088493 0.328510
v 0.523535 0.040895 0.523534
v 0.521172 0.023341 0.752941
v 0.753575 0.072585 0.321337
v 0.752942 0.023341 0.521170
v 0.752647 0.005196 0.752646
v 0.344514 0.344513 0.130972
v 0.528598 0.328511 0.088493
v 0.753575 0.321337 0.072585
v 0.328511 0.528597 0.088493
v 0.523534 0.523534 0.040895
v 0.752942 0.521171 0.023341
v 0.321338 0.753575 0.072585
v 0.521171 0.752942 0.023341
v 0.752647 0.752646 0.005196
v 0.072586 0.321337 0.753575
v 0.088494 0.328511 0.528597
v 0.130972 0.344513 0.344514
v 0.023342 0.521171 0.752942
v 0.040896 0.523534 0.523534
v 0.088494 0.528598 0.328511
v 0.005197 0.752646 0.752646
v 0.023342 0.752942 0.521171
v 0.072586 0.753575 0.321337
vt 0.250000 0.250000
vt 0.500000 0.250000
vt 0.500000 0.500000
vt 0.250000 0.500000
vt 0.500000 0.750000
vt 0.250000 0.750000
vt 0.750000 0.250000
vt 0.750000 0.500000
vt 0.750000 0.750000
vt 0.000000 0.000000
vt 0.250000 0.000000
vt 0.000000 0.250000
vt 0.000000 0.500000
vt 0.000000 0.750000
vt 0.250000 1.000000
vt 0.000000 1.000000
vt 0.500000 1.000000
vt 0.750000 1.000000
vt 1.000000 0.750000
vt 1.000000 1.000000
vt 1.000000 0.500000
vt 1.000000 0.250000
vt 0.750000 0.000000
vt 1.000000 0.000000
vt 0.500000 0.000000
vt 0.036133 0.286133
vt 0.009549 0.509549
vt 0.013889 0.513889
vt 0.050347 0.300347
vt 0.009549 0.509549
vt 0.036133 0.286133
vt 0.001194 0.751194
vt 0.001736 0.751736
vt 0.001194 0.751194
vt 0.114583 0.114583
vt 0.138889 0.138889
vt 0.114583 0.114583
vt 0.000000 0.250000
vt 0.000000 0.000000
vt 0.000000 0.500000
vt 0.000000 0.750000
vt 0.000000 1.000000
vt 0.000000 1.000000
vt 0.000000 1.000000
vt 0.000000 1.000000
vt 0.751194 0.001194
vt 0.509549 0.009549
vt 0.513889 0.013889
vt 0.751736 0.001736
vt 0.509549 0.009549
vt 0.751194 0.001194
vt 0.286133 0.036133
vt 0.300347 0.050347
vt 0.286133 0.036133
vt 1.000000 0.000000
vt 1.000000 0.000000
vt 1.000000 0.000000
vt 0.750000 0.000000
vt 1.000000 0.000000
vt 0.500000 0.000000
vt 0.250000 0.000000
vt 0.343266 0.343266
vt 0.318528 0.528164
vt 0.520062 0.520062
vt 0.528164 0.318528
vt 0.752508 0.510320
vt 0.753520 0.288405
vt 0.288405 0.753521
vt 0.510320 0.752508
vt 0.751290 0.751290
vt 0.250000 0.250000
vt 0.210013 0.355630
vt 0.355630 0.210013
vt 0.531636 0.167052
vt 0.753955 0.118104
vt 1.000000 0.250000
vt 1.000000 0.000000
vt 1.000000 0.500000
vt 1.000000 0.750000
vt 0.750000 1.000000
vt 1.000000 1.000000
vt 0.500000 1.000000
vt 0.250000 1.000000
vt 0.118104 0.753955
vt 0.000000 1.000000
vt 0.167052 0.531636
vt 0.128476 0.343266
vt 0.078077 0.318528
vt 0.033951 0.520062
vt 0.078077 0.528164
vt 0.012056 0.752508
vt 0.039599 0.753520
vt 0.039599 0.288405
vt 0.012056 0.510320
vt 0.002484 0.751290
vt 0.210013 0.210013
vt 0.000000 1.000000
vt 0.000000 1.000000
vt 0.000000 1.000000
vt 0.000000 0.750000
vt 0.000000 1.000000
vt 0.000000 0.500000
vt 0.000000 0.250000
vt 0.118104 0.118104
vt 0.000000 0.000000
vt 0.167052 0.167052
vt 0.753520 0.039599
vt 0.752508 0.012056
vt 0.520062 0.033951
vt 0.528164 0.078077
vt 0.318528 0.078077
vt 0.343266 0.128476
vt 0.751290 0.002484
vt 0.510320 0.012056
vt 0.288405 0.039599
vt 1.000000 0.000000
vt 0.250000 0.000000
vt 0.500000 0.000000
vt 0.750000 0.000000
vt 1.000000 0.000000
vt 1.000000 0.000000
vt 1.000000 0.000000
vn 0.3677 0.8541 0.3677
vn 0.3868 0.9087 0.1572
vn 0.1581 0.9747 0.1581
vn 0.1572 0.9087 0.3868
vn 0.0436 0.9863 0.1590
vn 0.0437 0.9197 0.3900
vn 0.3900 0.9197 0.0437
vn 0.1590 0.9863 0.0436
vn 0.0442 0.9980 0.0442
vn 0.5773 0.5773 0.5773
vn 0.6620 0.6620 0.3515
vn 0.3515 0.6620 0.6620
vn 0.1574 0.6983 0.6983
vn 0.0443 0.7064 0.7064
vn 0.0102 0.9206 0.3903
vn 0.0103 0.7071 0.7071
vn 0.0102 0.9872 0.1594
vn 0.0104 0.9989 0.0444
vn 0.0444 0.9989 0.0104
vn 0.0105 0.9999 0.0105
vn 0.1594 0.9872 0.0102
vn 0.3903 0.9206 0.0102
vn 0.7064 0.7064 0.0443
vn 0.7071 0.7071 0.0103
vn 0.6983 0.6983 0.1574
vn 0.3677 0.3677 0.8541
vn 0.1572 0.3868 0.9087
vn 0.1581 0.1581 0.9747
vn 0.3868 0.1572 0.9087
vn 0.1590 0.0436 0.9863
vn 0.3900 0.0437 0.9197
vn 0.0437 0.3900 0.9197
vn 0.0436 0.1590 0.9863
vn 0.0442 0.0442 0.9980
vn 0.6620 0.3515 0.6620
vn 0.6983 0.1574 0.6983
vn 0.7064 0.0443 0.7064
vn 0.3903 0.0102 0.9206
vn 0.7071 0.0103 0.7071
vn 0.1594 0.0102 0.9872
vn 0.0444 0.0104 0.9989
vn 0.0104 0.0444 0.9989
vn 0.0105 0.0105 0.9999
vn 0.0102 0.1594 0.9872
vn 0.0102 0.3903 0.9206
vn 0.9197 0.3900 0.0437
vn 0.9087 0.3868 0.1572
vn 0.9747 0.1581 0.1581
vn 0.9863 0.1590 0.0436
vn 0.9863 0.0436 0.1590
vn 0.9980 0.0442 0.0442
vn 0.8541 0.3677 0.3677
vn 0.9087 0.1572 0.3868
vn 0.9197 0.0437 0.3900
vn 0.9206 0.3903 0.0102
vn 0.9872 0.1594 0.0102
vn 0.9989 0.0444 0.0104
vn 0.9989 0.0104 0.0444
vn 0.9999 0.0105 0.0105
vn 0.9872 0.0102 0.1594
vn 0.9206 0.0102 0.3903
vn -0.3677 -0.8541 -0.3677
vn -0.1572 -0.9087 -0.3868
vn -0.1581 -0.9747 -0.1581
vn -0.3868 -0.9087 -0.1572
vn -0.1590 -0.9863 -0.0436
vn -0.3900 -0.9197 -0.0437
vn -0.0437 -0.9197 -0.3900
vn -0.0436 -0.9863 -0.1590
vn -0.0442 -0.9980 -0.0442
vn -0.5773 -0.5773 -0.5773
vn -0.3515 -0.6620 -0.6620
vn -0.6620 -0.6620 -0.3515
vn -0.6983 -0.6983 -0.1574
vn -0.7064 -0.7064 -0.0443
vn -0.3903 -0.9206 -0.0102
vn -0.7071 -0.7071 -0.0103
vn -0.1594 -0.9872 -0.0102
vn -0.0444 -0.9989 -0.0104
vn -0.0104 -0.9989 -0.0444
vn -0.0105 -0.9999 -0.0105
vn -0.0102 -0.9872 -0.1594
vn -0.0102 -0.9206 -0.3903
vn -0.0443 -0.7064 -0.7064
vn -0.0103 -0.7071 -0.7071
vn -0.1574 -0.6983 -0.6983
vn -0.3677 -0.3677 -0.8541
vn -0.3868 -0.1572 -0.9087
vn -0.1581 -0.1581 -0.9747
vn -0.1572 -0.3868 -0.9087
vn -0.0436 -0.1590 -0.9863
vn -0.0437 -0.3900 -0.9197
vn -0.3900 -0.0437 -0.9197
vn -0.1590 -0.0436 -0.9863
vn -0.0442 -0.0442 -0.9980
vn -0.6620 -0.3515 -0.6620
vn -0.0102 -0.3903 -0.9206
vn -0.0102 -0.1594 -0.9872
vn -0.0104 -0.0444 -0.9989
vn -0.0444 -0.0104 -0.9989
vn -0.0105 -0.0105 -0.9999
vn -0.1594 -0.0102 -0.9872
vn -0.3903 -0.0102 -0.9206
vn -0.7064 -0.0443 -0.7064
vn -0.7071 -0.0103 -0.7071
vn -0.6983 -0.1574 -0.6983
vn -0.9197 -0.3900 -0.0437
vn -0.9863 -0.1590 -0.0436
vn -0.9747 -0.1581 -0.1581
vn -0.9087 -0.3868 -0.1572
vn -0.9087 -0.1572 -0.3868
vn -0.8541 -0.3677 -0.3677
vn -0.9980 -0.0442 -0.0442
vn -0.9863 -0.0436 -0.1590
vn -0.9197 -0.0437 -0.3900
vn -0.9206 -0.3903 -0.0102
vn -0.9206 -0.0102 -0.3903
vn -0.9872 -0.0102 -0.1594
vn -0.9989 -0.0104 -0.0444
vn -0.9989 -0.0444 -0.0104
vn -0.9999 -0.0105 -0.0105
vn -0.9872 -0.1594 -0.0102
s 1
f 69/1/1 72/2/2 73/3/3 70/4/4
f 70/4/4 73/3/3 74/5/5 71/6/6
f 72/2/2 75/7/7 76/8/8 73/3/3
f 73/3/3 76/8/8 77/9/9 74/5/5
f 1/10/10 18/11/11 69/1/1 17/12/12
f 17/12/12 69/1/1 70/4/4 16/13/13
f 16/13/13 70/4/4 71/6/6 15/14/14
f 15/14/14 71/6/6 26/15/15 3/16/16
f 71/6/6 74/5/5 25/17/17 26/15/15
f 74/5/5 77/9/9 24/18/18 25/17/17
f 77/9/9 23/19/19 4/20/20 24/18/18
f 76/8/8 22/21/21 23/19/19 77/9/9
f 75/7/7 21/22/22 22/21/21 76/8/8
f 20/23/23 2/24/24 21/22/22 75/7/7
f 19/25/25 20/23/23 75/7/7 72/2/2
f 18/11/11 19/25/25 72/2/2 69/1/1
f 78/26/26 81/27/27 82/28/28 79/29/29
f 79/29/29 82/28/28 83/30/30 80/31/31
f 81/27/27 84/32/32 85/33/33 82/28/28
f 82/28/28 85/33/33 86/34/34 83/30/30
f 1/10/10 17/12/12 78/26/26 38/35/35
f 38/35/35 78/26/26 79/29/29 37/36/36
f 37/36/36 79/29/29 80/31/31 36/37/37
f 36/37/37 80/31/31 32/38/38 6/39/39
f 80/31/31 83/30/30 31/40/40 32/38/38
f 83/30/30 86/34/34 30/41/41 31/40/40
f 86/34/34 27/42/42 5/43/43 30/41/41
f 85/33/33 28/44/44 27/42/42 86/34/34
f 84/32/32 29/45/45 28/44/44 85/33/33
f 15/14/14 3/16/16 29/45/45 84/32/32
f 16/13/13 15/14/14 84/32/32 81/27/27
f 17/12/12 16/13/13 81/27/27 78/26/26
f 87/46/46 90/47/47 91/48/48 88/49/49
f 88/49/49 91/48/48 92/50/50 89/51/51
f 90/47/47 93/52/52 94/53/53 91/48/48
f 91/48/48 94/53/53 95/54/54 92/50/50
f 2/24/24 20/23/23 87/46/46 41/55/55
f 41/55/55 87/46/46 88/49/49 40/56/56
f 40/56/56 88/49/49 89/51/51 39/57/57
f 39/57/57 89/51/51 35/58/58 7/59/59
f 89/51/51 92/50/50 34/60/60 35/58/58
f 92/50/50 95/54/54 33/61/61 34/60/60
f 95/54/54 36/37/37 6/39/39 33/61/61
f 94/53/53 37/36/36 36/37/37 95/54/54
f 93/52/52 38/35/35 37/36/36 94/53/53
f 18/11/11 1/10/10 38/35/35 93/52/52
f 19/25/25 18/11/11 93/52/52 90/47/47
f 20/23/23 19/25/25 90/47/47 87/46/46
f 96/62/62 99/63/63 100/64/64 97/65/65
f 97/65/65 100/64/64 101/66/66 98/67/67
f 99/63/63 102/68/68 103/69/69 100/64/64
f 100/64/64 103/69/69 104/70/70 101/66/66
f 8/71/71 44/72/72 96/62/62 45/73/73
f 45/73/73 96/62/62 97/65/65 46/74/74
f 46/74/74 97/65/65 98/67/67 47/75/75
f 47/75/75 98/67/67 48/76/76 9/77/77
f 98/67/67 101/66/66 49/78/78 48/76/76
f 101/66/66 104/70/70 50/79/79 49/78/78
f 104/70/70 51/80/80 11/81/81 50/79/79
f 103/69/69 52/82/82 51/80/80 104/70/70
f 102/68/68 53/83/83 52/82/82 103/69/69
f 42/84/84 10/85/85 53/83/83 102/68/68
f 43/86/86 42/84/84 102/68/68 99/63/63
f 44/72/72 43/86/86 99/63/63 96/62/62
f 105/87/87 108/88/88 109/89/89 106/90/90
f 106/90/90 109/89/89 110/91/91 107/92/92
f 108/88/88 111/93/93 112/94/94 109/89/89
f 109/89/89 112/94/94 113/95/95 110/91/91
f 8/71/71 65/96/96 105/87/87 44/72/72
f 44/72/72 105/87/87 106/90/90 43/86/86
f 43/86/86 106/90/90 107/92/92 42/84/84
f 42/84/84 107/92/92 56/97/97 10/85/85
f 107/92/92 110/91/91 55/98/98 56/97/97
f 110/91/91 113/95/95 54/99/99 55/98/98
f 113/95/95 57/100/100 12/101/101 54/99/99
f 112/94/94 58/102/102 57/100/100 113/95/95
f 111/93/93 59/103/103 58/102/102 112/94/94
f 63/104/104 13/105/105 59/103/103 111/93/93
f 64/106/106 63/104/104 111/93/93 108/88/88
f 65/96/96 64/106/106 108/88/88 105/87/87
f 114/107/107 117/108/108 118/109/109 115/110/110
f 115/110/110 118/109/109 119/111/111 116/112/112
f 117/108/108 120/113/113 121/114/114 118/109/109
f 118/109/109 121/114/114 122/115/115 119/111/111
f 9/77/77 68/116/116 114/107/107 47/75/75
f 47/75/75 114/107/107 115/110/110 46/74/74
f 46/74/74 115/110/110 116/112/112 45/73/73
f 45/73/73 116/112/112 65/96/96 8/71/71
f 116/112/112 119/111/111 64/106/106 65/96/96
f 119/111/111 122/115/115 63/104/104 64/106/106
f 122/115/115 60/117/117 13/105/105 63/104/104
f 121/114/114 61/118/118 60/117/117 122/115/115
f 120/113/113 62/119/119 61/118/118 121/114/114
f 66/120/120 14/121/121 62/119/119 120/113/113
f 67/122/122 66/120/120 120/113/113 117/108/108
f 68/116/116 67/122/122 117/108/108 114/107/107
