# Blender v3.0.0 OBJ File: 'box_experiment.blend'
# www.blender.org
o 11
v 0.250000 0.250000 0.250000
v 0.166666 0.166667 1.000000
v 1.000000 0.166667 0.166667
v 1.000000 -0.000000 1.000000
v 1.000000 1.000000 0.000000
v 0.166667 1.000000 0.166667
v -0.000000 1.000000 1.000000
v -0.166666 -0.166666 -0.000001
v -0.166666 -0.166666 -1.000001
v -1.000000 0.000000 -0.000001
v -0.999999 0.000001 -1.000001
v -0.166667 -0.166667 0.999999
v -1.000001 -0.000000 0.999999
v 0.000000 -1.000000 -0.000001
v 0.000001 -1.000000 -1.000001
v -0.000000 -1.000000 0.999999
v 0.753955 0.168451 0.168451
v 0.531636 0.180942 0.180941
v 0.355630 0.211749 0.211749
v 0.211749 0.211749 0.355629
v 0.180941 0.180941 0.531636
v 0.168451 0.168451 0.753954
v 0.320312 0.070312 1.000000
v 0.520833 0.020833 1.000000
v 0.752604 0.002604 1.000000
v 1.000000 0.002604 0.752604
v 1.000000 0.020833 0.520834
v 1.000000 0.070313 0.320313
v 1.000000 0.752604 0.002605
v 1.000000 0.520834 0.020834
v 1.000000 0.320313 0.070313
v 0.752604 1.000000 0.002605
v 0.520834 1.000000 0.020834
v 0.320313 1.000000 0.070313
v 0.070313 1.000000 0.320313
v 0.020833 1.000000 0.520833
v 0.002604 1.000000 0.752604
v 0.168451 0.753955 0.168451
v 0.180941 0.531636 0.180941
v 0.211749 0.355630 0.211749
v 0.002604 0.752604 1.000000
v 0.020833 0.520833 1.000000
v 0.070312 0.320312 1.000000
v -0.752604 -0.002604 -0.000001
v -0.520833 -0.020833 -0.000001
v -0.320312 -0.070312 -0.000001
v -0.166666 -0.166666 -0.250001
v -0.166666 -0.166666 -0.500001
v -0.166666 -0.166666 -0.750001
v -0.320311 -0.070312 -1.000001
v -0.520832 -0.020833 -1.000001
v -0.752603 -0.002604 -1.000001
v -0.999999 0.000000 -0.750001
v -1.000000 0.000000 -0.500001
v -1.000000 0.000000 -0.250001
v -0.070313 -0.320313 0.999999
v -0.020834 -0.520833 0.999999
v -0.002605 -0.752604 0.999999
v -0.752605 -0.002604 0.999999
v -0.520834 -0.020833 0.999999
v -0.320313 -0.070313 0.999999
v -0.166667 -0.166667 0.249999
v -0.166667 -0.166667 0.499999
v -0.166667 -0.166667 0.749999
v -1.000000 0.000000 0.249999
v -1.000000 0.000000 0.499999
v -1.000000 -0.000000 0.749999
v 0.000001 -1.000000 -0.250001
v 0.000001 -1.000000 -0.500001
v 0.000001 -1.000000 -0.750001
v 0.000000 -1.000000 0.249999
v -0.000000 -1.000000 0.499999
v -0.000000 -1.000000 0.749999
v -0.002604 -0.752604 -0.000001
v -0.020833 -0.520833 -0.000001
v -0.070312 -0.320312 -0.000001
v -0.002603 -0.752604 -1.000001
v -0.020832 -0.520833 -1.000001
v -0.070311 -0.320312 -1.000001
v 0.344514 0.130972 0.344513
v 0.328511 0.088493 0.528598
v 0.321337 0.072585 0.753575
v 0.528598 0.088494 0.328511
v 0.523534 0.040895 0.523534
v 0.521171 0.023341 0.752942
v 0.753575 0.072585 0.321337
v 0.752942 0.023341 0.521171
v 0.752646 0.005196 0.752646
v 0.344514 0.344514 0.130972
v 0.528598 0.328511 0.088494
v 0.753575 0.321337 0.072585
v 0.328511 0.528598 0.088493
v 0.523534 0.523534 0.040895
v 0.752942 0.521171 0.023341
v 0.321337 0.753575 0.072585
v 0.521171 0.752942 0.023341
v 0.752647 0.752647 0.005197
v 0.072585 0.321337 0.753575
v 0.088493 0.328511 0.528597
v 0.130972 0.344514 0.344513
v 0.023341 0.521171 0.752942
v 0.040895 0.523534 0.523534
v 0.088493 0.528598 0.328511
v 0.005196 0.752646 0.752646
v 0.023341 0.752942 0.521171
v 0.072585 0.753575 0.321337
v -0.320312 -0.070312 -0.250001
v -0.320312 -0.070312 -0.500001
v -0.320312 -0.070312 -0.750001
v -0.520833 -0.020833 -0.250001
v -0.520833 -0.020833 -0.500001
v -0.520832 -0.020833 -0.750001
v -0.752604 -0.002604 -0.250001
v -0.752604 -0.002604 -0.500001
v -0.752603 -0.002604 -0.750001
v -0.070312 -0.320312 -0.750001
v -0.070312 -0.320312 -0.500001
v -0.070312 -0.320312 -0.250001
v -0.020832 -0.520833 -0.750001
v -0.020833 -0.520833 -0.500001
v -0.020833 -0.520833 -0.250001
v -0.002603 -0.752604 -0.750001
v -0.002603 -0.752604 -0.500001
v -0.002604 -0.752604 -0.250001
v -0.070312 -0.320312 0.249999
v -0.070313 -0.320312 0.499999
v -0.070313 -0.320313 0.749999
v -0.020833 -0.520833 0.249999
v -0.020833 -0.520833 0.499999
v -0.020834 -0.520833 0.749999
v -0.002604 -0.752604 0.249999
v -0.002604 -0.752604 0.499999
v -0.002604 -0.752604 0.749999
v -0.320312 -0.070312 0.249999
v -0.520833 -0.020833 0.249999
v -0.752604 -0.002604 0.249999
v -0.320313 -0.070312 0.499999
v -0.520833 -0.020833 0.499999
v -0.752604 -0.002604 0.499999
v -0.320313 -0.070313 0.749999
v -0.520834 -0.020833 0.749999
v -0.752604 -0.002604 0.749999
vt 0.343266 0.343266
vt 0.528164 0.318528
vt 0.520062 0.520062
vt 0.318528 0.528164
vt 0.753520 0.288405
vt 0.752508 0.510320
vt 0.510320 0.752508
vt 0.288405 0.753521
vt 0.751290 0.751290
vt 0.250000 0.250000
vt 0.355630 0.210013
vt 0.210013 0.355630
vt 0.531636 0.167052
vt 0.753955 0.118104
vt 1.000000 0.000000
vt 1.000000 0.250000
vt 1.000000 0.500000
vt 1.000000 0.750000
vt 1.000000 1.000000
vt 0.750000 1.000000
vt 0.500000 1.000000
vt 0.250000 1.000000
vt 0.118104 0.753955
vt 0.000000 1.000000
vt 0.167052 0.531636
vt 0.128476 0.343266
vt 0.078077 0.528164
vt 0.033951 0.520062
vt 0.078077 0.318528
vt 0.039599 0.753520
vt 0.012056 0.752508
vt 0.012056 0.510320
vt 0.039599 0.288405
vt 0.002484 0.751290
vt 0.210013 0.210013
vt 0.000000 1.000000
vt 0.000000 1.000000
vt 0.000000 1.000000
vt 0.000000 1.000000
vt 0.000000 0.750000
vt 0.000000 0.500000
vt 0.000000 0.250000
vt 0.118104 0.118104
vt 0.000000 0.000000
vt 0.167052 0.167052
vt 0.753520 0.039599
vt 0.528164 0.078077
vt 0.520062 0.033951
vt 0.752508 0.012056
vt 0.343266 0.128476
vt 0.318528 0.078077
vt 0.510320 0.012056
vt 0.751290 0.002484
vt 0.288405 0.039599
vt 1.000000 0.000000
vt 0.250000 0.000000
vt 0.500000 0.000000
vt 0.750000 0.000000
vt 1.000000 0.000000
vt 1.000000 0.000000
vt 1.000000 0.000000
vt 0.319065 0.319065
vt 0.520399 0.310330
vt 0.517361 0.517361
vt 0.310330 0.520399
vt 0.752550 0.287381
vt 0.752170 0.509983
vt 0.509983 0.752170
vt 0.287381 0.752550
vt 0.751248 0.751248
vt 0.166667 0.166667
vt 0.320313 0.164931
vt 0.164931 0.320312
vt 0.520833 0.152778
vt 0.752604 0.116319
vt 1.000000 0.000000
vt 1.000000 0.250000
vt 1.000000 0.500000
vt 1.000000 0.750000
vt 1.000000 1.000000
vt 0.750000 1.000000
vt 0.500000 1.000000
vt 0.250000 1.000000
vt 0.116319 0.752604
vt 0.000000 1.000000
vt 0.152778 0.520833
vt 0.752550 0.037381
vt 0.520399 0.060330
vt 0.517361 0.017361
vt 0.752170 0.009983
vt 0.319065 0.069065
vt 0.310330 0.020399
vt 0.509983 0.002170
vt 0.751248 0.001248
vt 0.287381 0.002550
vt 1.000000 0.000000
vt 0.164931 0.070313
vt 0.152778 0.020833
vt 0.116319 0.002604
vt 0.000000 0.000000
vt 0.250000 0.000000
vt 0.500000 0.000000
vt 0.750000 0.000000
vt 1.000000 0.000000
vt 1.000000 0.000000
vt 1.000000 0.000000
vt 0.069065 0.069065
vt 0.020399 0.060330
vt 0.017361 0.017361
vt 0.060330 0.020399
vt 0.002550 0.037381
vt 0.002170 0.009983
vt 0.009983 0.002170
vt 0.037381 0.002550
vt 0.001248 0.001248
vt 0.070313 0.164931
vt 0.020833 0.152778
vt 0.002604 0.116319
vt 0.000000 0.000000
vt 0.000000 0.000000
vt 0.000000 0.000000
vt 0.000000 0.000000
vt 0.000000 0.000000
vt 0.000000 0.000000
vt 0.000000 0.000000
vt 0.000000 0.000000
vt 0.069065 0.319065
vt 0.060330 0.520399
vt 0.017361 0.517361
vt 0.020399 0.310330
vt 0.037381 0.752550
vt 0.009983 0.752170
vt 0.002170 0.509983
vt 0.002550 0.287381
vt 0.001248 0.751248
vt 0.000000 1.000000
vt 0.000000 1.000000
vt 0.000000 1.000000
vt 0.000000 1.000000
vt 0.000000 0.750000
vt 0.000000 0.500000
vt 0.000000 0.250000
vn 0.3677 0.8541 0.3677
vn 0.3868 0.9087 0.1572
vn 0.1581 0.9747 0.1581
vn 0.1572 0.9087 0.3868
vn 0.3900 0.9197 0.0437
vn 0.1590 0.9863 0.0436
vn 0.0436 0.9863 0.1590
vn 0.0437 0.9197 0.3900
vn 0.0442 0.9980 0.0442
vn 0.5773 0.5773 0.5773
vn 0.6620 0.6620 0.3515
vn 0.3515 0.6620 0.6620
vn 0.6983 0.6983 0.1574
vn 0.7064 0.7064 0.0443
vn 0.7071 0.7071 0.0103
vn 0.3903 0.9206 0.0102
vn 0.1594 0.9872 0.0102
vn 0.0444 0.9989 0.0104
vn 0.0105 0.9999 0.0105
vn 0.0104 0.9989 0.0444
vn 0.0102 0.9872 0.1594
vn 0.0102 0.9206 0.3903
vn 0.0443 0.7064 0.7064
vn 0.0103 0.7071 0.7071
vn 0.1574 0.6983 0.6983
vn 0.3677 0.3677 0.8541
vn 0.1572 0.3868 0.9087
vn 0.1581 0.1581 0.9747
vn 0.3868 0.1572 0.9087
vn 0.0437 0.3900 0.9197
vn 0.0436 0.1590 0.9863
vn 0.1590 0.0436 0.9863
vn 0.3900 0.0437 0.9197
vn 0.0442 0.0442 0.9980
vn 0.6620 0.3515 0.6620
vn 0.0102 0.3903 0.9206
vn 0.0102 0.1594 0.9872
vn 0.0104 0.0444 0.9989
vn 0.0105 0.0105 0.9999
vn 0.0444 0.0104 0.9989
vn 0.1594 0.0102 0.9872
vn 0.3903 0.0102 0.9206
vn 0.7064 0.0443 0.7064
vn 0.7071 0.0103 0.7071
vn 0.6983 0.1574 0.6983
vn 0.9197 0.3900 0.0437
vn 0.9087 0.3868 0.1572
vn 0.9747 0.1581 0.1581
vn 0.9863 0.1590 0.0436
vn 0.8541 0.3677 0.3677
vn 0.9087 0.1572 0.3868
vn 0.9863 0.0436 0.1590
vn 0.9980 0.0442 0.0442
vn 0.9197 0.0437 0.3900
vn 0.9206 0.3903 0.0102
vn 0.9206 0.0102 0.3903
vn 0.9872 0.0102 0.1594
vn 0.9989 0.0104 0.0444
vn 0.9989 0.0444 0.0104
vn 0.9999 0.0105 0.0105
vn 0.9872 0.1594 0.0102
vn 0.3903 0.9207 0.0000
vn 0.1595 0.9872 0.0000
vn 0.0445 0.9990 0.0000
vn 0.7071 0.7071 0.0000
vn 0.0105 0.9999 0.0000
vn 0.9207 0.3903 0.0000
vn 0.9872 0.1595 0.0000
vn 0.9990 0.0445 0.0000
vn 0.9999 0.0105 0.0000
s 1
f 80/1/1 81/2/2 84/3/3 83/4/4
f 81/2/2 82/5/5 85/6/6 84/3/3
f 83/4/4 84/3/3 87/7/7 86/8/8
f 84/3/3 85/6/6 88/9/9 87/7/7
f 1/10/10 20/11/11 80/1/1 19/12/12
f 20/11/11 21/13/13 81/2/2 80/1/1
f 21/13/13 22/14/14 82/5/5 81/2/2
f 22/14/14 2/15/15 23/16/16 82/5/5
f 82/5/5 23/16/16 24/17/17 85/6/6
f 85/6/6 24/17/17 25/18/18 88/9/9
f 88/9/9 25/18/18 4/19/19 26/20/20
f 87/7/7 88/9/9 26/20/20 27/21/21
f 86/8/8 87/7/7 27/21/21 28/22/22
f 17/23/23 86/8/8 28/22/22 3/24/24
f 18/25/25 83/4/4 86/8/8 17/23/23
f 19/12/12 80/1/1 83/4/4 18/25/25
f 89/26/26 90/27/27 93/28/28 92/29/29
f 90/27/27 91/30/30 94/31/31 93/28/28
f 92/29/29 93/28/28 96/32/32 95/33/33
f 93/28/28 94/31/31 97/34/34 96/32/32
f 1/10/10 19/12/12 89/26/26 40/35/35
f 19/12/12 18/25/25 90/27/27 89/26/26
f 18/25/25 17/23/23 91/30/30 90/27/27
f 17/23/23 3/24/24 31/36/36 91/30/30
f 91/30/30 31/36/36 30/37/37 94/31/31
f 94/31/31 30/37/37 29/38/38 97/34/34
f 97/34/34 29/38/38 5/39/39 32/40/40
f 96/32/32 97/34/34 32/40/40 33/41/41
f 95/33/33 96/32/32 33/41/41 34/42/42
f 38/43/43 95/33/33 34/42/42 6/44/44
f 39/45/45 92/29/29 95/33/33 38/43/43
f 40/35/35 89/26/26 92/29/29 39/45/45
f 98/46/46 99/47/47 102/48/48 101/49/49
f 99/47/47 100/50/50 103/51/51 102/48/48
f 101/49/49 102/48/48 105/52/52 104/53/53
f 102/48/48 103/51/51 106/54/54 105/52/52
f 2/15/15 22/14/14 98/46/46 43/55/55
f 22/14/14 21/13/13 99/47/47 98/46/46
f 21/13/13 20/11/11 100/50/50 99/47/47
f 20/11/11 1/10/10 40/35/35 100/50/50
f 100/50/50 40/35/35 39/45/45 103/51/51
f 103/51/51 39/45/45 38/43/43 106/54/54
f 106/54/54 38/43/43 6/44/44 35/56/56
f 105/52/52 106/54/54 35/56/56 36/57/57
f 104/53/53 105/52/52 36/57/57 37/58/58
f 41/59/59 104/53/53 37/58/58 7/60/60
f 42/61/61 101/49/49 104/53/53 41/59/59
f 43/55/55 98/46/46 101/49/49 42/61/61
f 107/62/62 108/63/62 111/64/63 110/65/63
f 108/63/62 109/66/62 112/67/63 111/64/63
f 110/65/63 111/64/63 114/68/64 113/69/64
f 111/64/63 112/67/63 115/70/64 114/68/64
f 8/71/65 47/72/65 107/62/62 46/73/62
f 47/72/65 48/74/65 108/63/62 107/62/62
f 48/74/65 49/75/65 109/66/62 108/63/62
f 49/75/65 9/76/65 50/77/62 109/66/62
f 109/66/62 50/77/62 51/78/63 112/67/63
f 112/67/63 51/78/63 52/79/64 115/70/64
f 115/70/64 52/79/64 11/80/66 53/81/66
f 114/68/64 115/70/64 53/81/66 54/82/66
f 113/69/64 114/68/64 54/82/66 55/83/66
f 44/84/64 113/69/64 55/83/66 10/85/66
f 45/86/63 110/65/63 113/69/64 44/84/64
f 46/73/62 107/62/62 110/65/63 45/86/63
f 116/87/67 117/88/67 120/89/68 119/90/68
f 117/88/67 118/91/67 121/92/68 120/89/68
f 119/90/68 120/89/68 123/93/69 122/94/69
f 120/89/68 121/92/68 124/95/69 123/93/69
f 9/76/65 49/75/65 116/87/67 79/96/67
f 49/75/65 48/74/65 117/88/67 116/87/67
f 48/74/65 47/72/65 118/91/67 117/88/67
f 47/72/65 8/71/65 76/97/67 118/91/67
f 118/91/67 76/97/67 75/98/68 121/92/68
f 121/92/68 75/98/68 74/99/69 124/95/69
f 124/95/69 74/99/69 14/100/70 68/101/70
f 123/93/69 124/95/69 68/101/70 69/102/70
f 122/94/69 123/93/69 69/102/70 70/103/70
f 77/104/69 122/94/69 70/103/70 15/105/70
f 78/106/68 119/90/68 122/94/69 77/104/69
f 79/96/67 116/87/67 119/90/68 78/106/68
f 125/107/67 126/108/67 129/109/68 128/110/68
f 126/108/67 127/111/67 130/112/68 129/109/68
f 128/110/68 129/109/68 132/113/69 131/114/69
f 129/109/68 130/112/68 133/115/69 132/113/69
f 8/71/65 62/116/65 125/107/67 76/97/67
f 62/116/65 63/117/65 126/108/67 125/107/67
f 63/117/65 64/118/65 127/111/67 126/108/67
f 64/118/65 12/119/65 56/120/67 127/111/67
f 127/111/67 56/120/67 57/121/68 130/112/68
f 130/112/68 57/121/68 58/122/69 133/115/69
f 133/115/69 58/122/69 16/123/70 73/124/70
f 132/113/69 133/115/69 73/124/70 72/125/70
f 131/114/69 132/113/69 72/125/70 71/126/70
f 74/99/69 131/114/69 71/126/70 14/100/70
f 75/98/68 128/110/68 131/114/69 74/99/69
f 76/97/67 125/107/67 128/110/68 75/98/68
f 134/127/62 135/128/63 138/129/63 137/130/62
f 135/128/63 136/131/64 139/132/64 138/129/63
f 137/130/62 138/129/63 141/133/63 140/134/62
f 138/129/63 139/132/64 142/135/64 141/133/63
f 8/71/65 46/73/62 134/127/62 62/116/65
f 46/73/62 45/86/63 135/128/63 134/127/62
f 45/86/63 44/84/64 136/131/64 135/128/63
f 44/84/64 10/85/66 65/136/66 136/131/64
f 136/131/64 65/136/66 66/137/66 139/132/64
f 139/132/64 66/137/66 67/138/66 142/135/64
f 142/135/64 67/138/66 13/139/66 59/140/64
f 141/133/63 142/135/64 59/140/64 60/141/63
f 140/134/62 141/133/63 60/141/63 61/142/62
f 64/118/65 140/134/62 61/142/62 12/119/65
f 63/117/65 137/130/62 140/134/62 64/118/65
f 62/116/65 134/127/62 137/130/62 63/117/65
