# Blender v3.0.0 OBJ File: 'box_experiment.blend'
# www.blender.org
o 12
v -0.250000 0.250000 -0.250000
v -1.000000 0.166667 -0.166667
v -0.166666 1.000000 -0.166666
v -1.000000 1.000000 0.000000
v 0.000000 1.000000 -1.000000
v -0.166667 0.166667 -1.000000
v -1.000000 0.000001 -1.000000
v -0.250000 -0.250000 0.250000
v -1.000000 -0.166667 0.166667
v -0.166666 -1.000000 0.166666
v -1.000000 -1.000000 -0.000000
v 0.000000 -1.000000 1.000000
v -0.166667 -0.166667 1.000000
v -1.000000 -0.000000 1.000000
v 0.250000 0.250000 0.250000
v 1.000000 0.166667 0.166667
v 0.166666 1.000000 0.166667
v 1.000000 1.000000 -0.000000
v -0.000000 1.000000 1.000000
v 0.166667 0.166666 1.000000
v 1.000001 0.000000 1.000000
v -0.168451 0.753954 -0.168451
v -0.180941 0.531636 -0.180941
v -0.211749 0.355629 -0.211749
v -0.355630 0.211749 -0.211749
v -0.531636 0.180941 -0.180941
v -0.753955 0.168451 -0.168451
v -1.000000 0.320313 -0.070312
v -1.000000 0.520834 -0.020833
v -1.000000 0.752604 -0.002604
v -0.752604 1.000000 -0.002604
v -0.520833 1.000000 -0.020833
v -0.320312 1.000000 -0.070312
v -0.002604 1.000000 -0.752604
v -0.020833 1.000000 -0.520833
v -0.070312 1.000000 -0.320312
v -0.002604 0.752604 -1.000000
v -0.020833 0.520834 -1.000000
v -0.070313 0.320313 -1.000000
v -0.320313 0.070313 -1.000000
v -0.520834 0.020834 -1.000000
v -0.752604 0.002605 -1.000000
v -0.168451 0.168451 -0.753955
v -0.180941 0.180941 -0.531636
v -0.211749 0.211749 -0.355630
v -1.000000 0.002605 -0.752604
v -1.000000 0.020834 -0.520833
v -1.000000 0.070313 -0.320313
v -0.168451 -0.753955 0.168451
v -0.180941 -0.531636 0.180941
v -0.211749 -0.355630 0.211749
v -0.355630 -0.211749 0.211749
v -0.531636 -0.180942 0.180941
v -0.753955 -0.168451 0.168451
v -1.000000 -0.320313 0.070312
v -1.000000 -0.520834 0.020833
v -1.000000 -0.752604 0.002604
v -0.752604 -1.000000 0.002604
v -0.520833 -1.000000 0.020833
v -0.320312 -1.000000 0.070312
v -0.002604 -1.000000 0.752604
v -0.020833 -1.000000 0.520833
v -0.070312 -1.000000 0.320312
v -0.002604 -0.752604 1.000000
v -0.020833 -0.520833 1.000000
v -0.070312 -0.320313 1.000000
v -0.320312 -0.070313 1.000000
v -0.520833 -0.020834 1.000000
v -0.752604 -0.002604 1.000000
v -0.168451 -0.168451 0.753954
v -0.180941 -0.180941 0.531636
v -0.211749 -0.211749 0.355629
v -1.000000 -0.002604 0.752604
v -1.000000 -0.020834 0.520833
v -1.000000 -0.070313 0.320312
v 0.168451 0.753954 0.168451
v 0.180941 0.531636 0.180941
v 0.211749 0.355629 0.211749
v 0.355630 0.211749 0.211749
v 0.531636 0.180941 0.180941
v 0.753955 0.168451 0.168451
v 1.000000 0.320313 0.070312
v 1.000000 0.520834 0.020833
v 1.000000 0.752605 0.002604
v 0.752604 1.000000 0.002604
v 0.520833 1.000000 0.020833
v 0.320312 1.000000 0.070313
v 0.002604 1.000000 0.752604
v 0.020833 1.000000 0.520833
v 0.070312 1.000000 0.320313
v 0.002604 0.752604 1.000000
v 0.020833 0.520833 1.000000
v 0.070313 0.320312 1.000000
v 0.320313 0.070312 1.000000
v 0.520834 0.020833 1.000000
v 0.752605 0.002604 1.000000
v 0.168451 0.168451 0.753954
v 0.180942 0.180941 0.531636
v 0.211750 0.211749 0.355629
v 1.000000 0.002604 0.752604
v 1.000000 0.020833 0.520833
v 1.000001 0.070313 0.320312
v -0.344514 0.344514 -0.130972
v -0.528598 0.328511 -0.088493
v -0.753575 0.321337 -0.072585
v -0.328511 0.528598 -0.088493
v -0.523534 0.523534 -0.040895
v -0.752942 0.521171 -0.023341
v -0.321337 0.753575 -0.072585
v -0.521171 0.752942 -0.023341
v -0.752646 0.752646 -0.005196
v -0.130972 0.344514 -0.344514
v -0.088493 0.528598 -0.328511
v -0.072585 0.753575 -0.321337
v -0.088494 0.328511 -0.528598
v -0.040895 0.523534 -0.523534
v -0.023341 0.752942 -0.521171
v -0.072585 0.321337 -0.753575
v -0.023341 0.521171 -0.752942
v -0.005196 0.752647 -0.752646
v -0.753575 0.072585 -0.321337
v -0.528598 0.088494 -0.328511
v -0.344514 0.130972 -0.344514
v -0.752942 0.023341 -0.521171
v -0.523534 0.040895 -0.523534
v -0.328511 0.088494 -0.528598
v -0.752647 0.005197 -0.752647
v -0.521171 0.023341 -0.752942
v -0.321337 0.072585 -0.753575
v -0.344514 -0.344514 0.130972
v -0.528598 -0.328511 0.088493
v -0.753575 -0.321338 0.072585
v -0.328511 -0.528598 0.088493
v -0.523534 -0.523534 0.040895
v -0.752942 -0.521171 0.023341
v -0.321337 -0.753575 0.072585
v -0.521171 -0.752942 0.023341
v -0.752646 -0.752647 0.005196
v -0.130972 -0.344514 0.344513
v -0.088493 -0.528597 0.328511
v -0.072585 -0.753575 0.321337
v -0.088493 -0.328511 0.528597
v -0.040895 -0.523534 0.523534
v -0.023341 -0.752942 0.521171
v -0.072585 -0.321337 0.753575
v -0.023341 -0.521171 0.752942
v -0.005196 -0.752646 0.752646
v -0.753575 -0.072585 0.321337
v -0.528598 -0.088494 0.328511
v -0.344514 -0.130972 0.344514
v -0.752942 -0.023341 0.521171
v -0.523534 -0.040895 0.523534
v -0.328511 -0.088493 0.528598
v -0.752646 -0.005196 0.752646
v -0.521171 -0.023341 0.752942
v -0.321337 -0.072585 0.753575
v 0.344514 0.344513 0.130972
v 0.528598 0.328511 0.088493
v 0.753575 0.321337 0.072585
v 0.328511 0.528597 0.088493
v 0.523534 0.523534 0.040895
v 0.752942 0.521171 0.023341
v 0.321337 0.753575 0.072585
v 0.521171 0.752942 0.023341
v 0.752646 0.752647 0.005196
v 0.130972 0.344513 0.344514
v 0.088493 0.528597 0.328511
v 0.072585 0.753574 0.321337
v 0.088494 0.328510 0.528598
v 0.040895 0.523534 0.523534
v 0.023341 0.752941 0.521171
v 0.072585 0.321337 0.753575
v 0.023341 0.521170 0.752942
v 0.005196 0.752646 0.752646
v 0.753575 0.072585 0.321337
v 0.528598 0.088493 0.328511
v 0.344514 0.130972 0.344513
v 0.752942 0.023341 0.521171
v 0.523534 0.040895 0.523534
v 0.328511 0.088493 0.528598
v 0.752647 0.005196 0.752646
v 0.521171 0.023341 0.752942
v 0.321338 0.072585 0.753575
vt 0.343266 0.343266
vt 0.528164 0.318528
vt 0.520062 0.520062
vt 0.318528 0.528164
vt 0.753520 0.288405
vt 0.752508 0.510320
vt 0.510320 0.752508
vt 0.288405 0.753521
vt 0.751290 0.751290
vt 0.250000 0.250000
vt 0.355630 0.210013
vt 0.210013 0.355630
vt 0.531636 0.167052
vt 0.753955 0.118104
vt 1.000000 0.000000
vt 1.000000 0.250000
vt 1.000000 0.500000
vt 1.000000 0.750000
vt 1.000000 1.000000
vt 0.750000 1.000000
vt 0.500000 1.000000
vt 0.250000 1.000000
vt 0.118104 0.753955
vt 0.000000 1.000000
vt 0.167052 0.531636
vt 0.128476 0.343266
vt 0.078077 0.528164
vt 0.033951 0.520062
vt 0.078077 0.318528
vt 0.039599 0.753520
vt 0.012056 0.752508
vt 0.012056 0.510320
vt 0.039599 0.288405
vt 0.002484 0.751290
vt 0.210013 0.210013
vt 0.000000 1.000000
vt 0.000000 1.000000
vt 0.000000 1.000000
vt 0.000000 1.000000
vt 0.000000 0.750000
vt 0.000000 0.500000
vt 0.000000 0.250000
vt 0.118104 0.118104
vt 0.000000 0.000000
vt 0.167052 0.167052
vt 0.753520 0.039599
vt 0.528164 0.078077
vt 0.520062 0.033951
vt 0.752508 0.012056
vt 0.343266 0.128476
vt 0.318528 0.078077
vt 0.510320 0.012056
vt 0.751290 0.002484
vt 0.288405 0.039599
vt 1.000000 0.000000
vt 0.250000 0.000000
vt 0.500000 0.000000
vt 0.750000 0.000000
vt 1.000000 0.000000
vt 1.000000 0.000000
vt 1.000000 0.000000
vt 0.343266 0.343266
vt 0.528164 0.318528
vt 0.520062 0.520062
vt 0.318528 0.528164
vt 0.753520 0.288405
vt 0.752508 0.510320
vt 0.510320 0.752508
vt 0.288405 0.753521
vt 0.751290 0.751290
vt 0.250000 0.250000
vt 0.355630 0.210013
vt 0.210013 0.355630
vt 0.531636 0.167052
vt 0.753955 0.118104
vt 1.000000 0.000000
vt 1.000000 0.250000
vt 1.000000 0.500000
vt 1.000000 0.750000
vt 1.000000 1.000000
vt 0.750000 1.000000
vt 0.500000 1.000000
vt 0.250000 1.000000
vt 0.118104 0.753955
vt 0.000000 1.000000
vt 0.167052 0.531636
vt 0.128476 0.343266
vt 0.078077 0.528164
vt 0.033951 0.520062
vt 0.078077 0.318528
vt 0.039599 0.753520
vt 0.012056 0.752508
vt 0.012056 0.510320
vt 0.039599 0.288405
vt 0.002484 0.751290
vt 0.210013 0.210013
vt 0.000000 1.000000
vt 0.000000 1.000000
vt 0.000000 1.000000
vt 0.000000 1.000000
vt 0.000000 0.750000
vt 0.000000 0.500000
vt 0.000000 0.250000
vt 0.118104 0.118104
vt 0.000000 0.000000
vt 0.167052 0.167052
vt 0.753520 0.039599
vt 0.528164 0.078077
vt 0.520062 0.033951
vt 0.752508 0.012056
vt 0.343266 0.128476
vt 0.318528 0.078077
vt 0.510320 0.012056
vt 0.751290 0.002484
vt 0.288405 0.039599
vt 1.000000 0.000000
vt 0.250000 0.000000
vt 0.500000 0.000000
vt 0.750000 0.000000
vt 1.000000 0.000000
vt 1.000000 0.000000
vt 1.000000 0.000000
vt 0.343266 0.343266
vt 0.528164 0.318528
vt 0.520062 0.520062
vt 0.318528 0.528164
vt 0.753520 0.288405
vt 0.752508 0.510320
vt 0.510320 0.752508
vt 0.288405 0.753521
vt 0.751290 0.751290
vt 0.250000 0.250000
vt 0.355630 0.210013
vt 0.210013 0.355630
vt 0.531636 0.167052
vt 0.753955 0.118104
vt 1.000000 0.000000
vt 1.000000 0.250000
vt 1.000000 0.500000
vt 1.000000 0.750000
vt 1.000000 1.000000
vt 0.750000 1.000000
vt 0.500000 1.000000
vt 0.250000 1.000000
vt 0.118104 0.753955
vt 0.000000 1.000000
vt 0.167052 0.531636
vt 0.128476 0.343266
vt 0.078077 0.528164
vt 0.033951 0.520062
vt 0.078077 0.318528
vt 0.039599 0.753520
vt 0.012056 0.752508
vt 0.012056 0.510320
vt 0.039599 0.288405
vt 0.002484 0.751290
vt 0.210013 0.210013
vt 0.000000 1.000000
vt 0.000000 1.000000
vt 0.000000 1.000000
vt 0.000000 1.000000
vt 0.000000 0.750000
vt 0.000000 0.500000
vt 0.000000 0.250000
vt 0.118104 0.118104
vt 0.000000 0.000000
vt 0.167052 0.167052
vt 0.753520 0.039599
vt 0.528164 0.078077
vt 0.520062 0.033951
vt 0.752508 0.012056
vt 0.343266 0.128476
vt 0.318528 0.078077
vt 0.510320 0.012056
vt 0.751290 0.002484
vt 0.288405 0.039599
vt 1.000000 0.000000
vt 0.250000 0.000000
vt 0.500000 0.000000
vt 0.750000 0.000000
vt 1.000000 0.000000
vt 1.000000 0.000000
vt 1.000000 0.000000
vn -0.3677 0.3677 -0.8541
vn -0.1572 0.3868 -0.9087
vn -0.1581 0.1581 -0.9747
vn -0.3868 0.1572 -0.9087
vn -0.0437 0.3900 -0.9197
vn -0.0436 0.1590 -0.9863
vn -0.1590 0.0436 -0.9863
vn -0.3900 0.0437 -0.9197
vn -0.0442 0.0442 -0.9980
vn -0.5773 0.5773 -0.5773
vn -0.3515 0.6620 -0.6620
vn -0.6620 0.3515 -0.6620
vn -0.1574 0.6983 -0.6983
vn -0.0443 0.7064 -0.7064
vn -0.0103 0.7071 -0.7071
vn -0.0102 0.3903 -0.9206
vn -0.0102 0.1594 -0.9872
vn -0.0104 0.0444 -0.9989
vn -0.0105 0.0105 -0.9999
vn -0.0444 0.0104 -0.9989
vn -0.1594 0.0102 -0.9872
vn -0.3903 0.0102 -0.9206
vn -0.7064 0.0443 -0.7064
vn -0.7071 0.0103 -0.7071
vn -0.6983 0.1574 -0.6983
vn -0.8541 0.3677 -0.3677
vn -0.9087 0.1572 -0.3868
vn -0.9747 0.1581 -0.1581
vn -0.9087 0.3868 -0.1572
vn -0.9197 0.0437 -0.3900
vn -0.9863 0.0436 -0.1590
vn -0.9863 0.1590 -0.0436
vn -0.9197 0.3900 -0.0437
vn -0.9980 0.0442 -0.0442
vn -0.6620 0.6620 -0.3515
vn -0.9206 0.0102 -0.3903
vn -0.9872 0.0102 -0.1594
vn -0.9989 0.0104 -0.0444
vn -0.9999 0.0105 -0.0105
vn -0.9989 0.0444 -0.0104
vn -0.9872 0.1594 -0.0102
vn -0.9206 0.3903 -0.0102
vn -0.7064 0.7064 -0.0443
vn -0.7071 0.7071 -0.0103
vn -0.6983 0.6983 -0.1574
vn -0.0437 0.9197 -0.3900
vn -0.1572 0.9087 -0.3868
vn -0.1581 0.9747 -0.1581
vn -0.0436 0.9863 -0.1590
vn -0.3677 0.8541 -0.3677
vn -0.3868 0.9087 -0.1572
vn -0.1590 0.9863 -0.0436
vn -0.0442 0.9980 -0.0442
vn -0.3900 0.9197 -0.0437
vn -0.0102 0.9206 -0.3903
vn -0.3903 0.9206 -0.0102
vn -0.1594 0.9872 -0.0102
vn -0.0444 0.9989 -0.0104
vn -0.0104 0.9989 -0.0444
vn -0.0105 0.9999 -0.0105
vn -0.0102 0.9872 -0.1594
vn -0.3677 -0.3677 0.8541
vn -0.1572 -0.3868 0.9087
vn -0.1581 -0.1581 0.9747
vn -0.3868 -0.1572 0.9087
vn -0.0437 -0.3900 0.9197
vn -0.0436 -0.1590 0.9863
vn -0.1590 -0.0436 0.9863
vn -0.3900 -0.0437 0.9197
vn -0.0442 -0.0442 0.9980
vn -0.5773 -0.5773 0.5773
vn -0.3515 -0.6620 0.6620
vn -0.6620 -0.3515 0.6620
vn -0.1574 -0.6983 0.6983
vn -0.0443 -0.7064 0.7064
vn -0.0103 -0.7071 0.7071
vn -0.0102 -0.3903 0.9206
vn -0.0102 -0.1594 0.9872
vn -0.0104 -0.0444 0.9989
vn -0.0105 -0.0105 0.9999
vn -0.0444 -0.0104 0.9989
vn -0.1594 -0.0102 0.9872
vn -0.3903 -0.0102 0.9206
vn -0.7064 -0.0443 0.7064
vn -0.7071 -0.0103 0.7071
vn -0.6983 -0.1574 0.6983
vn -0.8541 -0.3677 0.3677
vn -0.9087 -0.1572 0.3868
vn -0.9747 -0.1581 0.1581
vn -0.9087 -0.3868 0.1572
vn -0.9197 -0.0437 0.3900
vn -0.9863 -0.0436 0.1590
vn -0.9863 -0.1590 0.0436
vn -0.9197 -0.3900 0.0437
vn -0.9980 -0.0442 0.0442
vn -0.6620 -0.6620 0.3515
vn -0.9206 -0.0102 0.3903
vn -0.9872 -0.0102 0.1594
vn -0.9989 -0.0104 0.0444
vn -0.9999 -0.0105 0.0105
vn -0.9989 -0.0444 0.0104
vn -0.9872 -0.1594 0.0102
vn -0.9206 -0.3903 0.0102
vn -0.7064 -0.7064 0.0443
vn -0.7071 -0.7071 0.0103
vn -0.6983 -0.6983 0.1574
vn -0.0437 -0.9197 0.3900
vn -0.1572 -0.9087 0.3868
vn -0.1581 -0.9747 0.1581
vn -0.0436 -0.9863 0.1590
vn -0.3677 -0.8541 0.3677
vn -0.3868 -0.9087 0.1572
vn -0.1590 -0.9863 0.0436
vn -0.0442 -0.9980 0.0442
vn -0.3900 -0.9197 0.0437
vn -0.0102 -0.9206 0.3903
vn -0.3903 -0.9206 0.0102
vn -0.1594 -0.9872 0.0102
vn -0.0444 -0.9989 0.0104
vn -0.0104 -0.9989 0.0444
vn -0.0105 -0.9999 0.0105
vn -0.0102 -0.9872 0.1594
vn 0.3677 0.3677 0.8541
vn 0.1572 0.3868 0.9087
vn 0.1581 0.1581 0.9747
vn 0.3868 0.1572 0.9087
vn 0.0437 0.3900 0.9197
vn 0.0436 0.1590 0.9863
vn 0.1590 0.0436 0.9863
vn 0.3900 0.0437 0.9197
vn 0.0442 0.0442 0.9980
vn 0.5773 0.5773 0.5773
vn 0.3515 0.6620 0.6620
vn 0.6620 0.3515 0.6620
vn 0.1574 0.6983 0.6983
vn 0.0443 0.7064 0.7064
vn 0.0103 0.7071 0.7071
vn 0.0102 0.3903 0.9206
vn 0.0102 0.1594 0.9872
vn 0.0104 0.0444 0.9989
vn 0.0105 0.0105 0.9999
vn 0.0444 0.0104 0.9989
vn 0.1594 0.0102 0.9872
vn 0.3903 0.0102 0.9206
vn 0.7064 0.0443 0.7064
vn 0.7071 0.0103 0.7071
vn 0.6983 0.1574 0.6983
vn 0.8541 0.3677 0.3677
vn 0.9087 0.1572 0.3868
vn 0.9747 0.1581 0.1581
vn 0.9087 0.3868 0.1572
vn 0.9197 0.0437 0.3900
vn 0.9863 0.0436 0.1590
vn 0.9863 0.1590 0.0436
vn 0.9197 0.3900 0.0437
vn 0.9980 0.0442 0.0442
vn 0.6620 0.6620 0.3515
vn 0.9206 0.0102 0.3903
vn 0.9872 0.0102 0.1594
vn 0.9989 0.0104 0.0444
vn 0.9999 0.0105 0.0105
vn 0.9989 0.0444 0.0104
vn 0.9872 0.1594 0.0102
vn 0.9206 0.3903 0.0102
vn 0.7064 0.7064 0.0443
vn 0.7071 0.7071 0.0103
vn 0.6983 0.6983 0.1574
vn 0.0437 0.9197 0.3900
vn 0.1572 0.9087 0.3868
vn 0.1581 0.9747 0.1581
vn 0.0436 0.9863 0.1590
vn 0.3677 0.8541 0.3677
vn 0.3868 0.9087 0.1572
vn 0.1590 0.9863 0.0436
vn 0.0442 0.9980 0.0442
vn 0.3900 0.9197 0.0437
vn 0.0102 0.9206 0.3903
vn 0.3903 0.9206 0.0102
vn 0.1594 0.9872 0.0102
vn 0.0444 0.9989 0.0104
vn 0.0104 0.9989 0.0444
vn 0.0105 0.9999 0.0105
vn 0.0102 0.9872 0.1594
s 1
f 103/1/1 104/2/2 107/3/3 106/4/4
f 104/2/2 105/5/5 108/6/6 107/3/3
f 106/4/4 107/3/3 110/7/7 109/8/8
f 107/3/3 108/6/6 111/9/9 110/7/7
f 1/10/10 25/11/11 103/1/1 24/12/12
f 25/11/11 26/13/13 104/2/2 103/1/1
f 26/13/13 27/14/14 105/5/5 104/2/2
f 27/14/14 2/15/15 28/16/16 105/5/5
f 105/5/5 28/16/16 29/17/17 108/6/6
f 108/6/6 29/17/17 30/18/18 111/9/9
f 111/9/9 30/18/18 4/19/19 31/20/20
f 110/7/7 111/9/9 31/20/20 32/21/21
f 109/8/8 110/7/7 32/21/21 33/22/22
f 22/23/23 109/8/8 33/22/22 3/24/24
f 23/25/25 106/4/4 109/8/8 22/23/23
f 24/12/12 103/1/1 106/4/4 23/25/25
f 112/26/26 113/27/27 116/28/28 115/29/29
f 113/27/27 114/30/30 117/31/31 116/28/28
f 115/29/29 116/28/28 119/32/32 118/33/33
f 116/28/28 117/31/31 120/34/34 119/32/32
f 1/10/10 24/12/12 112/26/26 45/35/35
f 24/12/12 23/25/25 113/27/27 112/26/26
f 23/25/25 22/23/23 114/30/30 113/27/27
f 22/23/23 3/24/24 36/36/36 114/30/30
f 114/30/30 36/36/36 35/37/37 117/31/31
f 117/31/31 35/37/37 34/38/38 120/34/34
f 120/34/34 34/38/38 5/39/39 37/40/40
f 119/32/32 120/34/34 37/40/40 38/41/41
f 118/33/33 119/32/32 38/41/41 39/42/42
f 43/43/43 118/33/33 39/42/42 6/44/44
f 44/45/45 115/29/29 118/33/33 43/43/43
f 45/35/35 112/26/26 115/29/29 44/45/45
f 121/46/46 122/47/47 125/48/48 124/49/49
f 122/47/47 123/50/50 126/51/51 125/48/48
f 124/49/49 125/48/48 128/52/52 127/53/53
f 125/48/48 126/51/51 129/54/54 128/52/52
f 2/15/15 27/14/14 121/46/46 48/55/55
f 27/14/14 26/13/13 122/47/47 121/46/46
f 26/13/13 25/11/11 123/50/50 122/47/47
f 25/11/11 1/10/10 45/35/35 123/50/50
f 123/50/50 45/35/35 44/45/45 126/51/51
f 126/51/51 44/45/45 43/43/43 129/54/54
f 129/54/54 43/43/43 6/44/44 40/56/56
f 128/52/52 129/54/54 40/56/56 41/57/57
f 127/53/53 128/52/52 41/57/57 42/58/58
f 46/59/59 127/53/53 42/58/58 7/60/60
f 47/61/61 124/49/49 127/53/53 46/59/59
f 48/55/55 121/46/46 124/49/49 47/61/61
f 130/62/62 131/63/63 134/64/64 133/65/65
f 131/63/63 132/66/66 135/67/67 134/64/64
f 133/65/65 134/64/64 137/68/68 136/69/69
f 134/64/64 135/67/67 138/70/70 137/68/68
f 8/71/71 52/72/72 130/62/62 51/73/73
f 52/72/72 53/74/74 131/63/63 130/62/62
f 53/74/74 54/75/75 132/66/66 131/63/63
f 54/75/75 9/76/76 55/77/77 132/66/66
f 132/66/66 55/77/77 56/78/78 135/67/67
f 135/67/67 56/78/78 57/79/79 138/70/70
f 138/70/70 57/79/79 11/80/80 58/81/81
f 137/68/68 138/70/70 58/81/81 59/82/82
f 136/69/69 137/68/68 59/82/82 60/83/83
f 49/84/84 136/69/69 60/83/83 10/85/85
f 50/86/86 133/65/65 136/69/69 49/84/84
f 51/73/73 130/62/62 133/65/65 50/86/86
f 139/87/87 140/88/88 143/89/89 142/90/90
f 140/88/88 141/91/91 144/92/92 143/89/89
f 142/90/90 143/89/89 146/93/93 145/94/94
f 143/89/89 144/92/92 147/95/95 146/93/93
f 8/71/71 51/73/73 139/87/87 72/96/96
f 51/73/73 50/86/86 140/88/88 139/87/87
f 50/86/86 49/84/84 141/91/91 140/88/88
f 49/84/84 10/85/85 63/97/97 141/91/91
f 141/91/91 63/97/97 62/98/98 144/92/92
f 144/92/92 62/98/98 61/99/99 147/95/95
f 147/95/95 61/99/99 12/100/100 64/101/101
f 146/93/93 147/95/95 64/101/101 65/102/102
f 145/94/94 146/93/93 65/102/102 66/103/103
f 70/104/104 145/94/94 66/103/103 13/105/105
f 71/106/106 142/90/90 145/94/94 70/104/104
f 72/96/96 139/87/87 142/90/90 71/106/106
f 148/107/107 149/108/108 152/109/109 151/110/110
f 149/108/108 150/111/111 153/112/112 152/109/109
f 151/110/110 152/109/109 155/113/113 154/114/114
f 152/109/109 153/112/112 156/115/115 155/113/113
f 9/76/76 54/75/75 148/107/107 75/116/116
f 54/75/75 53/74/74 149/108/108 148/107/107
f 53/74/74 52/72/72 150/111/111 149/108/108
f 52/72/72 8/71/71 72/96/96 150/111/111
f 150/111/111 72/96/96 71/106/106 153/112/112
f 153/112/112 71/106/106 70/104/104 156/115/115
f 156/115/115 70/104/104 13/105/105 67/117/117
f 155/113/113 156/115/115 67/117/117 68/118/118
f 154/114/114 155/113/113 68/118/118 69/119/119
f 73/120/120 154/114/114 69/119/119 14/121/121
f 74/122/122 151/110/110 154/114/114 73/120/120
f 75/116/116 148/107/107 151/110/110 74/122/122
f 157/123/123 158/124/124 161/125/125 160/126/126
f 158/124/124 159/127/127 162/128/128 161/125/125
f 160/126/126 161/125/125 164/129/129 163/130/130
f 161/125/125 162/128/128 165/131/131 164/129/129
f 15/132/132 79/133/133 157/123/123 78/134/134
f 79/133/133 80/135/135 158/124/124 157/123/123
f 80/135/135 81/136/136 159/127/127 158/124/124
f 81/136/136 16/137/137 82/138/138 159/127/127
f 159/127/127 82/138/138 83/139/139 162/128/128
f 162/128/128 83/139/139 84/140/140 165/131/131
f 165/131/131 84/140/140 18/141/141 85/142/142
f 164/129/129 165/131/131 85/142/142 86/143/143
f 163/130/130 164/129/129 86/143/143 87/144/144
f 76/145/145 163/130/130 87/144/144 17/146/146
f 77/147/147 160/126/126 163/130/130 76/145/145
f 78/134/134 157/123/123 160/126/126 77/147/147
f 166/148/148 167/149/149 170/150/150 169/151/151
f 167/149/149 168/152/152 171/153/153 170/150/150
f 169/151/151 170/150/150 173/154/154 172/155/155
f 170/150/150 171/153/153 174/156/156 173/154/154
f 15/132/132 78/134/134 166/148/148 99/157/157
f 78/134/134 77/147/147 167/149/149 166/148/148
f 77/147/147 76/145/145 168/152/152 167/149/149
f 76/145/145 17/146/146 90/158/158 168/152/152
f 168/152/152 90/158/158 89/159/159 171/153/153
f 171/153/153 89/159/159 88/160/160 174/156/156
f 174/156/156 88/160/160 19/161/161 91/162/162
f 173/154/154 174/156/156 91/162/162 92/163/163
f 172/155/155 173/154/154 92/163/163 93/164/164
f 97/165/165 172/155/155 93/164/164 20/166/166
f 98/167/167 169/151/151 172/155/155 97/165/165
f 99/157/157 166/148/148 169/151/151 98/167/167
f 175/168/168 176/169/169 179/170/170 178/171/171
f 176/169/169 177/172/172 180/173/173 179/170/170
f 178/171/171 179/170/170 182/174/174 181/175/175
f 179/170/170 180/173/173 183/176/176 182/174/174
f 16/137/137 81/136/136 175/168/168 102/177/177
f 81/136/136 80/135/135 176/169/169 175/168/168
f 80/135/135 79/133/133 177/172/172 176/169/169
f 79/133/133 15/132/132 99/157/157 177/172/172
f 177/172/172 99/157/157 98/167/167 180/173/173
f 180/173/173 98/167/167 97/165/165 183/176/176
f 183/176/176 97/165/165 20/166/166 94/178/178
f 182/174/174 183/176/176 94/178/178 95/179/179
f 181/175/175 182/174/174 95/179/179 96/180/180
f 100/181/181 181/175/175 96/180/180 21/182/182
f 101/183/183 178/171/171 181/175/175 100/181/181
f 102/177/177 175/168/168 178/171/171 101/183/183
