# Blender v3.0.0 OBJ File: 'box_experiment.blend'
# www.blender.org
o 14
v -0.000000 0.000000 -0.000000
v 1.000000 0.166667 -0.166667
v -0.000000 0.000000 1.000000
v -0.000000 0.000000 -1.000000
v 1.000000 0.000000 -1.000000
v -1.000000 -0.166667 -0.166667
v -1.000000 0.000000 -1.000000
v -0.000000 -1.000000 1.000000
v -0.166667 -1.000000 0.166667
v -1.000000 -1.000000 -0.000000
v -0.000000 1.000000 1.000000
v 0.166667 1.000000 0.166667
v 1.000000 1.000000 -0.000000
v 0.000000 -0.000000 0.750868
v -0.000000 -0.000000 0.506944
v -0.000000 -0.000000 0.270399
v 0.260417 0.116536 -0.106554
v 0.503472 0.152778 -0.149306
v 0.750434 0.164931 -0.164497
v 0.250000 0.000000 -1.000000
v 0.500000 0.000000 -1.000000
v 0.750000 0.000000 -1.000000
v -0.000000 0.000000 -0.270399
v -0.000000 0.000000 -0.506945
v 0.000000 -0.000000 -0.750868
v 1.000000 0.002604 -0.752604
v 1.000000 0.020833 -0.520833
v 1.000000 0.070313 -0.320313
v -1.000000 -0.070313 -0.320313
v -1.000000 -0.020833 -0.520833
v -1.000000 -0.002604 -0.752604
v -0.260417 -0.116536 -0.106554
v -0.503472 -0.152778 -0.149306
v -0.750434 -0.164931 -0.164497
v -0.750000 0.000000 -1.000000
v -0.500000 0.000000 -1.000000
v -0.250000 0.000000 -1.000000
v -0.002604 -1.000000 0.752604
v -0.020833 -1.000000 0.520833
v -0.070313 -1.000000 0.320312
v -0.320313 -1.000000 0.070312
v -0.520833 -1.000000 0.020833
v -0.752604 -1.000000 0.002604
v -0.000000 -0.250000 1.000000
v -0.000000 -0.500000 1.000000
v -0.000000 -0.750000 1.000000
v -0.164931 -0.750434 0.164497
v -0.152778 -0.503472 0.149305
v -0.116536 -0.260417 0.106554
v -1.000000 -0.752604 -0.002604
v -1.000000 -0.520833 -0.020833
v -1.000000 -0.320313 -0.070313
v 0.002604 1.000000 0.752604
v 0.020833 1.000000 0.520833
v 0.070312 1.000000 0.320312
v 0.320312 1.000000 0.070312
v 0.520833 1.000000 0.020833
v 0.752604 1.000000 0.002604
v 1.000000 0.752604 -0.002604
v 1.000000 0.520833 -0.020833
v 1.000000 0.320313 -0.070313
v 0.116536 0.260417 0.106554
v 0.152778 0.503472 0.149306
v 0.164931 0.750434 0.164497
v -0.000000 0.750000 1.000000
v -0.000000 0.500000 1.000000
v -0.000000 0.250000 1.000000
v 0.750054 0.069065 -0.319010
v 0.500434 0.060330 -0.309896
v 0.250922 0.037381 -0.288303
v 0.750000 0.020399 -0.520399
v 0.500000 0.017361 -0.517361
v 0.250000 0.009983 -0.510851
v 0.750000 0.002550 -0.752550
v 0.500000 0.002170 -0.752170
v 0.250000 0.001248 -0.751356
v -0.250000 -0.001248 -0.751356
v -0.250000 -0.009983 -0.510851
v -0.250922 -0.037381 -0.288303
v -0.500000 -0.002170 -0.752170
v -0.500000 -0.017361 -0.517361
v -0.500434 -0.060330 -0.309896
v -0.750000 -0.002550 -0.752550
v -0.750000 -0.020399 -0.520399
v -0.750054 -0.069065 -0.319010
v -0.037381 -0.250922 0.288303
v -0.009983 -0.250000 0.510851
v -0.001248 -0.250000 0.751356
v -0.060330 -0.500434 0.309896
v -0.017361 -0.500000 0.517361
v -0.002170 -0.500000 0.752170
v -0.069065 -0.750054 0.319010
v -0.020399 -0.750000 0.520399
v -0.002550 -0.750000 0.752550
v -0.751302 -0.319065 -0.067763
v -0.510417 -0.310330 -0.049913
v -0.288303 -0.288303 -0.000000
v -0.752170 -0.520399 -0.018229
v -0.517361 -0.517361 -0.000000
v -0.310330 -0.510417 0.049913
v -0.752550 -0.752550 -0.000000
v -0.520399 -0.752170 0.018229
v -0.319065 -0.751302 0.067763
v 0.001248 0.250000 0.751356
v 0.009983 0.250000 0.510851
v 0.037381 0.250922 0.288303
v 0.002170 0.500000 0.752170
v 0.017361 0.500000 0.517361
v 0.060330 0.500434 0.309896
v 0.002550 0.750000 0.752550
v 0.020399 0.750000 0.520399
v 0.069065 0.750054 0.319010
v 0.288303 0.288303 0.000000
v 0.510417 0.310330 -0.049913
v 0.751302 0.319065 -0.067763
v 0.310330 0.510417 0.049913
v 0.517361 0.517361 0.000000
v 0.752170 0.520399 -0.018229
v 0.319065 0.751302 0.067763
v 0.520399 0.752170 0.018229
v 0.752550 0.752550 -0.000000
vt 0.751857 0.000609
vt 0.751929 0.000193
vt 0.515432 0.001543
vt 0.514853 0.004871
vt 0.304784 0.004437
vt 0.302019 0.014964
vt 0.751218 0.000024
vt 0.509742 0.000193
vt 0.286687 0.000555
vt 1.000000 0.000000
vt 1.000000 0.000000
vt 0.751640 0.001206
vt 0.513117 0.009645
vt 0.293724 0.033308
vt 0.138125 0.023325
vt 0.090909 0.090909
vt 0.145062 0.006173
vt 0.115355 0.000772
vt 0.250000 0.000000
vt 0.000000 0.000000
vt 0.500000 0.000000
vt 0.750000 0.000000
vt 1.000000 0.000000
vt 1.000000 0.000000
vt 1.000000 0.000000
vt 0.036687 0.000555
vt 0.009742 0.000193
vt 0.015432 0.001543
vt 0.054784 0.004437
vt 0.014419 0.004871
vt 0.051097 0.014964
vt 0.001218 0.000024
vt 0.001929 0.000193
vt 0.001802 0.000609
vt 0.000000 0.000000
vt 0.033308 0.033308
vt 0.009645 0.009645
vt 0.001206 0.001206
vt 0.000000 0.000000
vt 0.000000 0.000000
vt 0.000000 0.000000
vt 0.000000 0.000000
vt 0.000000 0.000000
vt 0.000000 0.000000
vt 0.000000 0.000000
vt 0.014964 0.302019
vt 0.004437 0.304784
vt 0.001543 0.515432
vt 0.004871 0.514853
vt 0.000193 0.751929
vt 0.000609 0.751857
vt 0.000555 0.286687
vt 0.000193 0.509742
vt 0.000024 0.751218
vt 0.023325 0.138125
vt 0.033308 0.293724
vt 0.009645 0.513117
vt 0.001206 0.751640
vt 0.000000 1.000000
vt 0.000000 1.000000
vt 0.000000 1.000000
vt 0.000000 1.000000
vt 0.000000 0.750000
vt 0.000000 1.000000
vt 0.000000 0.500000
vt 0.000000 0.250000
vt 0.000772 0.115355
vt 0.000000 0.000000
vt 0.006173 0.145062
vt 0.000609 0.001802
vt 0.000193 0.001929
vt 0.001543 0.015432
vt 0.004871 0.014419
vt 0.004437 0.054784
vt 0.014964 0.051097
vt 0.000024 0.001218
vt 0.000193 0.009742
vt 0.000555 0.036687
vt 0.000000 0.000000
vt 0.000000 0.000000
vt 0.000000 0.000000
vt 0.000000 0.000000
vt 0.000000 0.000000
vt 0.000000 0.000000
vt 0.000000 0.000000
vt 0.001802 0.751857
vt 0.001929 0.751929
vt 0.015432 0.515432
vt 0.014419 0.514853
vt 0.054784 0.304784
vt 0.051097 0.302019
vt 0.001218 0.751218
vt 0.009742 0.509742
vt 0.036687 0.286687
vt 0.000000 1.000000
vt 0.138125 0.138125
vt 0.145062 0.145062
vt 0.115355 0.115355
vt 0.000000 0.250000
vt 0.000000 0.000000
vt 0.000000 0.500000
vt 0.000000 0.750000
vt 0.000000 1.000000
vt 0.000000 1.000000
vt 0.000000 1.000000
vt 0.302019 0.051097
vt 0.304784 0.054784
vt 0.515432 0.015432
vt 0.514853 0.014419
vt 0.751929 0.001929
vt 0.751857 0.001802
vt 0.286687 0.036687
vt 0.509742 0.009742
vt 0.751218 0.001218
vt 1.000000 0.000000
vt 1.000000 0.000000
vt 1.000000 0.000000
vt 0.750000 0.000000
vt 1.000000 0.000000
vt 0.500000 0.000000
vt 0.250000 0.000000
vn -0.0258 0.9254 -0.3782
vn -0.0102 0.9884 -0.1512
vn -0.0304 0.9916 -0.1252
vn -0.0815 0.9386 -0.3351
vn -0.0515 0.9960 -0.0725
vn -0.1662 0.9644 -0.2057
vn -0.0023 0.9991 -0.0420
vn -0.0068 0.9994 -0.0343
vn -0.0110 0.9997 -0.0194
vn -0.0102 0.7081 -0.7060
vn -0.0065 0.9217 -0.3878
vn -0.0415 0.7118 -0.7011
vn -0.1398 0.7268 -0.6724
vn -0.3384 0.7625 -0.5514
vn -0.2160 0.9764 0.0000
vn -0.7071 0.7071 0.0000
vn -0.0600 0.9982 0.0000
vn -0.0125 0.9999 0.0000
vn -0.0022 1.0000 -0.0047
vn -0.0025 1.0000 0.0000
vn -0.0013 0.9999 -0.0082
vn -0.0004 0.9999 -0.0099
vn -0.0005 0.9990 -0.0440
vn -0.0001 0.9999 -0.0104
vn -0.0026 0.9875 -0.1578
vn -0.0110 0.9997 0.0194
vn -0.0068 0.9994 0.0343
vn -0.0304 0.9916 0.1252
vn -0.0515 0.9960 0.0725
vn -0.0815 0.9386 0.3351
vn -0.1662 0.9644 0.2057
vn -0.0023 0.9991 0.0420
vn -0.0102 0.9884 0.1512
vn -0.0258 0.9254 0.3782
vn -0.0022 1.0000 0.0047
vn -0.3384 0.7625 0.5514
vn -0.1398 0.7268 0.6724
vn -0.0415 0.7118 0.7011
vn -0.0065 0.9217 0.3878
vn -0.0102 0.7081 0.7060
vn -0.0026 0.9875 0.1578
vn -0.0005 0.9990 0.0440
vn -0.0004 0.9999 0.0099
vn -0.0001 0.9999 0.0104
vn -0.0013 0.9999 0.0082
vn -0.9644 0.1662 0.2057
vn -0.9386 0.0815 0.3351
vn -0.9916 0.0304 0.1252
vn -0.9960 0.0515 0.0725
vn -0.9994 0.0068 0.0343
vn -0.9997 0.0110 0.0194
vn -0.9254 0.0258 0.3782
vn -0.9884 0.0102 0.1512
vn -0.9991 0.0023 0.0420
vn -0.7625 0.3384 0.5514
vn -0.9764 0.2160 0.0000
vn -0.9982 0.0600 0.0000
vn -0.9999 0.0125 0.0000
vn -1.0000 0.0022 0.0047
vn -1.0000 0.0025 0.0000
vn -0.9999 0.0013 0.0082
vn -0.9999 0.0004 0.0099
vn -0.9990 0.0005 0.0440
vn -0.9999 0.0001 0.0104
vn -0.9875 0.0026 0.1578
vn -0.9217 0.0065 0.3878
vn -0.7118 0.0415 0.7011
vn -0.7081 0.0102 0.7060
vn -0.7268 0.1398 0.6724
vn -0.0461 0.3901 0.9196
vn -0.0450 0.1588 0.9863
vn -0.1587 0.1587 0.9745
vn -0.1596 0.3909 0.9065
vn -0.3909 0.1596 0.9065
vn -0.3913 0.3913 0.8329
vn -0.0445 0.0445 0.9980
vn -0.1588 0.0450 0.9863
vn -0.3901 0.0461 0.9196
vn -0.0112 0.3902 0.9207
vn -0.3902 0.0112 0.9207
vn -0.1593 0.0107 0.9872
vn -0.0445 0.0105 0.9989
vn -0.0105 0.0445 0.9989
vn -0.0105 0.0105 0.9999
vn -0.0107 0.1593 0.9872
vn -0.9997 0.0110 -0.0194
vn -0.9994 0.0068 -0.0343
vn -0.9916 0.0304 -0.1252
vn -0.9960 0.0515 -0.0725
vn -0.9386 0.0815 -0.3351
vn -0.9644 0.1662 -0.2057
vn -0.9991 0.0023 -0.0420
vn -0.9884 0.0102 -0.1512
vn -0.9254 0.0258 -0.3782
vn -1.0000 0.0022 -0.0047
vn -0.7625 0.3384 -0.5514
vn -0.7268 0.1398 -0.6724
vn -0.7118 0.0415 -0.7011
vn -0.9217 0.0065 -0.3878
vn -0.7081 0.0102 -0.7060
vn -0.9875 0.0026 -0.1578
vn -0.9990 0.0005 -0.0440
vn -0.9999 0.0004 -0.0099
vn -0.9999 0.0001 -0.0104
vn -0.9999 0.0013 -0.0082
vn -0.3913 0.3913 -0.8329
vn -0.3909 0.1596 -0.9065
vn -0.1587 0.1587 -0.9745
vn -0.1596 0.3909 -0.9065
vn -0.0450 0.1588 -0.9863
vn -0.0461 0.3901 -0.9196
vn -0.3901 0.0461 -0.9196
vn -0.1588 0.0450 -0.9863
vn -0.0445 0.0445 -0.9980
vn -0.0112 0.3902 -0.9207
vn -0.0107 0.1593 -0.9872
vn -0.0105 0.0445 -0.9989
vn -0.0445 0.0105 -0.9989
vn -0.0105 0.0105 -0.9999
vn -0.1593 0.0107 -0.9872
vn -0.3902 0.0112 -0.9207
s 1
f 68/1/1 71/2/2 72/3/3 69/4/4
f 69/4/4 72/3/3 73/5/5 70/6/6
f 71/2/2 74/7/7 75/8/8 72/3/3
f 72/3/3 75/8/8 76/9/9 73/5/5
f 2/10/10 28/11/11 68/1/1 19/12/12
f 19/12/12 68/1/1 69/4/4 18/13/13
f 18/13/13 69/4/4 70/6/6 17/14/14
f 17/14/14 70/6/6 23/15/15 1/16/16
f 70/6/6 73/5/5 24/17/17 23/15/15
f 73/5/5 76/9/9 25/18/18 24/17/17
f 76/9/9 20/19/19 4/20/20 25/18/18
f 75/8/8 21/21/21 20/19/19 76/9/9
f 74/7/7 22/22/22 21/21/21 75/8/8
f 26/23/23 5/24/24 22/22/22 74/7/7
f 27/25/25 26/23/23 74/7/7 71/2/2
f 28/11/11 27/25/25 71/2/2 68/1/1
f 77/26/26 80/27/27 81/28/28 78/29/29
f 78/29/29 81/28/28 82/30/30 79/31/31
f 80/27/27 83/32/32 84/33/33 81/28/28
f 81/28/28 84/33/33 85/34/34 82/30/30
f 4/20/20 37/35/35 77/26/26 25/18/18
f 25/18/18 77/26/26 78/29/29 24/17/17
f 24/17/17 78/29/29 79/31/31 23/15/15
f 23/15/15 79/31/31 32/36/36 1/16/16
f 79/31/31 82/30/30 33/37/37 32/36/36
f 82/30/30 85/34/34 34/38/38 33/37/37
f 85/34/34 29/39/39 6/40/40 34/38/38
f 84/33/33 30/41/41 29/39/39 85/34/34
f 83/32/32 31/42/42 30/41/41 84/33/33
f 35/43/43 7/44/44 31/42/42 83/32/32
f 36/45/45 35/43/43 83/32/32 80/27/27
f 37/35/35 36/45/45 80/27/27 77/26/26
f 86/46/46 89/47/47 90/48/48 87/49/49
f 87/49/49 90/48/48 91/50/50 88/51/51
f 89/47/47 92/52/52 93/53/53 90/48/48
f 90/48/48 93/53/53 94/54/54 91/50/50
f 1/16/16 49/55/55 86/46/46 16/56/56
f 16/56/56 86/46/46 87/49/49 15/57/57
f 15/57/57 87/49/49 88/51/51 14/58/58
f 14/58/58 88/51/51 44/59/59 3/60/60
f 88/51/51 91/50/50 45/61/61 44/59/59
f 91/50/50 94/54/54 46/62/62 45/61/61
f 94/54/54 38/63/63 8/64/64 46/62/62
f 93/53/53 39/65/65 38/63/63 94/54/54
f 92/52/52 40/66/66 39/65/65 93/53/53
f 47/67/67 9/68/68 40/66/66 92/52/52
f 48/69/69 47/67/67 92/52/52 89/47/47
f 49/55/55 48/69/69 89/47/47 86/46/46
f 95/70/70 98/71/71 99/72/72 96/73/73
f 96/73/73 99/72/72 100/74/74 97/75/75
f 98/71/71 101/76/76 102/77/77 99/72/72
f 99/72/72 102/77/77 103/78/78 100/74/74
f 6/40/40 52/79/79 95/70/70 34/38/38
f 34/38/38 95/70/70 96/73/73 33/37/37
f 33/37/37 96/73/73 97/75/75 32/36/36
f 32/36/36 97/75/75 49/55/55 1/16/16
f 97/75/75 100/74/74 48/69/69 49/55/55
f 100/74/74 103/78/78 47/67/67 48/69/69
f 103/78/78 41/80/80 9/68/68 47/67/67
f 102/77/77 42/81/81 41/80/80 103/78/78
f 101/76/76 43/82/82 42/81/81 102/77/77
f 50/83/83 10/84/84 43/82/82 101/76/76
f 51/85/85 50/83/83 101/76/76 98/71/71
f 52/79/79 51/85/85 98/71/71 95/70/70
f 104/86/86 107/87/87 108/88/88 105/89/89
f 105/89/89 108/88/88 109/90/90 106/91/91
f 107/87/87 110/92/92 111/93/93 108/88/88
f 108/88/88 111/93/93 112/94/94 109/90/90
f 3/60/60 67/95/95 104/86/86 14/58/58
f 14/58/58 104/86/86 105/89/89 15/57/57
f 15/57/57 105/89/89 106/91/91 16/56/56
f 16/56/56 106/91/91 62/96/96 1/16/16
f 106/91/91 109/90/90 63/97/97 62/96/96
f 109/90/90 112/94/94 64/98/98 63/97/97
f 112/94/94 55/99/99 12/100/100 64/98/98
f 111/93/93 54/101/101 55/99/99 112/94/94
f 110/92/92 53/102/102 54/101/101 111/93/93
f 65/103/103 11/104/104 53/102/102 110/92/92
f 66/105/105 65/103/103 110/92/92 107/87/87
f 67/95/95 66/105/105 107/87/87 104/86/86
f 113/106/106 116/107/107 117/108/108 114/109/109
f 114/109/109 117/108/108 118/110/110 115/111/111
f 116/107/107 119/112/112 120/113/113 117/108/108
f 117/108/108 120/113/113 121/114/114 118/110/110
f 1/16/16 62/96/96 113/106/106 17/14/14
f 17/14/14 113/106/106 114/109/109 18/13/13
f 18/13/13 114/109/109 115/111/111 19/12/12
f 19/12/12 115/111/111 61/115/115 2/10/10
f 115/111/111 118/110/110 60/116/116 61/115/115
f 118/110/110 121/114/114 59/117/117 60/116/116
f 121/114/114 58/118/118 13/119/119 59/117/117
f 120/113/113 57/120/120 58/118/118 121/114/114
f 119/112/112 56/121/121 57/120/120 120/113/113
f 64/98/98 12/100/100 56/121/121 119/112/112
f 63/97/97 64/98/98 119/112/112 116/107/107
f 62/96/96 63/97/97 116/107/107 113/106/106
