# Blender v3.0.0 OBJ File: 'box_experiment.blend'
# www.blender.org
o 2
v 0.166667 0.166667 -0.000000
v 0.166667 0.166667 1.000000
v 1.000000 0.000000 -0.000000
v 1.000000 -0.000000 1.000000
v 0.166667 0.166667 -1.000000
v 1.000000 0.000001 -1.000000
v 0.000000 1.000000 0.000000
v -0.000000 1.000000 1.000000
v 0.000000 1.000001 -1.000000
v 0.752604 0.002604 -0.000000
v 0.520833 0.020834 -0.000000
v 0.320312 0.070313 -0.000000
v 0.166667 0.166667 0.250000
v 0.166667 0.166667 0.500000
v 0.166667 0.166667 0.750000
v 0.320312 0.070312 1.000000
v 0.520833 0.020833 1.000000
v 0.752604 0.002604 1.000000
v 1.000000 -0.000000 0.750000
v 1.000000 0.000000 0.500000
v 1.000000 0.000000 0.250000
v 0.070313 0.320313 -1.000000
v 0.020833 0.520834 -1.000000
v 0.002604 0.752605 -1.000000
v 0.752604 0.002605 -1.000000
v 0.520833 0.020834 -1.000000
v 0.320313 0.070313 -1.000000
v 0.166667 0.166667 -0.250000
v 0.166667 0.166667 -0.500000
v 0.166667 0.166667 -0.750000
v 1.000000 0.000000 -0.250000
v 1.000000 0.000000 -0.500000
v 1.000000 0.000000 -0.750000
v -0.000000 1.000000 0.250000
v -0.000000 1.000000 0.500000
v -0.000000 1.000000 0.750000
v 0.000000 1.000000 -0.250000
v 0.000000 1.000000 -0.500000
v 0.000000 1.000000 -0.750000
v 0.002604 0.752604 0.000000
v 0.020833 0.520834 0.000000
v 0.070312 0.320313 -0.000000
v 0.002604 0.752604 1.000000
v 0.020833 0.520833 1.000000
v 0.070312 0.320312 1.000000
v 0.320312 0.070313 0.250000
v 0.520833 0.020833 0.250000
v 0.752604 0.002604 0.250000
v 0.320312 0.070313 0.500000
v 0.520833 0.020833 0.500000
v 0.752604 0.002604 0.500000
v 0.320312 0.070312 0.750000
v 0.520833 0.020833 0.750000
v 0.752604 0.002604 0.750000
v 0.070312 0.320312 0.750000
v 0.020833 0.520833 0.750000
v 0.002604 0.752604 0.750000
v 0.070312 0.320313 0.500000
v 0.020833 0.520833 0.500000
v 0.002604 0.752604 0.500000
v 0.070312 0.320313 0.250000
v 0.020833 0.520833 0.250000
v 0.002604 0.752604 0.250000
v 0.070313 0.320313 -0.250000
v 0.020833 0.520834 -0.250000
v 0.002604 0.752605 -0.250000
v 0.070313 0.320313 -0.500000
v 0.020833 0.520834 -0.500000
v 0.002604 0.752605 -0.500000
v 0.070313 0.320313 -0.750000
v 0.020833 0.520834 -0.750000
v 0.002604 0.752605 -0.750000
v 0.320313 0.070313 -0.250000
v 0.320313 0.070313 -0.500000
v 0.320313 0.070313 -0.750000
v 0.520833 0.020834 -0.250000
v 0.520833 0.020834 -0.500000
v 0.520833 0.020834 -0.750000
v 0.752604 0.002604 -0.250000
v 0.752604 0.002605 -0.500000
v 0.752604 0.002605 -0.750000
vt 0.250000 0.250000
vt 0.250000 0.500000
vt 0.500000 0.500000
vt 0.500000 0.250000
vt 0.250000 0.750000
vt 0.500000 0.750000
vt 0.750000 0.500000
vt 0.750000 0.250000
vt 0.750000 0.750000
vt 0.000000 0.000000
vt 0.000000 0.250000
vt 0.250000 0.000000
vt 0.000000 0.500000
vt 0.000000 0.750000
vt 0.000000 1.000000
vt 0.250000 1.000000
vt 0.500000 1.000000
vt 0.750000 1.000000
vt 1.000000 1.000000
vt 1.000000 0.750000
vt 1.000000 0.500000
vt 1.000000 0.250000
vt 0.750000 0.000000
vt 1.000000 0.000000
vt 0.500000 0.000000
vt 0.751194 0.000000
vt 0.751736 0.000000
vt 0.513889 0.000000
vt 0.509549 0.000000
vt 0.751194 0.000000
vt 0.509549 0.000000
vt 0.300347 0.000434
vt 0.286133 0.000922
vt 0.286133 0.000054
vt 1.000000 0.000000
vt 1.000000 0.000000
vt 1.000000 0.000000
vt 1.000000 0.000000
vt 0.750000 0.000000
vt 0.500000 0.000000
vt 0.250000 0.000000
vt 0.000000 0.000000
vt 0.114583 0.000434
vt 0.138889 0.003472
vt 0.114800 0.010417
vt 0.037055 0.037055
vt 0.050347 0.009983
vt 0.013889 0.013889
vt 0.009983 0.050347
vt 0.036133 0.001248
vt 0.009549 0.001736
vt 0.001736 0.009549
vt 0.001248 0.036133
vt 0.001194 0.001194
vt 0.010417 0.114800
vt 0.000000 0.000000
vt 0.000000 0.000000
vt 0.000000 0.000000
vt 0.000000 0.000000
vt 0.000000 0.000000
vt 0.000000 0.000000
vt 0.000000 0.000000
vt 0.000434 0.114583
vt 0.000000 0.000000
vt 0.003472 0.138889
vt 0.000922 0.286133
vt 0.000434 0.300347
vt 0.000000 0.513889
vt 0.000000 0.509549
vt 0.000054 0.286133
vt 0.000000 0.509549
vt 0.000000 0.751736
vt 0.000000 0.751194
vt 0.000000 0.751194
vt 0.000000 0.250000
vt 0.000000 0.500000
vt 0.000000 0.750000
vt 0.000000 1.000000
vt 0.000000 1.000000
vt 0.000000 1.000000
vt 0.000000 1.000000
vn -0.3903 -0.9207 0.0000
vn -0.1595 -0.9872 0.0000
vn -0.0445 -0.9990 0.0000
vn -0.7071 -0.7071 0.0000
vn -0.0105 -0.9999 0.0000
vn -0.9207 -0.3903 0.0000
vn -0.9872 -0.1595 0.0000
vn -0.9990 -0.0445 0.0000
vn -0.9999 -0.0105 0.0000
s 1
f 46/1/1 47/2/2 50/3/2 49/4/1
f 47/2/2 48/5/3 51/6/3 50/3/2
f 49/4/1 50/3/2 53/7/2 52/8/1
f 50/3/2 51/6/3 54/9/3 53/7/2
f 1/10/4 12/11/1 46/1/1 13/12/4
f 12/11/1 11/13/2 47/2/2 46/1/1
f 11/13/2 10/14/3 48/5/3 47/2/2
f 10/14/3 3/15/5 21/16/5 48/5/3
f 48/5/3 21/16/5 20/17/5 51/6/3
f 51/6/3 20/17/5 19/18/5 54/9/3
f 54/9/3 19/18/5 4/19/5 18/20/3
f 53/7/2 54/9/3 18/20/3 17/21/2
f 52/8/1 53/7/2 17/21/2 16/22/1
f 15/23/4 52/8/1 16/22/1 2/24/4
f 14/25/4 49/4/1 52/8/1 15/23/4
f 13/12/4 46/1/1 49/4/1 14/25/4
f 55/26/6 56/27/7 59/28/7 58/29/6
f 56/27/7 57/30/8 60/31/8 59/28/7
f 58/29/6 59/28/7 62/32/7 61/33/6
f 59/28/7 60/31/8 63/34/8 62/32/7
f 2/24/4 45/35/6 55/26/6 15/23/4
f 45/35/6 44/36/7 56/27/7 55/26/6
f 44/36/7 43/37/8 57/30/8 56/27/7
f 43/37/8 8/38/9 36/39/9 57/30/8
f 57/30/8 36/39/9 35/40/9 60/31/8
f 60/31/8 35/40/9 34/41/9 63/34/8
f 63/34/8 34/41/9 7/42/9 40/43/8
f 62/32/7 63/34/8 40/43/8 41/44/7
f 61/33/6 62/32/7 41/44/7 42/45/6
f 13/12/4 61/33/6 42/45/6 1/10/4
f 14/25/4 58/29/6 61/33/6 13/12/4
f 15/23/4 55/26/6 58/29/6 14/25/4
f 64/46/6 65/47/7 68/48/7 67/49/6
f 65/47/7 66/50/8 69/51/8 68/48/7
f 67/49/6 68/48/7 71/52/7 70/53/6
f 68/48/7 69/51/8 72/54/8 71/52/7
f 1/10/4 42/45/6 64/46/6 28/55/4
f 42/45/6 41/44/7 65/47/7 64/46/6
f 41/44/7 40/43/8 66/50/8 65/47/7
f 40/43/8 7/42/9 37/56/9 66/50/8
f 66/50/8 37/56/9 38/57/9 69/51/8
f 69/51/8 38/57/9 39/58/9 72/54/8
f 72/54/8 39/58/9 9/59/9 24/60/8
f 71/52/7 72/54/8 24/60/8 23/61/7
f 70/53/6 71/52/7 23/61/7 22/62/6
f 30/63/4 70/53/6 22/62/6 5/64/4
f 29/65/4 67/49/6 70/53/6 30/63/4
f 28/55/4 64/46/6 67/49/6 29/65/4
f 73/66/1 74/67/1 77/68/2 76/69/2
f 74/67/1 75/70/1 78/71/2 77/68/2
f 76/69/2 77/68/2 80/72/3 79/73/3
f 77/68/2 78/71/2 81/74/3 80/72/3
f 1/10/4 28/55/4 73/66/1 12/11/1
f 28/55/4 29/65/4 74/67/1 73/66/1
f 29/65/4 30/63/4 75/70/1 74/67/1
f 30/63/4 5/64/4 27/75/1 75/70/1
f 75/70/1 27/75/1 26/76/2 78/71/2
f 78/71/2 26/76/2 25/77/3 81/74/3
f 81/74/3 25/77/3 6/78/5 33/79/5
f 80/72/3 81/74/3 33/79/5 32/80/5
f 79/73/3 80/72/3 32/80/5 31/81/5
f 10/14/3 79/73/3 31/81/5 3/15/5
f 11/13/2 76/69/2 79/73/3 10/14/3
f 12/11/1 73/66/1 76/69/2 11/13/2
