# Blender v3.0.0 OBJ File: 'box_experiment.blend'
# www.blender.org
o 4
v 0.120000 -0.000000 0.000000
v 0.166667 0.166666 -1.000000
v 0.000000 1.000000 0.000000
v 0.000000 1.000000 -1.000000
v 0.166666 -1.000000 0.166667
v -0.000000 -0.000000 1.000000
v 0.000000 1.000000 1.000000
v -0.000001 -1.000000 1.000000
v 1.000000 -0.166667 -0.166667
v 1.000000 -0.000001 -1.000000
v 0.999999 -1.000001 0.000000
v 0.001545 0.750434 0.000000
v 0.012361 0.503472 0.000000
v 0.043078 0.260200 0.000000
v 0.149415 0.106337 -0.260200
v 0.161667 0.149305 -0.503472
v 0.166042 0.164496 -0.750434
v 0.070312 0.320312 -1.000000
v 0.020833 0.520833 -1.000000
v 0.002604 0.752604 -1.000000
v 0.000000 1.000000 -0.750000
v 0.000000 1.000000 -0.500000
v 0.000000 1.000000 -0.250000
v 0.149415 -0.260200 0.106337
v 0.161666 -0.503472 0.149306
v 0.166041 -0.750434 0.164497
v 0.000000 0.750000 1.000000
v 0.000000 0.500000 1.000000
v -0.000000 0.250000 1.000000
v -0.000000 -0.250000 1.000000
v -0.000000 -0.500000 1.000000
v -0.000001 -0.750000 1.000000
v 0.043078 -0.000000 0.260200
v 0.012361 -0.000000 0.503472
v 0.001545 -0.000000 0.750434
v 0.002603 -1.000000 0.752604
v 0.020833 -1.000000 0.520834
v 0.070312 -1.000000 0.320313
v 0.000000 1.000000 0.250000
v 0.000000 1.000000 0.500000
v 0.000000 1.000000 0.750000
v 1.000000 -0.070313 -0.320312
v 1.000000 -0.020834 -0.520833
v 1.000000 -0.002605 -0.752604
v 1.000000 -0.320313 -0.070312
v 1.000000 -0.520834 -0.020833
v 1.000000 -0.752605 -0.002604
v 0.303278 -0.106337 -0.106337
v 0.515833 -0.149306 -0.149305
v 0.751979 -0.164497 -0.164496
v 0.752604 0.002604 -1.000000
v 0.520833 0.020833 -1.000000
v 0.320312 0.070312 -1.000000
v 0.752604 -1.000000 0.002604
v 0.520833 -1.000000 0.020833
v 0.320312 -1.000000 0.070313
v 0.058393 0.287381 -0.250922
v 0.066719 0.309896 -0.500434
v 0.069863 0.319010 -0.750054
v 0.016806 0.510417 -0.250000
v 0.019583 0.517361 -0.500000
v 0.020677 0.520399 -0.750000
v 0.002101 0.751302 -0.250000
v 0.002448 0.752170 -0.500000
v 0.002585 0.752550 -0.750000
v 0.319863 0.067762 -0.751302
v 0.316719 0.049913 -0.510417
v 0.309315 -0.000000 -0.287381
v 0.520677 0.018229 -0.752170
v 0.519583 -0.000000 -0.517361
v 0.517239 -0.049914 -0.309896
v 0.752584 -0.000001 -0.752550
v 0.752448 -0.018230 -0.520399
v 0.752155 -0.067763 -0.319010
v 0.069863 -0.750054 0.319011
v 0.066718 -0.500434 0.309896
v 0.058393 -0.250922 0.287381
v 0.020677 -0.750000 0.520399
v 0.019583 -0.500000 0.517361
v 0.016805 -0.250000 0.510417
v 0.002584 -0.750000 0.752550
v 0.002447 -0.500000 0.752170
v 0.002100 -0.250000 0.751302
v 0.021935 0.250922 0.250922
v 0.006823 0.500434 0.250000
v 0.000853 0.750054 0.250000
v 0.006823 0.250000 0.500434
v 0.002222 0.500000 0.500000
v 0.000278 0.750000 0.500000
v 0.000853 0.250000 0.750054
v 0.000278 0.500000 0.750000
v 0.000035 0.750000 0.750000
v 0.309315 -0.287381 0.000000
v 0.316718 -0.510417 0.049913
v 0.319863 -0.751302 0.067763
v 0.517239 -0.309896 -0.049913
v 0.519583 -0.517361 0.000000
v 0.520676 -0.752170 0.018229
v 0.752155 -0.319011 -0.067763
v 0.752447 -0.520400 -0.018229
v 0.752584 -0.752550 0.000000
vt 0.308068 0.308068
vt 0.516806 0.306736
vt 0.516111 0.516111
vt 0.306736 0.516806
vt 0.752101 0.286931
vt 0.752014 0.509826
vt 0.509826 0.752014
vt 0.286931 0.752101
vt 0.751228 0.751228
vt 0.120000 0.120000
vt 0.303278 0.147679
vt 0.147679 0.303278
vt 0.515833 0.147778
vt 0.751979 0.115694
vt 1.000000 0.000000
vt 1.000000 0.250000
vt 1.000000 0.500000
vt 1.000000 0.750000
vt 1.000000 1.000000
vt 0.750000 1.000000
vt 0.500000 1.000000
vt 0.250000 1.000000
vt 0.115694 0.751979
vt 0.000000 1.000000
vt 0.147778 0.515833
vt 0.752101 0.036931
vt 0.516806 0.056736
vt 0.516111 0.016111
vt 0.752014 0.009826
vt 0.308068 0.057145
vt 0.306736 0.016372
vt 0.509826 0.002014
vt 0.751228 0.001228
vt 0.286931 0.002046
vt 1.000000 0.000000
vt 0.147679 0.043078
vt 0.147778 0.012361
vt 0.115694 0.001545
vt 0.000000 0.000000
vt 0.250000 0.000000
vt 0.500000 0.000000
vt 0.750000 0.000000
vt 1.000000 0.000000
vt 1.000000 0.000000
vt 1.000000 0.000000
vt 0.000853 0.002046
vt 0.006823 0.016372
vt 0.002222 0.016111
vt 0.000278 0.002014
vt 0.021935 0.057145
vt 0.006823 0.056736
vt 0.000278 0.009826
vt 0.000035 0.001228
vt 0.000853 0.036931
vt 0.000000 0.000000
vt 0.001545 0.001545
vt 0.000000 0.000000
vt 0.012361 0.012361
vt 0.043078 0.043078
vt 0.043078 0.147679
vt 0.012361 0.147778
vt 0.001545 0.115694
vt 0.000000 0.000000
vt 0.000000 0.000000
vt 0.000000 0.000000
vt 0.000000 0.000000
vt 0.000000 0.000000
vt 0.000000 0.000000
vt 0.000000 0.000000
vt 0.057145 0.308068
vt 0.056736 0.516806
vt 0.016111 0.516111
vt 0.016372 0.306736
vt 0.036931 0.752101
vt 0.009826 0.752014
vt 0.002014 0.509826
vt 0.002046 0.286931
vt 0.001228 0.751228
vt 0.000000 1.000000
vt 0.000000 1.000000
vt 0.000000 1.000000
vt 0.000000 1.000000
vt 0.000000 0.750000
vt 0.000000 0.500000
vt 0.000000 0.250000
vt 0.057145 0.021935
vt 0.016372 0.006823
vt 0.016111 0.002222
vt 0.056736 0.006823
vt 0.002046 0.000853
vt 0.002014 0.000278
vt 0.009826 0.000278
vt 0.036931 0.000853
vt 0.001228 0.000035
vt 0.000000 0.000000
vt 0.000000 0.000000
vt 0.000000 0.000000
vt 0.000000 0.000000
vt 0.000000 0.000000
vt 0.000000 0.000000
vt 0.000000 0.000000
vn 0.9509 0.2963 0.0892
vn 0.9326 0.3579 0.0464
vn 0.9896 0.1433 0.0144
vn 0.9926 0.1187 0.0253
vn 0.9238 0.3825 0.0150
vn 0.9878 0.1555 0.0048
vn 0.9992 0.0403 0.0028
vn 0.9994 0.0339 0.0050
vn 0.9990 0.0435 0.0009
vn 0.8486 0.3740 0.3740
vn 0.7713 0.5972 0.2200
vn 0.9728 0.1990 0.1183
vn 0.7286 0.6776 0.1001
vn 0.7125 0.7009 0.0303
vn 0.7083 0.7058 0.0075
vn 0.9214 0.3886 0.0038
vn 0.9873 0.1587 0.0012
vn 0.9990 0.0443 0.0002
vn 0.9999 0.0105 0.0000
vn 0.9999 0.0103 0.0002
vn 0.9999 0.0096 0.0005
vn 0.9999 0.0082 0.0009
vn 0.9997 0.0245 0.0065
vn 1.0000 0.0060 0.0013
vn 0.9960 0.0833 0.0321
vn 0.3927 0.9187 0.0407
vn 0.4015 0.9050 0.1406
vn 0.1627 0.9745 0.1545
vn 0.1599 0.9861 0.0438
vn 0.4291 0.8388 0.3350
vn 0.1724 0.9095 0.3781
vn 0.0454 0.9863 0.1585
vn 0.0446 0.9980 0.0443
vn 0.0483 0.9203 0.3881
vn 0.3908 0.9204 0.0099
vn 0.4593 0.6281 0.6281
vn 0.1816 0.6953 0.6953
vn 0.0508 0.7062 0.7062
vn 0.0121 0.7071 0.7071
vn 0.0115 0.9208 0.3899
vn 0.0108 0.9872 0.1593
vn 0.0105 0.9989 0.0444
vn 0.0445 0.9989 0.0105
vn 0.0105 0.9999 0.0105
vn 0.1595 0.9871 0.0105
vn 0.9238 0.0150 0.3825
vn 0.9326 0.0464 0.3579
vn 0.9896 0.0144 0.1433
vn 0.9878 0.0048 0.1555
vn 0.9509 0.0892 0.2963
vn 0.9926 0.0253 0.1187
vn 0.9992 0.0028 0.0403
vn 0.9990 0.0009 0.0435
vn 0.9994 0.0050 0.0339
vn 0.7083 0.0075 0.7058
vn 0.7125 0.0303 0.7009
vn 0.9214 0.0038 0.3886
vn 0.7286 0.1001 0.6776
vn 0.7713 0.2200 0.5972
vn 0.9728 0.1183 0.1990
vn 0.9960 0.0321 0.0833
vn 0.9997 0.0065 0.0245
vn 1.0000 0.0013 0.0060
vn 0.9999 0.0009 0.0082
vn 0.9999 0.0005 0.0096
vn 0.9999 0.0002 0.0103
vn 0.9990 0.0002 0.0443
vn 0.9999 0.0000 0.0105
vn 0.9873 0.0012 0.1587
vn 0.9908 0.0954 0.0954
vn 0.9985 0.0456 0.0295
vn 0.9997 0.0175 0.0175
vn 0.9985 0.0295 0.0456
vn 0.9999 0.0142 0.0064
vn 1.0000 0.0058 0.0041
vn 1.0000 0.0041 0.0058
vn 0.9999 0.0064 0.0142
vn 1.0000 0.0014 0.0014
vn 1.0000 0.0035 0.0013
vn 1.0000 0.0014 0.0008
vn 1.0000 0.0003 0.0003
vn 1.0000 0.0001 0.0001
vn 1.0000 0.0008 0.0014
vn 1.0000 0.0013 0.0035
vn 0.4291 0.3350 0.8388
vn 0.4015 0.1406 0.9050
vn 0.1627 0.1545 0.9745
vn 0.1724 0.3781 0.9095
vn 0.3927 0.0407 0.9187
vn 0.1599 0.0438 0.9861
vn 0.0454 0.1585 0.9863
vn 0.0483 0.3881 0.9203
vn 0.0446 0.0443 0.9980
vn 0.3908 0.0099 0.9204
vn 0.1595 0.0105 0.9871
vn 0.0445 0.0105 0.9989
vn 0.0105 0.0105 0.9999
vn 0.0105 0.0444 0.9989
vn 0.0108 0.1593 0.9872
vn 0.0115 0.3899 0.9208
s 1
f 57/1/1 58/2/2 61/3/3 60/4/4
f 58/2/2 59/5/5 62/6/6 61/3/3
f 60/4/4 61/3/3 64/7/7 63/8/8
f 61/3/3 62/6/6 65/9/9 64/7/7
f 1/10/10 15/11/11 57/1/1 14/12/12
f 15/11/11 16/13/13 58/2/2 57/1/1
f 16/13/13 17/14/14 59/5/5 58/2/2
f 17/14/14 2/15/15 18/16/16 59/5/5
f 59/5/5 18/16/16 19/17/17 62/6/6
f 62/6/6 19/17/17 20/18/18 65/9/9
f 65/9/9 20/18/18 4/19/19 21/20/20
f 64/7/7 65/9/9 21/20/20 22/21/21
f 63/8/8 64/7/7 22/21/21 23/22/22
f 12/23/23 63/8/8 23/22/22 3/24/24
f 13/25/25 60/4/4 63/8/8 12/23/23
f 14/12/12 57/1/1 60/4/4 13/25/25
f 66/26/26 67/27/27 70/28/28 69/29/29
f 67/27/27 68/30/30 71/31/31 70/28/28
f 69/29/29 70/28/28 73/32/32 72/33/33
f 70/28/28 71/31/31 74/34/34 73/32/32
f 2/15/15 17/14/14 66/26/26 53/35/35
f 17/14/14 16/13/13 67/27/27 66/26/26
f 16/13/13 15/11/11 68/30/30 67/27/27
f 15/11/11 1/10/10 48/36/36 68/30/30
f 68/30/30 48/36/36 49/37/37 71/31/31
f 71/31/31 49/37/37 50/38/38 74/34/34
f 74/34/34 50/38/38 9/39/39 42/40/40
f 73/32/32 74/34/34 42/40/40 43/41/41
f 72/33/33 73/32/32 43/41/41 44/42/42
f 51/43/43 72/33/33 44/42/42 10/44/44
f 52/45/45 69/29/29 72/33/33 51/43/43
f 53/35/35 66/26/26 69/29/29 52/45/45
f 75/46/46 76/47/47 79/48/48 78/49/49
f 76/47/47 77/50/50 80/51/51 79/48/48
f 78/49/49 79/48/48 82/52/52 81/53/53
f 79/48/48 80/51/51 83/54/54 82/52/52
f 5/55/55 26/56/56 75/46/46 38/57/57
f 26/56/56 25/58/58 76/47/47 75/46/46
f 25/58/58 24/59/59 77/50/50 76/47/47
f 24/59/59 1/10/10 33/60/60 77/50/50
f 77/50/50 33/60/60 34/61/61 80/51/51
f 80/51/51 34/61/61 35/62/62 83/54/54
f 83/54/54 35/62/62 6/63/63 30/64/64
f 82/52/52 83/54/54 30/64/64 31/65/65
f 81/53/53 82/52/52 31/65/65 32/66/66
f 36/67/67 81/53/53 32/66/66 8/68/68
f 37/69/69 78/49/49 81/53/53 36/67/67
f 38/57/57 75/46/46 78/49/49 37/69/69
f 84/70/70 85/71/71 88/72/72 87/73/73
f 85/71/71 86/74/74 89/75/75 88/72/72
f 87/73/73 88/72/72 91/76/76 90/77/77
f 88/72/72 89/75/75 92/78/78 91/76/76
f 1/10/10 14/12/12 84/70/70 33/60/60
f 14/12/12 13/25/25 85/71/71 84/70/70
f 13/25/25 12/23/23 86/74/74 85/71/71
f 12/23/23 3/24/24 39/79/79 86/74/74
f 86/74/74 39/79/79 40/80/80 89/75/75
f 89/75/75 40/80/80 41/81/81 92/78/78
f 92/78/78 41/81/81 7/82/82 27/83/81
f 91/76/76 92/78/78 27/83/81 28/84/83
f 90/77/77 91/76/76 28/84/83 29/85/84
f 35/62/62 90/77/77 29/85/84 6/63/63
f 34/61/61 87/73/73 90/77/77 35/62/62
f 33/60/60 84/70/70 87/73/73 34/61/61
f 93/86/85 94/87/86 97/88/87 96/89/88
f 94/87/86 95/90/89 98/91/90 97/88/87
f 96/89/88 97/88/87 100/92/91 99/93/92
f 97/88/87 98/91/90 101/94/93 100/92/91
f 1/10/10 24/59/59 93/86/85 48/36/36
f 24/59/59 25/58/58 94/87/86 93/86/85
f 25/58/58 26/56/56 95/90/89 94/87/86
f 26/56/56 5/55/55 56/95/94 95/90/89
f 95/90/89 56/95/94 55/96/95 98/91/90
f 98/91/90 55/96/95 54/97/96 101/94/93
f 101/94/93 54/97/96 11/98/97 47/99/98
f 100/92/91 101/94/93 47/99/98 46/100/99
f 99/93/92 100/92/91 46/100/99 45/101/100
f 50/38/38 99/93/92 45/101/100 9/39/39
f 49/37/37 96/89/88 99/93/92 50/38/38
f 48/36/36 93/86/85 96/89/88 49/37/37
