# Blender v3.0.0 OBJ File: 'box_experiment.blend'
# www.blender.org
o 4
v 0.120000 -0.000000 0.000000
v 0.166667 0.166666 -1.000000
v 0.000000 1.000000 0.000000
v 0.000000 1.000000 -1.000000
v 0.166666 -1.000000 0.166667
v -0.000000 -0.000000 1.000000
v 0.000000 1.000000 1.000000
v -0.000001 -1.000000 1.000000
v 1.000000 -0.166667 -0.166667
v 1.000000 -0.000001 -1.000000
v 0.999999 -1.000001 0.000000
v 0.001545 0.750434 0.000000
v 0.012361 0.503472 0.000000
v 0.043078 0.260200 0.000000
v 0.149415 0.106337 -0.260200
v 0.161667 0.149305 -0.503472
v 0.166042 0.164496 -0.750434
v 0.070312 0.320312 -1.000000
v 0.020833 0.520833 -1.000000
v 0.002604 0.752604 -1.000000
v 0.000000 1.000000 -0.750000
v 0.000000 1.000000 -0.500000
v 0.000000 1.000000 -0.250000
v 0.149415 -0.260200 0.106337
v 0.161666 -0.503472 0.149306
v 0.166041 -0.750434 0.164497
v 0.000000 0.750000 1.000000
v 0.000000 0.500000 1.000000
v -0.000000 0.250000 1.000000
v -0.000000 -0.250000 1.000000
v -0.000000 -0.500000 1.000000
v -0.000001 -0.750000 1.000000
v 0.043078 -0.000000 0.260200
v 0.012361 -0.000000 0.503472
v 0.001545 0.000000 0.750434
v 0.002603 -1.000000 0.752604
v 0.020833 -1.000000 0.520834
v 0.070312 -1.000000 0.320313
v 0.000000 1.000000 0.250000
v 0.000000 1.000000 0.500000
v 0.000000 1.000000 0.750000
v 1.000000 -0.070313 -0.320312
v 1.000000 -0.020834 -0.520833
v 1.000000 -0.002605 -0.752604
v 1.000000 -0.320313 -0.070312
v 1.000000 -0.520834 -0.020833
v 1.000000 -0.752605 -0.002604
v 0.303278 -0.106337 -0.106337
v 0.515833 -0.149306 -0.149305
v 0.751979 -0.164497 -0.164496
v 0.752604 0.002604 -1.000000
v 0.520833 0.020833 -1.000000
v 0.320312 0.070312 -1.000000
v 0.752604 -1.000000 0.002604
v 0.520833 -1.000000 0.020833
v 0.320312 -1.000000 0.070313
v 0.058393 0.287381 -0.250922
v 0.016806 0.510417 -0.250000
v 0.002101 0.751302 -0.250000
v 0.066719 0.309896 -0.500434
v 0.019583 0.517361 -0.500000
v 0.002448 0.752170 -0.500000
v 0.069863 0.319010 -0.750054
v 0.020677 0.520399 -0.750000
v 0.002585 0.752550 -0.750000
v 0.319863 0.067762 -0.751302
v 0.520677 0.018229 -0.752170
v 0.752584 -0.000000 -0.752550
v 0.316719 0.049913 -0.510417
v 0.519583 -0.000000 -0.517361
v 0.752448 -0.018230 -0.520399
v 0.309315 -0.000000 -0.287381
v 0.517239 -0.049914 -0.309896
v 0.752155 -0.067763 -0.319010
v 0.069863 -0.750054 0.319010
v 0.020677 -0.750000 0.520399
v 0.002584 -0.750000 0.752550
v 0.066718 -0.500434 0.309896
v 0.019583 -0.500000 0.517361
v 0.002447 -0.500000 0.752170
v 0.058393 -0.250922 0.287381
v 0.016805 -0.250000 0.510417
v 0.002100 -0.250000 0.751302
v 0.021935 0.250922 0.250922
v 0.006823 0.250000 0.500434
v 0.000853 0.250000 0.750054
v 0.006823 0.500434 0.250000
v 0.002222 0.500000 0.500000
v 0.000278 0.500000 0.750000
v 0.000853 0.750054 0.250000
v 0.000278 0.750000 0.500000
v 0.000035 0.750000 0.750000
v 0.309315 -0.287381 0.000000
v 0.517239 -0.309896 -0.049913
v 0.752155 -0.319011 -0.067763
v 0.316718 -0.510417 0.049913
v 0.519583 -0.517361 0.000000
v 0.752447 -0.520400 -0.018229
v 0.319863 -0.751302 0.067763
v 0.520676 -0.752170 0.018229
v 0.752584 -0.752550 0.000000
vt 0.250000 0.250000
vt 0.250000 0.500000
vt 0.500000 0.500000
vt 0.500000 0.250000
vt 0.250000 0.750000
vt 0.500000 0.750000
vt 0.750000 0.500000
vt 0.750000 0.250000
vt 0.750000 0.750000
vt 0.000000 0.000000
vt 0.000000 0.250000
vt 0.250000 0.000000
vt 0.000000 0.500000
vt 0.000000 0.750000
vt 0.000000 1.000000
vt 0.250000 1.000000
vt 0.500000 1.000000
vt 0.750000 1.000000
vt 1.000000 1.000000
vt 1.000000 0.750000
vt 1.000000 0.500000
vt 1.000000 0.250000
vt 0.750000 0.000000
vt 1.000000 0.000000
vt 0.500000 0.000000
vt 0.751194 0.000000
vt 0.751736 0.000000
vt 0.513889 0.000000
vt 0.509549 0.000000
vt 0.751194 0.000000
vt 0.509549 0.000000
vt 0.300347 0.000000
vt 0.286133 0.000000
vt 0.286133 0.000000
vt 1.000000 0.000000
vt 1.000000 0.000000
vt 1.000000 0.000000
vt 1.000000 0.000000
vt 0.750000 0.000000
vt 0.500000 0.000000
vt 0.250000 0.000000
vt 0.000000 0.000000
vt 0.114583 0.000000
vt 0.138889 0.000000
vt 0.114800 0.000217
vt 0.000054 0.001248
vt 0.000000 0.001736
vt 0.000000 0.013889
vt 0.000434 0.009983
vt 0.000000 0.001194
vt 0.000000 0.009549
vt 0.000000 0.050347
vt 0.000922 0.037055
vt 0.000000 0.036133
vt 0.000000 0.000000
vt 0.000000 0.000000
vt 0.000434 0.000434
vt 0.000000 0.000000
vt 0.000000 0.000000
vt 0.000000 0.000000
vt 0.000000 0.000000
vt 0.000000 0.000000
vt 0.000000 0.000000
vt 0.000000 0.000000
vt 0.000000 0.114583
vt 0.000000 0.138889
vt 0.000217 0.114800
vt 0.010417 0.010417
vt 0.003472 0.003472
vt 0.000000 0.286133
vt 0.000000 0.300347
vt 0.000000 0.513889
vt 0.000000 0.509549
vt 0.000000 0.286133
vt 0.000000 0.509549
vt 0.000000 0.751736
vt 0.000000 0.751194
vt 0.000000 0.751194
vt 0.000000 0.250000
vt 0.000000 0.500000
vt 0.000000 0.750000
vt 0.000000 1.000000
vt 0.000000 1.000000
vt 0.000000 1.000000
vt 0.000000 1.000000
vt 0.037055 0.000922
vt 0.050347 0.000000
vt 0.013889 0.000000
vt 0.009983 0.000434
vt 0.036133 0.000000
vt 0.009549 0.000000
vt 0.001736 0.000000
vt 0.001248 0.000054
vt 0.001194 0.000000
vt 0.000000 0.000000
vt 0.000000 0.000000
vt 0.000000 0.000000
vt 0.000000 0.000000
vt 0.000000 0.000000
vt 0.000000 0.000000
vt 0.000000 0.000000
vn -0.9509 -0.2963 -0.0892
vn -0.9926 -0.1187 -0.0253
vn -0.9896 -0.1433 -0.0144
vn -0.9326 -0.3579 -0.0464
vn -0.9994 -0.0339 -0.0050
vn -0.9992 -0.0403 -0.0028
vn -0.9878 -0.1555 -0.0048
vn -0.9238 -0.3825 -0.0150
vn -0.9990 -0.0435 -0.0009
vn -0.8486 -0.3740 -0.3740
vn -0.9728 -0.1990 -0.1183
vn -0.7713 -0.5972 -0.2200
vn -0.9960 -0.0833 -0.0321
vn -0.9997 -0.0245 -0.0065
vn -1.0000 -0.0060 -0.0013
vn -0.9999 -0.0082 -0.0009
vn -0.9999 -0.0096 -0.0005
vn -0.9999 -0.0103 -0.0002
vn -0.9999 -0.0105 -0.0000
vn -0.9990 -0.0443 -0.0002
vn -0.9873 -0.1587 -0.0012
vn -0.9214 -0.3886 -0.0038
vn -0.7125 -0.7009 -0.0303
vn -0.7083 -0.7058 -0.0075
vn -0.7286 -0.6776 -0.1001
vn -0.3927 -0.9187 -0.0407
vn -0.1599 -0.9861 -0.0438
vn -0.1627 -0.9745 -0.1545
vn -0.4015 -0.9050 -0.1406
vn -0.0446 -0.9980 -0.0443
vn -0.0454 -0.9863 -0.1585
vn -0.1724 -0.9095 -0.3781
vn -0.4291 -0.8388 -0.3350
vn -0.0483 -0.9203 -0.3881
vn -0.3908 -0.9204 -0.0099
vn -0.1595 -0.9871 -0.0105
vn -0.0445 -0.9989 -0.0105
vn -0.0105 -0.9999 -0.0105
vn -0.0105 -0.9989 -0.0444
vn -0.0108 -0.9872 -0.1593
vn -0.0115 -0.9208 -0.3899
vn -0.0121 -0.7071 -0.7071
vn -0.0508 -0.7062 -0.7062
vn -0.1816 -0.6953 -0.6953
vn -0.4593 -0.6281 -0.6281
vn -0.9238 -0.0150 -0.3825
vn -0.9878 -0.0048 -0.1555
vn -0.9896 -0.0144 -0.1433
vn -0.9326 -0.0464 -0.3579
vn -0.9990 -0.0009 -0.0435
vn -0.9992 -0.0028 -0.0403
vn -0.9926 -0.0253 -0.1187
vn -0.9509 -0.0892 -0.2963
vn -0.9994 -0.0050 -0.0339
vn -0.7083 -0.0075 -0.7058
vn -0.9214 -0.0038 -0.3886
vn -0.7125 -0.0303 -0.7009
vn -0.9873 -0.0012 -0.1587
vn -0.9990 -0.0002 -0.0443
vn -0.9999 -0.0000 -0.0105
vn -0.9999 -0.0002 -0.0103
vn -0.9999 -0.0005 -0.0096
vn -0.9999 -0.0009 -0.0082
vn -1.0000 -0.0013 -0.0060
vn -0.9997 -0.0065 -0.0245
vn -0.9960 -0.0321 -0.0833
vn -0.9728 -0.1183 -0.1990
vn -0.7713 -0.2200 -0.5972
vn -0.7286 -0.1001 -0.6776
vn -0.9908 -0.0954 -0.0954
vn -0.9985 -0.0295 -0.0456
vn -0.9997 -0.0175 -0.0175
vn -0.9985 -0.0456 -0.0295
vn -0.9999 -0.0064 -0.0142
vn -1.0000 -0.0041 -0.0058
vn -1.0000 -0.0058 -0.0041
vn -0.9999 -0.0142 -0.0064
vn -1.0000 -0.0014 -0.0014
vn -1.0000 -0.0013 -0.0035
vn -1.0000 -0.0008 -0.0014
vn -1.0000 -0.0003 -0.0003
vn -1.0000 -0.0001 -0.0001
vn -1.0000 -0.0014 -0.0008
vn -1.0000 -0.0035 -0.0013
vn -0.4291 -0.3350 -0.8388
vn -0.1724 -0.3781 -0.9095
vn -0.1627 -0.1545 -0.9745
vn -0.4015 -0.1406 -0.9050
vn -0.0483 -0.3881 -0.9203
vn -0.0454 -0.1585 -0.9863
vn -0.1599 -0.0438 -0.9861
vn -0.3927 -0.0407 -0.9187
vn -0.0446 -0.0443 -0.9980
vn -0.0115 -0.3899 -0.9208
vn -0.0108 -0.1593 -0.9872
vn -0.0105 -0.0444 -0.9989
vn -0.0105 -0.0105 -0.9999
vn -0.0445 -0.0105 -0.9989
vn -0.1595 -0.0105 -0.9871
vn -0.3908 -0.0099 -0.9204
s 1
f 57/1/1 58/2/2 61/3/3 60/4/4
f 58/2/2 59/5/5 62/6/6 61/3/3
f 60/4/4 61/3/3 64/7/7 63/8/8
f 61/3/3 62/6/6 65/9/9 64/7/7
f 1/10/10 14/11/11 57/1/1 15/12/12
f 14/11/11 13/13/13 58/2/2 57/1/1
f 13/13/13 12/14/14 59/5/5 58/2/2
f 12/14/14 3/15/15 23/16/16 59/5/5
f 59/5/5 23/16/16 22/17/17 62/6/6
f 62/6/6 22/17/17 21/18/18 65/9/9
f 65/9/9 21/18/18 4/19/19 20/20/20
f 64/7/7 65/9/9 20/20/20 19/21/21
f 63/8/8 64/7/7 19/21/21 18/22/22
f 17/23/23 63/8/8 18/22/22 2/24/24
f 16/25/25 60/4/4 63/8/8 17/23/23
f 15/12/12 57/1/1 60/4/4 16/25/25
f 66/26/26 67/27/27 70/28/28 69/29/29
f 67/27/27 68/30/30 71/31/31 70/28/28
f 69/29/29 70/28/28 73/32/32 72/33/33
f 70/28/28 71/31/31 74/34/34 73/32/32
f 2/24/24 53/35/35 66/26/26 17/23/23
f 53/35/35 52/36/36 67/27/27 66/26/26
f 52/36/36 51/37/37 68/30/30 67/27/27
f 51/37/37 10/38/38 44/39/39 68/30/30
f 68/30/30 44/39/39 43/40/40 71/31/31
f 71/31/31 43/40/40 42/41/41 74/34/34
f 74/34/34 42/41/41 9/42/42 50/43/43
f 73/32/32 74/34/34 50/43/43 49/44/44
f 72/33/33 73/32/32 49/44/44 48/45/45
f 15/12/12 72/33/33 48/45/45 1/10/10
f 16/25/25 69/29/29 72/33/33 15/12/12
f 17/23/23 66/26/26 69/29/29 16/25/25
f 75/46/46 76/47/47 79/48/48 78/49/49
f 76/47/47 77/50/50 80/51/51 79/48/48
f 78/49/49 79/48/48 82/52/52 81/53/53
f 79/48/48 80/51/51 83/54/54 82/52/52
f 5/55/55 38/56/56 75/46/46 26/57/57
f 38/56/56 37/58/58 76/47/47 75/46/46
f 37/58/58 36/59/59 77/50/50 76/47/47
f 36/59/59 8/60/60 32/61/61 77/50/50
f 77/50/50 32/61/61 31/62/62 80/51/51
f 80/51/51 31/62/62 30/63/63 83/54/54
f 83/54/54 30/63/63 6/64/64 35/65/65
f 82/52/52 83/54/54 35/65/65 34/66/66
f 81/53/53 82/52/52 34/66/66 33/67/67
f 24/68/68 81/53/53 33/67/67 1/10/10
f 25/69/69 78/49/49 81/53/53 24/68/68
f 26/57/57 75/46/46 78/49/49 25/69/69
f 84/70/70 85/71/71 88/72/72 87/73/73
f 85/71/71 86/74/74 89/75/75 88/72/72
f 87/73/73 88/72/72 91/76/76 90/77/77
f 88/72/72 89/75/75 92/78/78 91/76/76
f 1/10/10 33/67/67 84/70/70 14/11/11
f 33/67/67 34/66/66 85/71/71 84/70/70
f 34/66/66 35/65/65 86/74/74 85/71/71
f 35/65/65 6/64/64 29/79/79 86/74/74
f 86/74/74 29/79/79 28/80/80 89/75/75
f 89/75/75 28/80/80 27/81/81 92/78/78
f 92/78/78 27/81/81 7/82/82 41/83/81
f 91/76/76 92/78/78 41/83/81 40/84/83
f 90/77/77 91/76/76 40/84/83 39/85/84
f 12/14/14 90/77/77 39/85/84 3/15/15
f 13/13/13 87/73/73 90/77/77 12/14/14
f 14/11/11 84/70/70 87/73/73 13/13/13
f 93/86/85 94/87/86 97/88/87 96/89/88
f 94/87/86 95/90/89 98/91/90 97/88/87
f 96/89/88 97/88/87 100/92/91 99/93/92
f 97/88/87 98/91/90 101/94/93 100/92/91
f 1/10/10 48/45/45 93/86/85 24/68/68
f 48/45/45 49/44/44 94/87/86 93/86/85
f 49/44/44 50/43/43 95/90/89 94/87/86
f 50/43/43 9/42/42 45/95/94 95/90/89
f 95/90/89 45/95/94 46/96/95 98/91/90
f 98/91/90 46/96/95 47/97/96 101/94/93
f 101/94/93 47/97/96 11/98/97 54/99/98
f 100/92/91 101/94/93 54/99/98 55/100/99
f 99/93/92 100/92/91 55/100/99 56/101/100
f 26/57/57 99/93/92 56/101/100 5/55/55
f 25/69/69 96/89/88 99/93/92 26/57/57
f 24/68/68 93/86/85 96/89/88 25/69/69
