# Blender v3.0.0 OBJ File: 'box_experiment.blend'
# www.blender.org
o 5
v -0.000000 0.000000 0.000000
v 1.000000 0.000000 0.000000
v -0.000000 0.000000 -1.000000
v 1.000000 0.000000 -1.000000
v -0.000000 0.000000 1.000000
v 1.000000 0.000000 1.000000
v -1.000000 0.000000 0.000000
v -1.000000 0.000000 -1.000000
v -1.000000 0.000000 1.000000
v 0.000000 0.000000 -0.750000
v -0.000000 0.000000 -0.500000
v -0.000000 0.000000 -0.250000
v 0.250000 0.000000 0.000000
v 0.500000 0.000000 0.000000
v 0.750000 0.000000 0.000000
v 1.000000 0.000000 -0.250000
v 1.000000 0.000000 -0.500000
v 1.000000 0.000000 -0.750000
v 0.750000 0.000000 -1.000000
v 0.500000 0.000000 -1.000000
v 0.250000 0.000000 -1.000000
v 0.250000 0.000000 1.000000
v 0.500000 0.000000 1.000000
v 0.750000 0.000000 1.000000
v -0.000000 0.000000 0.250000
v -0.000000 0.000000 0.500000
v 0.000000 0.000000 0.750000
v 1.000000 0.000000 0.750000
v 1.000000 0.000000 0.500000
v 1.000000 0.000000 0.250000
v -1.000000 0.000000 -0.750000
v -1.000000 0.000000 -0.500000
v -1.000000 0.000000 -0.250000
v -1.000000 0.000000 0.250000
v -1.000000 0.000000 0.500000
v -1.000000 0.000000 0.750000
v -0.250000 0.000000 0.000000
v -0.500000 0.000000 0.000000
v -0.750000 0.000000 0.000000
v -0.750000 0.000000 1.000000
v -0.500000 0.000000 1.000000
v -0.250000 0.000000 1.000000
v -0.250000 0.000000 -1.000000
v -0.500000 0.000000 -1.000000
v -0.750000 0.000000 -1.000000
v 0.250000 0.000000 -0.250000
v 0.500000 0.000000 -0.250000
v 0.750000 0.000000 -0.250000
v 0.250000 0.000000 -0.500000
v 0.500000 0.000000 -0.500000
v 0.750000 0.000000 -0.500000
v 0.250000 0.000000 -0.750000
v 0.500000 0.000000 -0.750000
v 0.750000 0.000000 -0.750000
v 0.750000 0.000000 0.250000
v 0.500000 0.000000 0.250000
v 0.250000 0.000000 0.250000
v 0.750000 0.000000 0.500000
v 0.500000 0.000000 0.500000
v 0.250000 0.000000 0.500000
v 0.750000 0.000000 0.750000
v 0.500000 0.000000 0.750000
v 0.250000 0.000000 0.750000
v -0.250000 0.000000 0.750000
v -0.250000 0.000000 0.500000
v -0.250000 0.000000 0.250000
v -0.500000 0.000000 0.750000
v -0.500000 0.000000 0.500000
v -0.500000 0.000000 0.250000
v -0.750000 0.000000 0.750000
v -0.750000 0.000000 0.500000
v -0.750000 0.000000 0.250000
v -0.250000 0.000000 -0.250000
v -0.250000 0.000000 -0.500000
v -0.250000 0.000000 -0.750000
v -0.500000 0.000000 -0.250000
v -0.500000 0.000000 -0.500000
v -0.500000 0.000000 -0.750000
v -0.750000 0.000000 -0.250000
v -0.750000 0.000000 -0.500000
v -0.750000 0.000000 -0.750000
vt 0.319065 0.319065
vt 0.520399 0.310330
vt 0.517361 0.517361
vt 0.310330 0.520399
vt 0.752550 0.287381
vt 0.752170 0.509983
vt 0.509983 0.752170
vt 0.287381 0.752550
vt 0.751248 0.751248
vt 0.166667 0.166667
vt 0.320313 0.164931
vt 0.164931 0.320312
vt 0.520833 0.152778
vt 0.752604 0.116319
vt 1.000000 0.000000
vt 1.000000 0.250000
vt 1.000000 0.500000
vt 1.000000 0.750000
vt 1.000000 1.000000
vt 0.750000 1.000000
vt 0.500000 1.000000
vt 0.250000 1.000000
vt 0.116319 0.752604
vt 0.000000 1.000000
vt 0.152778 0.520833
vt 0.752550 0.037381
vt 0.520399 0.060330
vt 0.517361 0.017361
vt 0.752170 0.009983
vt 0.319065 0.069065
vt 0.310330 0.020399
vt 0.509983 0.002170
vt 0.751248 0.001248
vt 0.287381 0.002550
vt 1.000000 0.000000
vt 0.164931 0.070313
vt 0.152778 0.020833
vt 0.116319 0.002604
vt 0.000000 0.000000
vt 0.250000 0.000000
vt 0.500000 0.000000
vt 0.750000 0.000000
vt 1.000000 0.000000
vt 1.000000 0.000000
vt 1.000000 0.000000
vt 0.037381 0.002550
vt 0.060330 0.020399
vt 0.017361 0.017361
vt 0.009983 0.002170
vt 0.069065 0.069065
vt 0.020399 0.060330
vt 0.002170 0.009983
vt 0.001248 0.001248
vt 0.002550 0.037381
vt 0.000000 0.000000
vt 0.070313 0.164931
vt 0.020833 0.152778
vt 0.002604 0.116319
vt 0.000000 0.000000
vt 0.000000 0.000000
vt 0.000000 0.000000
vt 0.000000 0.000000
vt 0.000000 0.000000
vt 0.000000 0.000000
vt 0.000000 0.000000
vt 0.069065 0.319065
vt 0.060330 0.520399
vt 0.017361 0.517361
vt 0.020399 0.310330
vt 0.037381 0.752550
vt 0.009983 0.752170
vt 0.002170 0.509983
vt 0.002550 0.287381
vt 0.001248 0.751248
vt 0.000000 1.000000
vt 0.000000 1.000000
vt 0.000000 1.000000
vt 0.000000 1.000000
vt 0.000000 0.750000
vt 0.000000 0.500000
vt 0.000000 0.250000
vn 0.0000 1.0000 0.0000
s 1
f 46/1/1 47/2/1 50/3/1 49/4/1
f 47/2/1 48/5/1 51/6/1 50/3/1
f 49/4/1 50/3/1 53/7/1 52/8/1
f 50/3/1 51/6/1 54/9/1 53/7/1
f 1/10/1 13/11/1 46/1/1 12/12/1
f 13/11/1 14/13/1 47/2/1 46/1/1
f 14/13/1 15/14/1 48/5/1 47/2/1
f 15/14/1 2/15/1 16/16/1 48/5/1
f 48/5/1 16/16/1 17/17/1 51/6/1
f 51/6/1 17/17/1 18/18/1 54/9/1
f 54/9/1 18/18/1 4/19/1 19/20/1
f 53/7/1 54/9/1 19/20/1 20/21/1
f 52/8/1 53/7/1 20/21/1 21/22/1
f 10/23/1 52/8/1 21/22/1 3/24/1
f 11/25/1 49/4/1 52/8/1 10/23/1
f 12/12/1 46/1/1 49/4/1 11/25/1
f 55/26/1 56/27/1 59/28/1 58/29/1
f 56/27/1 57/30/1 60/31/1 59/28/1
f 58/29/1 59/28/1 62/32/1 61/33/1
f 59/28/1 60/31/1 63/34/1 62/32/1
f 2/15/1 15/14/1 55/26/1 30/35/1
f 15/14/1 14/13/1 56/27/1 55/26/1
f 14/13/1 13/11/1 57/30/1 56/27/1
f 13/11/1 1/10/1 25/36/1 57/30/1
f 57/30/1 25/36/1 26/37/1 60/31/1
f 60/31/1 26/37/1 27/38/1 63/34/1
f 63/34/1 27/38/1 5/39/1 22/40/1
f 62/32/1 63/34/1 22/40/1 23/41/1
f 61/33/1 62/32/1 23/41/1 24/42/1
f 28/43/1 61/33/1 24/42/1 6/44/1
f 29/45/1 58/29/1 61/33/1 28/43/1
f 30/35/1 55/26/1 58/29/1 29/45/1
f 64/46/1 65/47/1 68/48/1 67/49/1
f 65/47/1 66/50/1 69/51/1 68/48/1
f 67/49/1 68/48/1 71/52/1 70/53/1
f 68/48/1 69/51/1 72/54/1 71/52/1
f 5/39/1 27/38/1 64/46/1 42/55/1
f 27/38/1 26/37/1 65/47/1 64/46/1
f 26/37/1 25/36/1 66/50/1 65/47/1
f 25/36/1 1/10/1 37/56/1 66/50/1
f 66/50/1 37/56/1 38/57/1 69/51/1
f 69/51/1 38/57/1 39/58/1 72/54/1
f 72/54/1 39/58/1 7/59/1 34/60/1
f 71/52/1 72/54/1 34/60/1 35/61/1
f 70/53/1 71/52/1 35/61/1 36/62/1
f 40/63/1 70/53/1 36/62/1 9/64/1
f 41/65/1 67/49/1 70/53/1 40/63/1
f 42/55/1 64/46/1 67/49/1 41/65/1
f 73/66/1 74/67/1 77/68/1 76/69/1
f 74/67/1 75/70/1 78/71/1 77/68/1
f 76/69/1 77/68/1 80/72/1 79/73/1
f 77/68/1 78/71/1 81/74/1 80/72/1
f 1/10/1 12/12/1 73/66/1 37/56/1
f 12/12/1 11/25/1 74/67/1 73/66/1
f 11/25/1 10/23/1 75/70/1 74/67/1
f 10/23/1 3/24/1 43/75/1 75/70/1
f 75/70/1 43/75/1 44/76/1 78/71/1
f 78/71/1 44/76/1 45/77/1 81/74/1
f 81/74/1 45/77/1 8/78/1 31/79/1
f 80/72/1 81/74/1 31/79/1 32/80/1
f 79/73/1 80/72/1 32/80/1 33/81/1
f 39/58/1 79/73/1 33/81/1 7/59/1
f 38/57/1 76/69/1 79/73/1 39/58/1
f 37/56/1 73/66/1 76/69/1 38/57/1
