# Blender v3.0.0 OBJ File: 'box_experiment.blend'
# www.blender.org
o 9
v -0.000000 0.000000 0.000000
v 1.000000 0.166667 0.166667
v -0.000000 0.000000 -1.000000
v -0.000000 0.000000 1.000000
v 1.000000 0.000000 1.000000
v -1.000000 -0.166667 0.166667
v -1.000000 0.000000 1.000000
v -0.000000 -1.000000 -1.000000
v -0.166667 -1.000000 -0.166667
v -1.000000 -1.000000 0.000000
v -0.000000 1.000000 -1.000000
v 0.166667 1.000000 -0.166667
v 1.000000 1.000000 0.000000
v 0.000000 0.000000 -0.750868
v -0.000000 0.000000 -0.506944
v -0.000000 0.000000 -0.270399
v 0.260417 0.116536 0.106554
v 0.503472 0.152778 0.149306
v 0.750434 0.164931 0.164497
v 0.250000 0.000000 1.000000
v 0.500000 0.000000 1.000000
v 0.750000 0.000000 1.000000
v -0.000000 -0.000000 0.270399
v -0.000000 -0.000000 0.506945
v 0.000000 0.000000 0.750868
v 1.000000 0.002604 0.752604
v 1.000000 0.020833 0.520833
v 1.000000 0.070313 0.320313
v -1.000000 -0.070313 0.320313
v -1.000000 -0.020833 0.520833
v -1.000000 -0.002604 0.752604
v -0.260417 -0.116536 0.106554
v -0.503472 -0.152778 0.149306
v -0.750434 -0.164931 0.164497
v -0.750000 0.000000 1.000000
v -0.500000 0.000000 1.000000
v -0.250000 0.000000 1.000000
v -0.002604 -1.000000 -0.752604
v -0.020833 -1.000000 -0.520833
v -0.070313 -1.000000 -0.320312
v -0.320313 -1.000000 -0.070312
v -0.520833 -1.000000 -0.020833
v -0.752604 -1.000000 -0.002604
v -0.000000 -0.250000 -1.000000
v -0.000000 -0.500000 -1.000000
v -0.000000 -0.750000 -1.000000
v -0.164931 -0.750434 -0.164497
v -0.152778 -0.503472 -0.149306
v -0.116536 -0.260417 -0.106554
v -1.000000 -0.752604 0.002604
v -1.000000 -0.520833 0.020833
v -1.000000 -0.320313 0.070313
v 0.002604 1.000000 -0.752604
v 0.020833 1.000000 -0.520833
v 0.070312 1.000000 -0.320312
v 0.320312 1.000000 -0.070312
v 0.520833 1.000000 -0.020833
v 0.752604 1.000000 -0.002604
v 1.000000 0.752604 0.002604
v 1.000000 0.520833 0.020833
v 1.000000 0.320313 0.070313
v 0.116536 0.260417 -0.106554
v 0.152778 0.503472 -0.149305
v 0.164931 0.750434 -0.164497
v -0.000000 0.750000 -1.000000
v -0.000000 0.500000 -1.000000
v -0.000000 0.250000 -1.000000
v 0.750054 0.069065 0.319010
v 0.750000 0.020399 0.520399
v 0.750000 0.002550 0.752550
v 0.500434 0.060330 0.309896
v 0.500000 0.017361 0.517361
v 0.500000 0.002170 0.752170
v 0.250922 0.037381 0.288303
v 0.250000 0.009983 0.510851
v 0.250000 0.001248 0.751356
v -0.250000 -0.001248 0.751356
v -0.500000 -0.002170 0.752170
v -0.750000 -0.002550 0.752550
v -0.250000 -0.009983 0.510851
v -0.500000 -0.017361 0.517361
v -0.750000 -0.020399 0.520399
v -0.250922 -0.037381 0.288303
v -0.500434 -0.060330 0.309896
v -0.750054 -0.069065 0.319010
v -0.037381 -0.250922 -0.288303
v -0.060330 -0.500434 -0.309896
v -0.069065 -0.750054 -0.319010
v -0.009983 -0.250000 -0.510851
v -0.017361 -0.500000 -0.517361
v -0.020399 -0.750000 -0.520399
v -0.001248 -0.250000 -0.751356
v -0.002170 -0.500000 -0.752170
v -0.002550 -0.750000 -0.752550
v -0.751302 -0.319065 0.067763
v -0.752170 -0.520399 0.018229
v -0.752550 -0.752550 0.000000
v -0.510417 -0.310330 0.049913
v -0.517361 -0.517361 0.000000
v -0.520399 -0.752170 -0.018229
v -0.288303 -0.288303 0.000000
v -0.310330 -0.510417 -0.049913
v -0.319065 -0.751302 -0.067763
v 0.001248 0.250000 -0.751356
v 0.002170 0.500000 -0.752170
v 0.002550 0.750000 -0.752550
v 0.009983 0.250000 -0.510851
v 0.017361 0.500000 -0.517361
v 0.020399 0.750000 -0.520399
v 0.037381 0.250922 -0.288303
v 0.060330 0.500434 -0.309896
v 0.069065 0.750054 -0.319010
v 0.288303 0.288303 0.000000
v 0.310330 0.510417 -0.049913
v 0.319065 0.751302 -0.067763
v 0.510417 0.310330 0.049913
v 0.517361 0.517361 0.000000
v 0.520399 0.752170 -0.018229
v 0.751302 0.319065 0.067763
v 0.752170 0.520399 0.018229
v 0.752550 0.752550 0.000000
vt 0.751857 0.000609
vt 0.751929 0.000193
vt 0.515432 0.001543
vt 0.514853 0.004871
vt 0.751218 0.000024
vt 0.509742 0.000193
vt 0.304784 0.004437
vt 0.302019 0.014964
vt 0.286687 0.000555
vt 1.000000 0.000000
vt 1.000000 0.000000
vt 0.751640 0.001206
vt 1.000000 0.000000
vt 1.000000 0.000000
vt 1.000000 0.000000
vt 0.750000 0.000000
vt 0.500000 0.000000
vt 0.250000 0.000000
vt 0.000000 0.000000
vt 0.115355 0.000772
vt 0.145062 0.006173
vt 0.138125 0.023325
vt 0.293724 0.033308
vt 0.090909 0.090909
vt 0.513117 0.009645
vt 0.036687 0.000555
vt 0.009742 0.000193
vt 0.015432 0.001543
vt 0.054784 0.004437
vt 0.001218 0.000024
vt 0.001929 0.000193
vt 0.014419 0.004871
vt 0.051097 0.014964
vt 0.001802 0.000609
vt 0.000000 0.000000
vt 0.000000 0.000000
vt 0.000000 0.000000
vt 0.000000 0.000000
vt 0.000000 0.000000
vt 0.000000 0.000000
vt 0.000000 0.000000
vt 0.000000 0.000000
vt 0.001206 0.001206
vt 0.009645 0.009645
vt 0.033308 0.033308
vt 0.014964 0.302019
vt 0.004437 0.304784
vt 0.001543 0.515432
vt 0.004871 0.514853
vt 0.000555 0.286687
vt 0.000193 0.509742
vt 0.000193 0.751929
vt 0.000609 0.751857
vt 0.000024 0.751218
vt 0.023325 0.138125
vt 0.033308 0.293724
vt 0.006173 0.145062
vt 0.000772 0.115355
vt 0.000000 0.000000
vt 0.000000 0.250000
vt 0.000000 0.500000
vt 0.000000 0.750000
vt 0.000000 1.000000
vt 0.000000 1.000000
vt 0.000000 1.000000
vt 0.000000 1.000000
vt 0.001206 0.751640
vt 0.000000 1.000000
vt 0.009645 0.513117
vt 0.000609 0.001802
vt 0.000193 0.001929
vt 0.001543 0.015432
vt 0.004871 0.014419
vt 0.000024 0.001218
vt 0.000193 0.009742
vt 0.004437 0.054784
vt 0.014964 0.051097
vt 0.000555 0.036687
vt 0.000000 0.000000
vt 0.000000 0.000000
vt 0.000000 0.000000
vt 0.000000 0.000000
vt 0.000000 0.000000
vt 0.000000 0.000000
vt 0.000000 0.000000
vt 0.001802 0.751857
vt 0.001929 0.751929
vt 0.015432 0.515432
vt 0.014419 0.514853
vt 0.001218 0.751218
vt 0.009742 0.509742
vt 0.054784 0.304784
vt 0.051097 0.302019
vt 0.036687 0.286687
vt 0.000000 1.000000
vt 0.000000 1.000000
vt 0.000000 1.000000
vt 0.000000 1.000000
vt 0.000000 0.750000
vt 0.000000 0.500000
vt 0.000000 0.250000
vt 0.000000 0.000000
vt 0.115355 0.115355
vt 0.145062 0.145062
vt 0.138125 0.138125
vt 0.302019 0.051097
vt 0.304784 0.054784
vt 0.515432 0.015432
vt 0.514853 0.014419
vt 0.286687 0.036687
vt 0.509742 0.009742
vt 0.751929 0.001929
vt 0.751857 0.001802
vt 0.751218 0.001218
vt 0.250000 0.000000
vt 0.500000 0.000000
vt 0.750000 0.000000
vt 1.000000 0.000000
vt 1.000000 0.000000
vt 1.000000 0.000000
vt 1.000000 0.000000
vn 0.0258 -0.9254 -0.3782
vn 0.0102 -0.9884 -0.1512
vn 0.0304 -0.9916 -0.1252
vn 0.0815 -0.9386 -0.3351
vn 0.0023 -0.9991 -0.0420
vn 0.0068 -0.9994 -0.0343
vn 0.0515 -0.9960 -0.0725
vn 0.1662 -0.9644 -0.2057
vn 0.0110 -0.9997 -0.0194
vn 0.0102 -0.7081 -0.7060
vn 0.0065 -0.9217 -0.3878
vn 0.0415 -0.7118 -0.7011
vn 0.0026 -0.9875 -0.1578
vn 0.0005 -0.9990 -0.0440
vn 0.0001 -0.9999 -0.0104
vn 0.0004 -0.9999 -0.0099
vn 0.0013 -0.9999 -0.0082
vn 0.0022 -1.0000 -0.0047
vn 0.0025 -1.0000 0.0000
vn 0.0125 -0.9999 0.0000
vn 0.0600 -0.9982 0.0000
vn 0.2160 -0.9764 0.0000
vn 0.3384 -0.7625 -0.5514
vn 0.7071 -0.7071 0.0000
vn 0.1398 -0.7268 -0.6724
vn 0.0110 -0.9997 0.0194
vn 0.0068 -0.9994 0.0343
vn 0.0304 -0.9916 0.1252
vn 0.0515 -0.9960 0.0725
vn 0.0023 -0.9991 0.0420
vn 0.0102 -0.9884 0.1512
vn 0.0815 -0.9386 0.3351
vn 0.1662 -0.9644 0.2057
vn 0.0258 -0.9254 0.3782
vn 0.0022 -1.0000 0.0047
vn 0.0013 -0.9999 0.0082
vn 0.0004 -0.9999 0.0099
vn 0.0001 -0.9999 0.0104
vn 0.0005 -0.9990 0.0440
vn 0.0026 -0.9875 0.1578
vn 0.0065 -0.9217 0.3878
vn 0.0102 -0.7081 0.7060
vn 0.0415 -0.7118 0.7011
vn 0.1398 -0.7268 0.6724
vn 0.3384 -0.7625 0.5514
vn 0.9644 -0.1662 0.2057
vn 0.9386 -0.0815 0.3351
vn 0.9916 -0.0304 0.1252
vn 0.9960 -0.0515 0.0725
vn 0.9254 -0.0258 0.3782
vn 0.9884 -0.0102 0.1512
vn 0.9994 -0.0068 0.0343
vn 0.9997 -0.0110 0.0194
vn 0.9991 -0.0023 0.0420
vn 0.7625 -0.3384 0.5514
vn 0.9764 -0.2160 0.0000
vn 0.7268 -0.1398 0.6724
vn 0.7118 -0.0415 0.7011
vn 0.7081 -0.0102 0.7060
vn 0.9217 -0.0065 0.3878
vn 0.9875 -0.0026 0.1578
vn 0.9990 -0.0005 0.0440
vn 0.9999 -0.0001 0.0104
vn 0.9999 -0.0004 0.0099
vn 0.9999 -0.0013 0.0082
vn 1.0000 -0.0022 0.0047
vn 0.9999 -0.0125 0.0000
vn 1.0000 -0.0025 0.0000
vn 0.9982 -0.0600 0.0000
vn 0.0461 -0.3901 0.9196
vn 0.0450 -0.1588 0.9863
vn 0.1587 -0.1587 0.9745
vn 0.1596 -0.3909 0.9065
vn 0.0445 -0.0445 0.9980
vn 0.1588 -0.0450 0.9863
vn 0.3909 -0.1596 0.9065
vn 0.3913 -0.3913 0.8329
vn 0.3901 -0.0461 0.9196
vn 0.0112 -0.3902 0.9207
vn 0.0107 -0.1593 0.9872
vn 0.0105 -0.0445 0.9989
vn 0.0105 -0.0105 0.9999
vn 0.0445 -0.0105 0.9989
vn 0.1593 -0.0107 0.9872
vn 0.3902 -0.0112 0.9207
vn 0.9997 -0.0110 -0.0194
vn 0.9994 -0.0068 -0.0343
vn 0.9916 -0.0304 -0.1252
vn 0.9960 -0.0515 -0.0725
vn 0.9991 -0.0023 -0.0420
vn 0.9884 -0.0102 -0.1512
vn 0.9386 -0.0815 -0.3351
vn 0.9644 -0.1662 -0.2057
vn 0.9254 -0.0258 -0.3782
vn 1.0000 -0.0022 -0.0047
vn 0.9999 -0.0013 -0.0082
vn 0.9999 -0.0004 -0.0099
vn 0.9999 -0.0001 -0.0104
vn 0.9990 -0.0005 -0.0440
vn 0.9875 -0.0026 -0.1578
vn 0.9217 -0.0065 -0.3878
vn 0.7081 -0.0102 -0.7060
vn 0.7118 -0.0415 -0.7011
vn 0.7268 -0.1398 -0.6724
vn 0.7625 -0.3384 -0.5514
vn 0.3913 -0.3913 -0.8329
vn 0.3909 -0.1596 -0.9065
vn 0.1587 -0.1587 -0.9745
vn 0.1596 -0.3909 -0.9065
vn 0.3901 -0.0461 -0.9196
vn 0.1588 -0.0450 -0.9863
vn 0.0450 -0.1588 -0.9863
vn 0.0461 -0.3901 -0.9196
vn 0.0445 -0.0445 -0.9980
vn 0.3902 -0.0112 -0.9207
vn 0.1593 -0.0107 -0.9872
vn 0.0445 -0.0105 -0.9989
vn 0.0105 -0.0105 -0.9999
vn 0.0105 -0.0445 -0.9989
vn 0.0107 -0.1593 -0.9872
vn 0.0112 -0.3902 -0.9207
s 1
f 68/1/1 69/2/2 72/3/3 71/4/4
f 69/2/2 70/5/5 73/6/6 72/3/3
f 71/4/4 72/3/3 75/7/7 74/8/8
f 72/3/3 73/6/6 76/9/9 75/7/7
f 2/10/10 28/11/11 68/1/1 19/12/12
f 28/11/11 27/13/13 69/2/2 68/1/1
f 27/13/13 26/14/14 70/5/5 69/2/2
f 26/14/14 5/15/15 22/16/16 70/5/5
f 70/5/5 22/16/16 21/17/17 73/6/6
f 73/6/6 21/17/17 20/18/18 76/9/9
f 76/9/9 20/18/18 4/19/19 25/20/20
f 75/7/7 76/9/9 25/20/20 24/21/21
f 74/8/8 75/7/7 24/21/21 23/22/22
f 17/23/23 74/8/8 23/22/22 1/24/24
f 18/25/25 71/4/4 74/8/8 17/23/23
f 19/12/12 68/1/1 71/4/4 18/25/25
f 77/26/26 78/27/27 81/28/28 80/29/29
f 78/27/27 79/30/30 82/31/31 81/28/28
f 80/29/29 81/28/28 84/32/32 83/33/33
f 81/28/28 82/31/31 85/34/34 84/32/32
f 4/19/19 37/35/35 77/26/26 25/20/20
f 37/35/35 36/36/36 78/27/27 77/26/26
f 36/36/36 35/37/37 79/30/30 78/27/27
f 35/37/37 7/38/38 31/39/39 79/30/30
f 79/30/30 31/39/39 30/40/40 82/31/31
f 82/31/31 30/40/40 29/41/41 85/34/34
f 85/34/34 29/41/41 6/42/42 34/43/43
f 84/32/32 85/34/34 34/43/43 33/44/44
f 83/33/33 84/32/32 33/44/44 32/45/45
f 23/22/22 83/33/33 32/45/45 1/24/24
f 24/21/21 80/29/29 83/33/33 23/22/22
f 25/20/20 77/26/26 80/29/29 24/21/21
f 86/46/46 87/47/47 90/48/48 89/49/49
f 87/47/47 88/50/50 91/51/51 90/48/48
f 89/49/49 90/48/48 93/52/52 92/53/53
f 90/48/48 91/51/51 94/54/54 93/52/52
f 1/24/24 49/55/55 86/46/46 16/56/56
f 49/55/55 48/57/57 87/47/47 86/46/46
f 48/57/57 47/58/58 88/50/50 87/47/47
f 47/58/58 9/59/59 40/60/60 88/50/50
f 88/50/50 40/60/60 39/61/61 91/51/51
f 91/51/51 39/61/61 38/62/62 94/54/54
f 94/54/54 38/62/62 8/63/63 46/64/64
f 93/52/52 94/54/54 46/64/64 45/65/65
f 92/53/53 93/52/52 45/65/65 44/66/66
f 14/67/67 92/53/53 44/66/66 3/68/68
f 15/69/69 89/49/49 92/53/53 14/67/67
f 16/56/56 86/46/46 89/49/49 15/69/69
f 95/70/70 96/71/71 99/72/72 98/73/73
f 96/71/71 97/74/74 100/75/75 99/72/72
f 98/73/73 99/72/72 102/76/76 101/77/77
f 99/72/72 100/75/75 103/78/78 102/76/76
f 6/42/42 52/79/79 95/70/70 34/43/43
f 52/79/79 51/80/80 96/71/71 95/70/70
f 51/80/80 50/81/81 97/74/74 96/71/71
f 50/81/81 10/82/82 43/83/83 97/74/74
f 97/74/74 43/83/83 42/84/84 100/75/75
f 100/75/75 42/84/84 41/85/85 103/78/78
f 103/78/78 41/85/85 9/59/59 47/58/58
f 102/76/76 103/78/78 47/58/58 48/57/57
f 101/77/77 102/76/76 48/57/57 49/55/55
f 32/45/45 101/77/77 49/55/55 1/24/24
f 33/44/44 98/73/73 101/77/77 32/45/45
f 34/43/43 95/70/70 98/73/73 33/44/44
f 104/86/86 105/87/87 108/88/88 107/89/89
f 105/87/87 106/90/90 109/91/91 108/88/88
f 107/89/89 108/88/88 111/92/92 110/93/93
f 108/88/88 109/91/91 112/94/94 111/92/92
f 3/68/68 67/95/95 104/86/86 14/67/67
f 67/95/95 66/96/96 105/87/87 104/86/86
f 66/96/96 65/97/97 106/90/90 105/87/87
f 65/97/97 11/98/98 53/99/99 106/90/90
f 106/90/90 53/99/99 54/100/100 109/91/91
f 109/91/91 54/100/100 55/101/101 112/94/94
f 112/94/94 55/101/101 12/102/102 64/103/103
f 111/92/92 112/94/94 64/103/103 63/104/104
f 110/93/93 111/92/92 63/104/104 62/105/105
f 16/56/56 110/93/93 62/105/105 1/24/24
f 15/69/69 107/89/89 110/93/93 16/56/56
f 14/67/67 104/86/86 107/89/89 15/69/69
f 113/106/106 114/107/107 117/108/108 116/109/109
f 114/107/107 115/110/110 118/111/111 117/108/108
f 116/109/109 117/108/108 120/112/112 119/113/113
f 117/108/108 118/111/111 121/114/114 120/112/112
f 1/24/24 62/105/105 113/106/106 17/23/23
f 62/105/105 63/104/104 114/107/107 113/106/106
f 63/104/104 64/103/103 115/110/110 114/107/107
f 64/103/103 12/102/102 56/115/115 115/110/110
f 115/110/110 56/115/115 57/116/116 118/111/111
f 118/111/111 57/116/116 58/117/117 121/114/114
f 121/114/114 58/117/117 13/118/118 59/119/119
f 120/112/112 121/114/114 59/119/119 60/120/120
f 119/113/113 120/112/112 60/120/120 61/121/121
f 19/12/12 119/113/113 61/121/121 2/10/10
f 18/25/25 116/109/109 119/113/113 19/12/12
f 17/23/23 113/106/106 116/109/109 18/25/25
