# Blender v3.0.0 OBJ File: 'box_experiment.blend'
# www.blender.org
o 15
v 0.000000 -0.000000 0.000000
v 1.000000 -0.000000 -0.000000
v -0.000000 0.000000 -1.000000
v 1.000000 0.000000 -1.000000
v -0.000000 -1.000000 -1.000000
v 0.000000 -1.000000 -0.000000
v 1.000000 -1.000000 -0.000001
v 0.000000 0.000000 -0.000000
v 1.000000 0.000000 0.000000
v -0.000000 -0.000000 1.000000
v 1.000000 -0.000000 1.000000
v -0.000000 1.000000 1.000000
v 0.000000 1.000000 0.000000
v 1.000000 1.000000 0.000000
vt 0.000000 0.000000
vt 0.000000 1.000000
vt 1.000000 1.000000
vt 1.000000 0.000000
vt 0.000000 0.000000
vt 0.000000 1.000000
vt 1.000000 0.000000
vt 0.000000 0.000000
vt 0.000000 1.000000
vt 1.000000 1.000000
vt 1.000000 0.000000
vt 0.000000 0.000000
vt 0.000000 1.000000
vt 1.000000 0.000000
vn 0.5773 -0.5773 -0.5773
vn 0.7071 -0.7071 0.0000
vn 0.0000 -1.0000 0.0000
vn 0.0000 -0.7071 -0.7071
vn 0.7071 0.0000 -0.7071
vn 1.0000 0.0000 0.0000
vn 0.0000 0.0000 -1.0000
vn 0.5773 0.5773 0.5773
vn 0.7071 0.7071 0.0000
vn 0.0000 1.0000 0.0000
vn 0.0000 0.7071 0.7071
vn 0.7071 0.0000 0.7071
vn 0.0000 0.0000 1.0000
s 1
f 1/1/1 3/2/2 4/3/3 2/4/4
f 1/1/1 6/5/5 5/6/6 3/2/2
f 2/4/4 7/7/7 6/5/5 1/1/1
f 8/8/8 10/9/9 11/10/10 9/11/11
f 8/8/8 13/12/12 12/13/6 10/9/9
f 9/11/11 14/14/13 13/12/12 8/8/8
