# Blender v3.0.0 OBJ File: 'box_experiment.blend'
# www.blender.org
o 4
v -0.000000 0.000000 0.000000
v -0.000000 -0.000000 -1.000000
v 0.000000 1.000000 0.000000
v 0.000000 1.000000 -1.000000
v -0.000001 -1.000000 0.000000
v -0.000000 0.000000 1.000000
v 0.000000 1.000000 1.000000
v -0.000001 -1.000000 1.000000
v 1.000000 -0.000001 0.000000
v 1.000000 -0.000001 -1.000000
v 0.999999 -1.000000 0.000000
vt 0.000000 0.000000
vt 1.000000 0.000000
vt 1.000000 1.000000
vt 0.000000 1.000000
vt 0.000000 0.000000
vt 1.000000 0.000000
vt 0.000000 0.000000
vt 0.000000 0.000000
vt 0.000000 0.000000
vt 0.000000 1.000000
vt 0.000000 0.000000
vn 0.9045 0.3015 0.3015
vn 0.7071 0.7071 0.0000
vn 1.0000 0.0000 0.0000
vn 0.0000 0.7071 0.7071
vn 0.0000 1.0000 0.0000
vn 0.7071 0.0000 0.7071
vn 0.0000 0.0000 1.0000
s 1
f 1/1/1 2/2/2 4/3/3 3/4/3
f 2/2/2 1/1/1 9/5/4 10/6/5
f 5/7/6 1/1/1 6/8/3 8/9/3
f 1/1/1 3/4/3 7/10/3 6/8/3
f 1/1/1 5/7/6 11/11/7 9/5/4
