# Blender v3.0.0 OBJ File: 'box_experiment.blend'
# www.blender.org
o 10
v -0.250000 -0.250000 -0.250000
v -0.166667 -0.166667 -1.000000
v -1.000000 -0.166666 -0.166667
v -1.000000 0.000000 -1.000000
v -1.000001 -1.000000 0.000000
v -0.166667 -1.000000 -0.166667
v -0.000001 -1.000000 -1.000000
v 0.250000 0.250000 0.250000
v 0.166668 0.166667 1.000000
v 1.000000 0.166666 0.166666
v 1.000001 -0.000000 0.999999
v 1.000000 1.000000 -0.000001
v 0.166667 1.000000 0.166667
v 0.000001 1.000000 1.000000
v -0.531636 -0.180941 -0.180941
v -0.180941 -0.180941 -0.531636
v -0.520833 -0.020833 -1.000000
v -1.000000 -0.020833 -0.520833
v -1.000000 -0.520833 -0.020833
v -0.520834 -1.000000 -0.020833
v -0.020834 -1.000000 -0.520833
v -0.180942 -0.531636 -0.180941
v -0.020834 -0.520834 -1.000000
v 0.531636 0.180941 0.180941
v 0.180942 0.180941 0.531636
v 0.520834 0.020833 1.000000
v 1.000000 0.020833 0.520833
v 1.000000 0.520833 0.020833
v 0.520834 1.000000 0.020833
v 0.020834 1.000000 0.520833
v 0.180942 0.531636 0.180941
v 0.020834 0.520833 1.000000
v -0.523534 -0.040895 -0.523534
v -0.523534 -0.523534 -0.040895
v -0.040895 -0.523534 -0.523534
v 0.523535 0.040895 0.523534
v 0.523534 0.523534 0.040895
v 0.040896 0.523534 0.523534
vt 0.250000 0.250000
vt 0.167052 0.531636
vt 0.520062 0.520062
vt 0.531636 0.167052
vt 1.000000 0.500000
vt 1.000000 0.000000
vt 0.500000 1.000000
vt 1.000000 1.000000
vt 0.000000 1.000000
vt 0.167052 0.167052
vt 0.033951 0.520062
vt 0.000000 1.000000
vt 0.000000 0.500000
vt 0.000000 1.000000
vt 0.000000 0.000000
vt 1.000000 0.000000
vt 0.520062 0.033951
vt 0.500000 0.000000
vt 1.000000 0.000000
vt 0.250000 0.250000
vt 0.167052 0.531636
vt 0.520062 0.520062
vt 0.531636 0.167052
vt 1.000000 0.500000
vt 1.000000 0.000000
vt 0.500000 1.000000
vt 1.000000 1.000000
vt 0.000000 1.000000
vt 0.167052 0.167052
vt 0.033951 0.520062
vt 0.000000 1.000000
vt 0.000000 0.500000
vt 0.000000 1.000000
vt 0.000000 0.000000
vt 1.000000 0.000000
vt 0.520062 0.033951
vt 0.500000 0.000000
vt 1.000000 0.000000
vn -0.5773 -0.5773 -0.5773
vn -0.1968 -0.6933 -0.6933
vn -0.2026 -0.9580 -0.2026
vn -0.6933 -0.6933 -0.1968
vn -0.2141 -0.9759 -0.0422
vn -0.7064 -0.7064 -0.0438
vn -0.0422 -0.9759 -0.2141
vn -0.0428 -0.9981 -0.0428
vn -0.0438 -0.7064 -0.7064
vn -0.6933 -0.1968 -0.6933
vn -0.2026 -0.2026 -0.9580
vn -0.0422 -0.2141 -0.9759
vn -0.2141 -0.0422 -0.9759
vn -0.0428 -0.0428 -0.9981
vn -0.7064 -0.0438 -0.7064
vn -0.9759 -0.2141 -0.0422
vn -0.9580 -0.2026 -0.2026
vn -0.9759 -0.0422 -0.2141
vn -0.9981 -0.0428 -0.0428
s 1
f 1/1/1 15/2/2 33/3/3 16/4/4
f 16/4/4 33/3/3 17/5/5 2/6/6
f 33/3/3 18/7/7 4/8/8 17/5/5
f 15/2/2 3/9/9 18/7/7 33/3/3
f 1/1/1 22/10/10 34/11/11 15/2/2
f 15/2/2 34/11/11 19/12/12 3/9/9
f 34/11/11 20/13/13 5/14/14 19/12/12
f 22/10/10 6/15/15 20/13/13 34/11/11
f 2/6/6 23/16/16 35/17/17 16/4/4
f 16/4/4 35/17/17 22/10/10 1/1/1
f 35/17/17 21/18/18 6/15/15 22/10/10
f 23/16/16 7/19/19 21/18/18 35/17/17
f 8/20/1 24/21/2 36/22/3 25/23/4
f 25/23/4 36/22/3 26/24/5 9/25/6
f 36/22/3 27/26/7 11/27/8 26/24/5
f 24/21/2 10/28/9 27/26/7 36/22/3
f 8/20/1 31/29/10 37/30/11 24/21/2
f 24/21/2 37/30/11 28/31/12 10/28/9
f 37/30/11 29/32/13 12/33/14 28/31/12
f 31/29/10 13/34/15 29/32/13 37/30/11
f 9/25/6 32/35/16 38/36/17 25/23/4
f 25/23/4 38/36/17 31/29/10 8/20/1
f 38/36/17 30/37/18 13/34/15 31/29/10
f 32/35/16 14/38/19 30/37/18 38/36/17
