# Blender v3.0.0 OBJ File: 'box_experiment.blend'
# www.blender.org
o 11
v 0.250000 0.250000 0.250000
v 0.166666 0.166667 1.000000
v 1.000000 0.166667 0.166667
v 1.000000 -0.000000 1.000000
v 1.000000 1.000000 0.000000
v 0.166667 1.000000 0.166667
v -0.000000 1.000000 1.000000
v -0.166666 -0.166666 -0.000001
v -0.166666 -0.166666 -1.000001
v -1.000000 0.000000 -0.000001
v -0.999999 0.000001 -1.000001
v -0.166667 -0.166667 0.999999
v -1.000001 -0.000000 0.999999
v 0.000000 -1.000000 -0.000001
v 0.000001 -1.000000 -1.000001
v -0.000000 -1.000000 0.999999
v 0.531636 0.180942 0.180941
v 0.180941 0.180941 0.531636
v 0.520833 0.020833 1.000000
v 1.000000 0.020833 0.520834
v 1.000000 0.520834 0.020834
v 0.520834 1.000000 0.020834
v 0.020833 1.000000 0.520833
v 0.180941 0.531636 0.180941
v 0.020833 0.520833 1.000000
v -0.520833 -0.020833 -0.000001
v -0.166666 -0.166666 -0.500001
v -0.520832 -0.020833 -1.000001
v -1.000000 0.000000 -0.500001
v -0.020834 -0.520833 0.999999
v -0.520834 -0.020833 0.999999
v -0.166667 -0.166667 0.499999
v -1.000000 0.000000 0.499999
v 0.000001 -1.000000 -0.500001
v -0.000000 -1.000000 0.499999
v -0.020833 -0.520833 -0.000001
v -0.020832 -0.520833 -1.000001
v 0.523534 0.040895 0.523534
v 0.523534 0.523534 0.040895
v 0.040895 0.523534 0.523534
v -0.520833 -0.020833 -0.500001
v -0.020833 -0.520833 -0.500001
v -0.020833 -0.520833 0.499999
v -0.520833 -0.020833 0.499999
vt 0.250000 0.250000
vt 0.531636 0.167052
vt 0.520062 0.520062
vt 0.167052 0.531636
vt 1.000000 0.000000
vt 1.000000 0.500000
vt 1.000000 1.000000
vt 0.500000 1.000000
vt 0.000000 1.000000
vt 0.033951 0.520062
vt 0.167052 0.167052
vt 0.000000 1.000000
vt 0.000000 1.000000
vt 0.000000 0.500000
vt 0.000000 0.000000
vt 0.520062 0.033951
vt 1.000000 0.000000
vt 0.500000 0.000000
vt 1.000000 0.000000
vt 0.166667 0.166667
vt 0.520833 0.152778
vt 0.517361 0.517361
vt 0.152778 0.520833
vt 1.000000 0.000000
vt 1.000000 0.500000
vt 1.000000 1.000000
vt 0.500000 1.000000
vt 0.000000 1.000000
vt 0.517361 0.017361
vt 1.000000 0.000000
vt 0.152778 0.020833
vt 0.000000 0.000000
vt 0.500000 0.000000
vt 1.000000 0.000000
vt 0.020833 0.152778
vt 0.017361 0.017361
vt 0.000000 0.000000
vt 0.000000 0.000000
vt 0.000000 0.000000
vt 0.000000 0.000000
vt 0.017361 0.517361
vt 0.000000 1.000000
vt 0.000000 1.000000
vt 0.000000 0.500000
vn 0.5773 0.5773 0.5773
vn 0.6933 0.6933 0.1968
vn 0.2026 0.9580 0.2026
vn 0.1968 0.6933 0.6933
vn 0.7064 0.7064 0.0438
vn 0.2141 0.9759 0.0422
vn 0.0428 0.9981 0.0428
vn 0.0422 0.9759 0.2141
vn 0.0438 0.7064 0.7064
vn 0.2026 0.2026 0.9580
vn 0.6933 0.1968 0.6933
vn 0.0422 0.2141 0.9759
vn 0.0428 0.0428 0.9981
vn 0.2141 0.0422 0.9759
vn 0.7064 0.0438 0.7064
vn 0.9580 0.2026 0.2026
vn 0.9759 0.2141 0.0422
vn 0.9759 0.0422 0.2141
vn 0.9981 0.0428 0.0428
vn 0.7071 0.7071 0.0000
vn 0.2153 0.9765 0.0000
vn 0.0434 0.9991 0.0000
vn 0.9765 0.2153 0.0000
vn 0.9991 0.0434 0.0000
s 1
f 1/1/1 18/2/2 38/3/3 17/4/4
f 18/2/2 2/5/5 19/6/6 38/3/3
f 38/3/3 19/6/6 4/7/7 20/8/8
f 17/4/4 38/3/3 20/8/8 3/9/9
f 1/1/1 17/4/4 39/10/10 24/11/11
f 17/4/4 3/9/9 21/12/12 39/10/10
f 39/10/10 21/12/12 5/13/13 22/14/14
f 24/11/11 39/10/10 22/14/14 6/15/15
f 2/5/5 18/2/2 40/16/16 25/17/17
f 18/2/2 1/1/1 24/11/11 40/16/16
f 40/16/16 24/11/11 6/15/15 23/18/18
f 25/17/17 40/16/16 23/18/18 7/19/19
f 8/20/20 27/21/20 41/22/21 26/23/21
f 27/21/20 9/24/20 28/25/21 41/22/21
f 41/22/21 28/25/21 11/26/22 29/27/22
f 26/23/21 41/22/21 29/27/22 10/28/22
f 9/24/20 27/21/20 42/29/23 37/30/23
f 27/21/20 8/20/20 36/31/23 42/29/23
f 42/29/23 36/31/23 14/32/24 34/33/24
f 37/30/23 42/29/23 34/33/24 15/34/24
f 8/20/20 32/35/20 43/36/23 36/31/23
f 32/35/20 12/37/20 30/38/23 43/36/23
f 43/36/23 30/38/23 16/39/24 35/40/24
f 36/31/23 43/36/23 35/40/24 14/32/24
f 8/20/20 26/23/21 44/41/21 32/35/20
f 26/23/21 10/28/22 33/42/22 44/41/21
f 44/41/21 33/42/22 13/43/22 31/44/21
f 32/35/20 44/41/21 31/44/21 12/37/20
