# Blender v3.0.0 OBJ File: 'box_experiment.blend'
# www.blender.org
o 5
v -0.000000 0.000000 0.000000
v 1.000000 0.000000 0.000000
v -0.000000 0.000000 -1.000000
v 1.000000 0.000000 -1.000000
v -0.000000 0.000000 1.000000
v 1.000000 0.000000 1.000000
v -1.000000 0.000000 0.000000
v -1.000000 0.000000 -1.000000
v -1.000000 0.000000 1.000000
v -0.000000 0.000000 -0.500000
v 0.500000 0.000000 0.000000
v 1.000000 0.000000 -0.500000
v 0.500000 0.000000 -1.000000
v 0.500000 0.000000 1.000000
v -0.000000 0.000000 0.500000
v 1.000000 0.000000 0.500000
v -1.000000 0.000000 -0.500000
v -1.000000 0.000000 0.500000
v -0.500000 0.000000 0.000000
v -0.500000 0.000000 1.000000
v -0.500000 0.000000 -1.000000
v 0.500000 0.000000 -0.500000
v 0.500000 0.000000 0.500000
v -0.500000 0.000000 0.500000
v -0.500000 0.000000 -0.500000
vt 0.166667 0.166667
vt 0.520833 0.152778
vt 0.517361 0.517361
vt 0.152778 0.520833
vt 1.000000 0.000000
vt 1.000000 0.500000
vt 1.000000 1.000000
vt 0.500000 1.000000
vt 0.000000 1.000000
vt 0.517361 0.017361
vt 1.000000 0.000000
vt 0.152778 0.020833
vt 0.000000 0.000000
vt 0.500000 0.000000
vt 1.000000 0.000000
vt 0.017361 0.017361
vt 0.000000 0.000000
vt 0.020833 0.152778
vt 0.000000 0.000000
vt 0.000000 0.000000
vt 0.000000 0.000000
vt 0.017361 0.517361
vt 0.000000 1.000000
vt 0.000000 1.000000
vt 0.000000 0.500000
vn 0.0000 1.0000 0.0000
s 1
f 1/1/1 11/2/1 22/3/1 10/4/1
f 11/2/1 2/5/1 12/6/1 22/3/1
f 22/3/1 12/6/1 4/7/1 13/8/1
f 10/4/1 22/3/1 13/8/1 3/9/1
f 2/5/1 11/2/1 23/10/1 16/11/1
f 11/2/1 1/1/1 15/12/1 23/10/1
f 23/10/1 15/12/1 5/13/1 14/14/1
f 16/11/1 23/10/1 14/14/1 6/15/1
f 5/13/1 15/12/1 24/16/1 20/17/1
f 15/12/1 1/1/1 19/18/1 24/16/1
f 24/16/1 19/18/1 7/19/1 18/20/1
f 20/17/1 24/16/1 18/20/1 9/21/1
f 1/1/1 10/4/1 25/22/1 19/18/1
f 10/4/1 3/9/1 21/23/1 25/22/1
f 25/22/1 21/23/1 8/24/1 17/25/1
f 19/18/1 25/22/1 17/25/1 7/19/1
