# Blender v3.0.0 OBJ File: 'box_experiment.blend'
# www.blender.org
o 6
v -0.250001 -0.250000 -0.250000
v -0.166666 -1.000000 -0.166667
v -0.166667 -0.166667 -1.000000
v 0.000001 -1.000000 -1.000000
v -1.000001 -0.000001 -1.000001
v -1.000001 -0.166668 -0.166667
v -1.000000 -1.000001 -0.000001
v 0.119999 0.000001 -0.000000
v 0.166667 -0.999999 0.166667
v -0.000002 0.000001 1.000000
v -0.000000 -0.999999 1.000000
v 0.166666 0.166667 -1.000000
v -0.000003 1.000000 -0.000001
v -0.000004 1.000001 1.000000
v -0.000002 1.000000 -1.000001
v 0.999999 -0.166665 -0.166666
v 1.000000 -0.999998 0.000001
v 1.000000 0.000002 -1.000000
v -0.180942 -0.180941 -0.531636
v -0.180942 -0.531636 -0.180941
v -0.020833 -1.000000 -0.520833
v -0.020833 -0.520833 -1.000000
v -0.520834 -0.020834 -1.000000
v -1.000001 -0.020835 -0.520834
v -1.000000 -0.520835 -0.020834
v -0.531637 -0.180942 -0.180942
v -0.520833 -1.000001 -0.020834
v 0.012360 0.000001 0.503472
v 0.161666 -0.503472 0.149306
v 0.020834 -1.000000 0.520834
v -0.000001 -0.499999 1.000000
v 0.161665 0.149306 -0.503472
v -0.000003 1.000001 0.500000
v -0.000003 1.000000 -0.500001
v 0.012359 0.503473 -0.000000
v 0.020832 0.520833 -1.000000
v -0.000003 0.500001 1.000000
v 1.000000 -0.520831 -0.020833
v 0.999999 -0.020831 -0.520833
v 0.515833 -0.149304 -0.149305
v 0.520834 -0.999999 0.020834
v 0.520833 0.020834 -1.000000
v -0.040895 -0.523534 -0.523534
v -0.523535 -0.040896 -0.523534
v -0.523534 -0.523535 -0.040895
v 0.019583 -0.499999 0.517361
v 0.519583 -0.517360 0.000000
v 0.019581 0.517361 -0.500000
v 0.002220 0.500001 0.500000
v 0.519582 0.000001 -0.517361
vt 0.250000 0.250000
vt 0.167052 0.531636
vt 0.520062 0.520062
vt 0.531636 0.167052
vt 1.000000 0.500000
vt 1.000000 0.000000
vt 0.500000 1.000000
vt 1.000000 1.000000
vt 0.000000 1.000000
vt 0.167052 0.167052
vt 0.033951 0.520062
vt 0.000000 1.000000
vt 0.000000 0.500000
vt 0.000000 1.000000
vt 0.000000 0.000000
vt 1.000000 0.000000
vt 0.520062 0.033951
vt 0.500000 0.000000
vt 1.000000 0.000000
vt 0.120000 0.120000
vt 0.147778 0.515833
vt 0.516111 0.516111
vt 0.515833 0.147778
vt 1.000000 0.500000
vt 1.000000 0.000000
vt 0.500000 1.000000
vt 1.000000 1.000000
vt 0.000000 1.000000
vt 1.000000 0.000000
vt 0.516111 0.016111
vt 0.147778 0.012361
vt 0.500000 0.000000
vt 0.000000 0.000000
vt 1.000000 0.000000
vt 0.000000 0.000000
vt 0.000000 0.000000
vt 0.002222 0.016111
vt 0.012361 0.012361
vt 0.012361 0.147778
vt 0.000000 0.000000
vt 0.000000 0.000000
vt 0.000000 0.000000
vt 0.016111 0.516111
vt 0.000000 1.000000
vt 0.000000 0.500000
vt 0.000000 1.000000
vt 0.016111 0.002222
vt 0.000000 0.000000
vt 0.000000 0.000000
vt 0.000000 0.000000
vn -0.5773 -0.5773 -0.5773
vn -0.6933 -0.6933 -0.1968
vn -0.9580 -0.2026 -0.2026
vn -0.6933 -0.1968 -0.6933
vn -0.9759 -0.0422 -0.2141
vn -0.7064 -0.0438 -0.7064
vn -0.9759 -0.2141 -0.0422
vn -0.9981 -0.0428 -0.0428
vn -0.7064 -0.7064 -0.0438
vn -0.1968 -0.6933 -0.6933
vn -0.2026 -0.9580 -0.2026
vn -0.2141 -0.9759 -0.0422
vn -0.0422 -0.9759 -0.2141
vn -0.0428 -0.9981 -0.0428
vn -0.0438 -0.7064 -0.7064
vn -0.2141 -0.0422 -0.9759
vn -0.2026 -0.2026 -0.9580
vn -0.0422 -0.2141 -0.9759
vn -0.0428 -0.0428 -0.9981
vn 0.8569 0.3644 0.3644
vn 0.9922 0.0569 0.1109
vn 0.9830 0.0286 0.1811
vn 0.7476 0.1256 0.6521
vn 0.9780 0.0075 0.2084
vn 0.7150 0.0281 0.6985
vn 0.9993 0.0045 0.0373
vn 0.9991 0.0014 0.0420
vn 0.9997 0.0089 0.0236
vn 0.2174 0.0415 0.9752
vn 0.2303 0.2011 0.9521
vn 0.2638 0.6821 0.6821
vn 0.0448 0.2141 0.9758
vn 0.0485 0.7063 0.7063
vn 0.0435 0.0433 0.9981
vn 0.7150 0.6985 0.0281
vn 0.9780 0.2084 0.0075
vn 0.9830 0.1811 0.0286
vn 0.7476 0.6521 0.1256
vn 0.9922 0.1109 0.0569
vn 0.9993 0.0373 0.0045
vn 0.9997 0.0236 0.0089
vn 0.9991 0.0420 0.0014
vn 0.9987 0.0361 0.0361
vn 0.9999 0.0062 0.0084
vn 0.9999 0.0084 0.0062
vn 1.0000 0.0022 0.0022
vn 0.2303 0.9521 0.2011
vn 0.2174 0.9752 0.0415
vn 0.0448 0.9758 0.2141
vn 0.0435 0.9981 0.0433
s 1
f 1/1/1 19/2/2 43/3/3 20/4/4
f 20/4/4 43/3/3 21/5/5 2/6/6
f 43/3/3 22/7/7 4/8/8 21/5/5
f 19/2/2 3/9/9 22/7/7 43/3/3
f 1/1/1 26/10/10 44/11/11 19/2/2
f 19/2/2 44/11/11 23/12/12 3/9/9
f 44/11/11 24/13/13 5/14/14 23/12/12
f 26/10/10 6/15/15 24/13/13 44/11/11
f 2/6/6 27/16/16 45/17/17 20/4/4
f 20/4/4 45/17/17 26/10/10 1/1/1
f 45/17/17 25/18/18 6/15/15 26/10/10
f 27/16/16 7/19/19 25/18/18 45/17/17
f 8/20/20 28/21/21 46/22/22 29/23/23
f 29/23/23 46/22/22 30/24/24 9/25/25
f 46/22/22 31/26/26 11/27/27 30/24/24
f 28/21/21 10/28/28 31/26/26 46/22/22
f 9/25/25 41/29/29 47/30/30 29/23/23
f 29/23/23 47/30/30 40/31/31 8/20/20
f 47/30/30 38/32/32 16/33/33 40/31/31
f 41/29/29 17/34/34 38/32/32 47/30/30
f 12/35/35 36/36/36 48/37/37 32/38/38
f 32/38/38 48/37/37 35/39/39 8/20/20
f 48/37/37 34/40/40 13/41/41 35/39/39
f 36/36/36 15/42/42 34/40/40 48/37/37
f 8/20/20 35/39/39 49/43/43 28/21/21
f 28/21/21 49/43/43 37/44/44 10/28/28
f 49/43/43 33/45/45 14/46/46 37/44/44
f 35/39/39 13/41/41 33/45/45 49/43/43
f 8/20/20 40/31/31 50/47/47 32/38/38
f 32/38/38 50/47/47 42/48/48 12/35/35
f 50/47/47 39/49/49 18/50/50 42/48/48
f 40/31/31 16/33/33 39/49/49 50/47/47
