# Blender v3.0.0 OBJ File: 'box_experiment.blend'
# www.blender.org
o 9
v -0.000000 0.000000 0.000000
v 1.000000 0.166667 0.166667
v -0.000000 0.000000 -1.000000
v -0.000000 0.000000 1.000000
v 1.000000 0.000000 1.000000
v -1.000000 -0.166667 0.166667
v -1.000000 0.000000 1.000000
v -0.000000 -1.000000 -1.000000
v -0.166667 -1.000000 -0.166667
v -1.000000 -1.000000 0.000000
v -0.000000 1.000000 -1.000000
v 0.166667 1.000000 -0.166667
v 1.000000 1.000000 0.000000
v -0.000000 -0.000000 -0.506944
v 0.503472 0.152778 0.149306
v 0.500000 0.000000 1.000000
v -0.000000 0.000000 0.506945
v 1.000000 0.020833 0.520833
v -1.000000 -0.020833 0.520833
v -0.503472 -0.152778 0.149306
v -0.500000 0.000000 1.000000
v -0.020833 -1.000000 -0.520833
v -0.520833 -1.000000 -0.020833
v -0.000000 -0.500000 -1.000000
v -0.152778 -0.503472 -0.149305
v -1.000000 -0.520833 0.020833
v 0.020833 1.000000 -0.520833
v 0.520833 1.000000 -0.020833
v 1.000000 0.520833 0.020833
v 0.152778 0.503472 -0.149306
v -0.000000 0.500000 -1.000000
v 0.500000 0.017361 0.517361
v -0.500000 -0.017361 0.517361
v -0.017361 -0.500000 -0.517361
v -0.517361 -0.517361 0.000000
v 0.017361 0.500000 -0.517361
v 0.517361 0.517361 0.000000
vt 1.000000 0.000000
vt 0.513117 0.009645
vt 0.515432 0.001543
vt 1.000000 0.000000
vt 0.090909 0.090909
vt 0.145062 0.006173
vt 0.000000 0.000000
vt 0.500000 0.000000
vt 1.000000 0.000000
vt 0.015432 0.001543
vt 0.000000 0.000000
vt 0.009645 0.009645
vt 0.000000 0.000000
vt 0.000000 0.000000
vt 0.000000 0.000000
vt 0.009645 0.513117
vt 0.001543 0.515432
vt 0.006173 0.145062
vt 0.000000 1.000000
vt 0.000000 1.000000
vt 0.000000 1.000000
vt 0.000000 0.500000
vt 0.000000 0.000000
vt 0.001543 0.015432
vt 0.000000 0.000000
vt 0.000000 0.000000
vt 0.000000 0.000000
vt 0.015432 0.515432
vt 0.000000 1.000000
vt 0.145062 0.145062
vt 0.000000 0.000000
vt 0.000000 0.500000
vt 0.000000 1.000000
vt 0.515432 0.015432
vt 1.000000 0.000000
vt 1.000000 0.000000
vt 0.500000 0.000000
vn -0.0362 0.7143 0.6988
vn -0.1833 0.7452 0.6411
vn -0.0591 0.9878 0.1438
vn -0.0139 0.9790 0.2034
vn -0.7071 0.7071 0.0000
vn -0.1051 0.9944 0.0000
vn -0.0175 0.9998 0.0000
vn -0.0106 0.9995 0.0287
vn -0.0036 0.9992 0.0397
vn -0.0591 0.9878 -0.1438
vn -0.0106 0.9995 -0.0287
vn -0.1833 0.7452 -0.6411
vn -0.0362 0.7143 -0.6988
vn -0.0139 0.9790 -0.2034
vn -0.0036 0.9992 -0.0397
vn -0.9944 0.1051 0.0000
vn -0.9878 0.0591 -0.1438
vn -0.7452 0.1833 -0.6411
vn -0.9998 0.0175 0.0000
vn -0.9995 0.0106 -0.0287
vn -0.9992 0.0036 -0.0397
vn -0.9790 0.0139 -0.2034
vn -0.7143 0.0362 -0.6988
vn -0.2163 0.2163 -0.9521
vn -0.0437 0.2152 -0.9756
vn -0.2152 0.0437 -0.9756
vn -0.0434 0.0434 -0.9981
vn -0.9878 0.0591 0.1438
vn -0.9995 0.0106 0.0287
vn -0.7452 0.1833 0.6411
vn -0.7143 0.0362 0.6988
vn -0.9790 0.0139 0.2034
vn -0.9992 0.0036 0.0397
vn -0.2163 0.2163 0.9521
vn -0.0437 0.2152 0.9756
vn -0.0434 0.0434 0.9981
vn -0.2152 0.0437 0.9756
s 1
f 2/1/1 15/2/2 32/3/3 18/4/4
f 15/2/2 1/5/5 17/6/6 32/3/3
f 32/3/3 17/6/6 4/7/7 16/8/8
f 18/4/4 32/3/3 16/8/8 5/9/9
f 4/7/7 17/6/6 33/10/10 21/11/11
f 17/6/6 1/5/5 20/12/12 33/10/10
f 33/10/10 20/12/12 6/13/13 19/14/14
f 21/11/11 33/10/10 19/14/14 7/15/15
f 1/5/5 14/16/16 34/17/17 25/18/18
f 14/16/16 3/19/19 24/20/20 34/17/17
f 34/17/17 24/20/20 8/21/21 22/22/22
f 25/18/18 34/17/17 22/22/22 9/23/23
f 6/13/13 20/12/12 35/24/24 26/25/25
f 20/12/12 1/5/5 25/18/18 35/24/24
f 35/24/24 25/18/18 9/23/23 23/26/26
f 26/25/25 35/24/24 23/26/26 10/27/27
f 3/19/19 14/16/16 36/28/28 31/29/29
f 14/16/16 1/5/5 30/30/30 36/28/28
f 36/28/28 30/30/30 12/31/31 27/32/32
f 31/29/29 36/28/28 27/32/32 11/33/33
f 1/5/5 15/2/2 37/34/34 30/30/30
f 15/2/2 2/1/1 29/35/35 37/34/34
f 37/34/34 29/35/35 13/36/36 28/37/37
f 30/30/30 37/34/34 28/37/37 12/31/31
