# Blender v3.0.0 OBJ File: 'box_experiment.blend'
# www.blender.org
o 1
v 0.250000 0.250000 0.250000
v 1.000000 0.166667 0.166667
v 0.166666 0.166666 1.000000
v 1.000000 -0.000000 1.000000
v -0.000000 1.000000 1.000000
v 0.166667 1.000000 0.166667
v 1.000000 1.000000 0.000000
v 0.166890 0.166890 0.875494
v 0.168451 0.168451 0.753954
v 0.172689 0.172689 0.638346
v 0.180941 0.180941 0.531636
v 0.194160 0.194160 0.436646
v 0.211749 0.211749 0.355629
v 0.232218 0.232218 0.291069
v 0.291070 0.232218 0.232218
v 0.355630 0.211749 0.211749
v 0.436646 0.194160 0.194160
v 0.531636 0.180941 0.180941
v 0.638346 0.172689 0.172689
v 0.753955 0.168451 0.168451
v 0.875494 0.166890 0.166890
v 1.000000 0.111654 0.236654
v 1.000000 0.070313 0.320313
v 1.000000 0.040690 0.415690
v 1.000000 0.020833 0.520834
v 1.000000 0.008789 0.633789
v 1.000000 0.002604 0.752604
v 1.000000 0.000325 0.875326
v 0.875325 0.000325 1.000000
v 0.752604 0.002604 1.000000
v 0.633789 0.008789 1.000000
v 0.520833 0.020833 1.000000
v 0.415690 0.040690 1.000000
v 0.320312 0.070312 1.000000
v 0.236653 0.111653 1.000000
v 0.000325 0.875325 1.000000
v 0.002604 0.752604 1.000000
v 0.008789 0.633789 1.000000
v 0.020833 0.520833 1.000000
v 0.040690 0.415690 1.000000
v 0.070312 0.320312 1.000000
v 0.111653 0.236653 1.000000
v 0.000325 1.000000 0.875326
v 0.002604 1.000000 0.752604
v 0.008789 1.000000 0.633789
v 0.020833 1.000000 0.520833
v 0.040690 1.000000 0.415690
v 0.070312 1.000000 0.320313
v 0.111654 1.000000 0.236654
v 0.236654 1.000000 0.111654
v 0.320313 1.000000 0.070313
v 0.415690 1.000000 0.040690
v 0.520833 1.000000 0.020834
v 0.633789 1.000000 0.008789
v 0.752604 1.000000 0.002605
v 0.875326 1.000000 0.000326
v 0.166890 0.875494 0.166890
v 0.168451 0.753955 0.168451
v 0.172689 0.638346 0.172689
v 0.180941 0.531636 0.180941
v 0.194160 0.436646 0.194160
v 0.211749 0.355630 0.211749
v 0.232218 0.291070 0.232218
v 1.000000 0.875326 0.000326
v 1.000000 0.752604 0.002605
v 1.000000 0.633789 0.008789
v 1.000000 0.520833 0.020834
v 1.000000 0.415690 0.040690
v 1.000000 0.320313 0.070313
v 1.000000 0.236654 0.111654
v 0.284424 0.194253 0.284424
v 0.352230 0.165584 0.271378
v 0.434864 0.143715 0.258422
v 0.530750 0.128189 0.248035
v 0.637973 0.118629 0.241455
v 0.753844 0.113721 0.238076
v 0.875481 0.111912 0.236832
v 0.271378 0.165584 0.352230
v 0.344514 0.130972 0.344514
v 0.430604 0.105735 0.335891
v 0.528598 0.088493 0.328511
v 0.637065 0.077983 0.323771
v 0.753575 0.072585 0.321337
v 0.875447 0.070597 0.320441
v 0.258422 0.143715 0.434864
v 0.335891 0.105734 0.430604
v 0.425456 0.078405 0.425456
v 0.525939 0.060010 0.420850
v 0.635943 0.048841 0.417867
v 0.753242 0.043105 0.416335
v 0.875405 0.040992 0.415771
v 0.248035 0.128189 0.530750
v 0.328511 0.088493 0.528598
v 0.420850 0.060010 0.525939
v 0.523534 0.040895 0.523534
v 0.634928 0.029297 0.521973
v 0.752942 0.023341 0.521171
v 0.875368 0.021147 0.520876
v 0.241455 0.118629 0.637972
v 0.323771 0.077983 0.637065
v 0.417867 0.048841 0.635943
v 0.521973 0.029297 0.634928
v 0.634270 0.017441 0.634270
v 0.752747 0.011352 0.633932
v 0.875343 0.009109 0.633807
v 0.238076 0.113720 0.753844
v 0.321337 0.072585 0.753575
v 0.416335 0.043105 0.753242
v 0.521171 0.023341 0.752942
v 0.633931 0.011352 0.752747
v 0.752646 0.005196 0.752646
v 0.875331 0.002928 0.752610
v 0.236831 0.111912 0.875480
v 0.320440 0.070596 0.875447
v 0.415771 0.040992 0.875405
v 0.520875 0.021147 0.875368
v 0.633807 0.009109 0.875343
v 0.752609 0.002928 0.875331
v 0.875326 0.000651 0.875326
v 0.194253 0.284424 0.284424
v 0.165584 0.271378 0.352230
v 0.143715 0.258422 0.434864
v 0.128189 0.248035 0.530750
v 0.118629 0.241455 0.637972
v 0.113720 0.238076 0.753844
v 0.111912 0.236831 0.875480
v 0.165584 0.352230 0.271378
v 0.130972 0.344514 0.344514
v 0.105734 0.335891 0.430604
v 0.088493 0.328511 0.528598
v 0.077982 0.323771 0.637065
v 0.072585 0.321337 0.753575
v 0.070596 0.320441 0.875447
v 0.143715 0.434864 0.258422
v 0.105734 0.430604 0.335891
v 0.078405 0.425456 0.425456
v 0.060010 0.420850 0.525939
v 0.048841 0.417867 0.635943
v 0.043105 0.416335 0.753242
v 0.040992 0.415771 0.875405
v 0.128189 0.530750 0.248035
v 0.088493 0.528598 0.328511
v 0.060010 0.525939 0.420850
v 0.040895 0.523534 0.523534
v 0.029297 0.521973 0.634928
v 0.023341 0.521171 0.752942
v 0.021147 0.520875 0.875368
v 0.118630 0.637973 0.241455
v 0.077983 0.637065 0.323771
v 0.048841 0.635943 0.417867
v 0.029297 0.634928 0.521973
v 0.017441 0.634270 0.634270
v 0.011352 0.633931 0.752747
v 0.009109 0.633807 0.875343
v 0.113721 0.753844 0.238076
v 0.072585 0.753575 0.321337
v 0.043105 0.753242 0.416335
v 0.023341 0.752942 0.521171
v 0.011352 0.752747 0.633932
v 0.005196 0.752646 0.752646
v 0.002928 0.752609 0.875331
v 0.111912 0.875481 0.236832
v 0.070597 0.875447 0.320441
v 0.040992 0.875405 0.415771
v 0.021147 0.875368 0.520876
v 0.009109 0.875343 0.633807
v 0.002928 0.875331 0.752610
v 0.000651 0.875326 0.875326
v 0.875481 0.236832 0.111912
v 0.753844 0.238076 0.113721
v 0.637973 0.241455 0.118630
v 0.530750 0.248035 0.128189
v 0.434864 0.258422 0.143715
v 0.352230 0.271379 0.165584
v 0.284424 0.284424 0.194253
v 0.875447 0.320441 0.070597
v 0.753575 0.321337 0.072585
v 0.637065 0.323771 0.077983
v 0.528598 0.328511 0.088494
v 0.430604 0.335891 0.105735
v 0.344514 0.344514 0.130972
v 0.271378 0.352230 0.165584
v 0.875406 0.415771 0.040992
v 0.753243 0.416335 0.043105
v 0.635943 0.417867 0.048841
v 0.525939 0.420850 0.060010
v 0.425456 0.425456 0.078405
v 0.335891 0.430604 0.105735
v 0.258422 0.434864 0.143715
v 0.875368 0.520876 0.021147
v 0.752942 0.521171 0.023341
v 0.634929 0.521973 0.029297
v 0.523534 0.523534 0.040895
v 0.420850 0.525939 0.060010
v 0.328511 0.528598 0.088494
v 0.248035 0.530750 0.128189
v 0.875344 0.633807 0.009110
v 0.752747 0.633932 0.011353
v 0.634270 0.634270 0.017441
v 0.521973 0.634929 0.029297
v 0.417867 0.635943 0.048841
v 0.323771 0.637065 0.077983
v 0.241455 0.637973 0.118630
v 0.875331 0.752610 0.002929
v 0.752647 0.752647 0.005197
v 0.633932 0.752747 0.011353
v 0.521171 0.752942 0.023341
v 0.416335 0.753242 0.043105
v 0.321337 0.753575 0.072585
v 0.238076 0.753844 0.113721
v 0.875326 0.875326 0.000651
v 0.752610 0.875331 0.002929
v 0.633807 0.875344 0.009110
v 0.520876 0.875368 0.021147
v 0.415771 0.875405 0.040992
v 0.320441 0.875447 0.070597
v 0.236832 0.875481 0.111912
vt 0.284225 0.284225
vt 0.269785 0.352074
vt 0.343266 0.343266
vt 0.352074 0.269785
vt 0.429784 0.331680
vt 0.434762 0.253043
vt 0.528164 0.318528
vt 0.530695 0.235285
vt 0.636882 0.304369
vt 0.637950 0.216328
vt 0.753520 0.288405
vt 0.753837 0.193243
vt 0.875440 0.269937
vt 0.875480 0.162793
vt 0.253043 0.434762
vt 0.331680 0.429784
vt 0.422686 0.422686
vt 0.524474 0.414286
vt 0.635325 0.405223
vt 0.753059 0.395604
vt 0.875382 0.385449
vt 0.235285 0.530695
vt 0.318528 0.528164
vt 0.414286 0.524474
vt 0.520062 0.520062
vt 0.633464 0.515299
vt 0.752508 0.510320
vt 0.875314 0.505196
vt 0.216328 0.637950
vt 0.304369 0.636882
vt 0.405223 0.635325
vt 0.515299 0.633464
vt 0.631454 0.631454
vt 0.751912 0.629354
vt 0.875239 0.627192
vt 0.193243 0.753837
vt 0.288405 0.753521
vt 0.395604 0.753059
vt 0.510320 0.752508
vt 0.629354 0.751913
vt 0.751290 0.751290
vt 0.875161 0.750650
vt 0.162793 0.875480
vt 0.269937 0.875440
vt 0.385449 0.875382
vt 0.505196 0.875314
vt 0.627192 0.875239
vt 0.750650 0.875161
vt 0.875081 0.875081
vt 0.250000 0.250000
vt 0.232001 0.291070
vt 0.291070 0.232001
vt 0.355630 0.210013
vt 0.436646 0.188301
vt 0.531636 0.167052
vt 0.638346 0.145128
vt 0.753955 0.118104
vt 0.875494 0.078999
vt 1.000000 0.125000
vt 1.000000 0.000000
vt 1.000000 0.250000
vt 1.000000 0.375000
vt 1.000000 0.500000
vt 1.000000 0.625000
vt 1.000000 0.750000
vt 1.000000 0.875000
vt 0.875000 1.000000
vt 1.000000 1.000000
vt 0.750000 1.000000
vt 0.625000 1.000000
vt 0.500000 1.000000
vt 0.375000 1.000000
vt 0.250000 1.000000
vt 0.125000 1.000000
vt 0.078999 0.875494
vt 0.000000 1.000000
vt 0.118104 0.753955
vt 0.145128 0.638346
vt 0.167052 0.531636
vt 0.188301 0.436646
vt 0.210013 0.355630
vt 0.193855 0.284225
vt 0.163834 0.269785
vt 0.128476 0.343266
vt 0.163834 0.352074
vt 0.100702 0.429784
vt 0.138233 0.434762
vt 0.078077 0.528164
vt 0.115385 0.530695
vt 0.058397 0.636882
vt 0.093480 0.637950
vt 0.039599 0.753520
vt 0.068880 0.753837
vt 0.020087 0.875440
vt 0.037873 0.875480
vt 0.138233 0.253043
vt 0.100702 0.331680
vt 0.072866 0.422686
vt 0.051981 0.524474
vt 0.035579 0.635325
vt 0.022190 0.753059
vt 0.010647 0.875382
vt 0.115385 0.235285
vt 0.078077 0.318528
vt 0.051981 0.414286
vt 0.033951 0.520062
vt 0.021159 0.633464
vt 0.012056 0.752508
vt 0.005413 0.875314
vt 0.093480 0.216328
vt 0.058397 0.304369
vt 0.035579 0.405223
vt 0.021159 0.515299
vt 0.011810 0.631454
vt 0.005941 0.751912
vt 0.002391 0.875239
vt 0.068880 0.193243
vt 0.039599 0.288405
vt 0.022190 0.395604
vt 0.012056 0.510320
vt 0.005941 0.629354
vt 0.002484 0.751290
vt 0.000799 0.875161
vt 0.037873 0.162793
vt 0.020087 0.269937
vt 0.010647 0.385449
vt 0.005413 0.505196
vt 0.002391 0.627192
vt 0.000799 0.750650
vt 0.000161 0.875081
vt 0.232001 0.232001
vt 0.000000 1.000000
vt 0.000000 1.000000
vt 0.000000 1.000000
vt 0.000000 1.000000
vt 0.000000 1.000000
vt 0.000000 1.000000
vt 0.000000 1.000000
vt 0.000000 0.875000
vt 0.000000 1.000000
vt 0.000000 0.750000
vt 0.000000 0.625000
vt 0.000000 0.500000
vt 0.000000 0.375000
vt 0.000000 0.250000
vt 0.000000 0.125000
vt 0.078999 0.078999
vt 0.000000 0.000000
vt 0.118104 0.118104
vt 0.145128 0.145128
vt 0.167052 0.167052
vt 0.188301 0.188301
vt 0.210013 0.210013
vt 0.875480 0.037873
vt 0.875440 0.020087
vt 0.753520 0.039599
vt 0.753837 0.068880
vt 0.636881 0.058397
vt 0.637950 0.093480
vt 0.528164 0.078077
vt 0.530695 0.115385
vt 0.429784 0.100702
vt 0.434762 0.138233
vt 0.343266 0.128476
vt 0.352074 0.163834
vt 0.269785 0.163834
vt 0.284225 0.193855
vt 0.875382 0.010647
vt 0.753059 0.022190
vt 0.635325 0.035579
vt 0.524474 0.051981
vt 0.422686 0.072866
vt 0.331680 0.100702
vt 0.253043 0.138233
vt 0.875314 0.005413
vt 0.752508 0.012056
vt 0.633464 0.021159
vt 0.520062 0.033951
vt 0.414286 0.051981
vt 0.318528 0.078077
vt 0.235285 0.115385
vt 0.875239 0.002391
vt 0.751913 0.005941
vt 0.631455 0.011810
vt 0.515300 0.021159
vt 0.405223 0.035579
vt 0.304369 0.058397
vt 0.216328 0.093480
vt 0.875161 0.000799
vt 0.751290 0.002484
vt 0.629354 0.005941
vt 0.510320 0.012056
vt 0.395604 0.022190
vt 0.288405 0.039599
vt 0.193243 0.068880
vt 0.875081 0.000161
vt 0.750650 0.000799
vt 0.627192 0.002391
vt 0.505196 0.005413
vt 0.385449 0.010647
vt 0.269937 0.020087
vt 0.162793 0.037873
vt 1.000000 0.000000
vt 0.125000 0.000000
vt 0.250000 0.000000
vt 0.375000 0.000000
vt 0.500000 0.000000
vt 0.625000 0.000000
vt 0.750000 0.000000
vt 0.875000 0.000000
vt 1.000000 0.000000
vt 1.000000 0.000000
vt 1.000000 0.000000
vt 1.000000 0.000000
vt 1.000000 0.000000
vt 1.000000 0.000000
vt 1.000000 0.000000
vn 0.4838 0.7292 0.4838
vn 0.5082 0.7851 0.3539
vn 0.3618 0.8592 0.3618
vn 0.3539 0.7851 0.5082
vn 0.2411 0.8983 0.3672
vn 0.2414 0.8177 0.5225
vn 0.1466 0.9176 0.3695
vn 0.1487 0.8351 0.5295
vn 0.0781 0.9256 0.3703
vn 0.0792 0.8429 0.5322
vn 0.0343 0.9281 0.3707
vn 0.0346 0.8453 0.5331
vn 0.0102 0.9286 0.3709
vn 0.0103 0.8458 0.5333
vn 0.5224 0.8177 0.2414
vn 0.3672 0.8983 0.2411
vn 0.2408 0.9402 0.2408
vn 0.1451 0.9597 0.2406
vn 0.0776 0.9675 0.2408
vn 0.0342 0.9699 0.2412
vn 0.0102 0.9704 0.2414
vn 0.5295 0.8351 0.1487
vn 0.3695 0.9176 0.1466
vn 0.2406 0.9597 0.1451
vn 0.1447 0.9788 0.1447
vn 0.0777 0.9864 0.1450
vn 0.0345 0.9887 0.1455
vn 0.0103 0.9892 0.1458
vn 0.5322 0.8429 0.0792
vn 0.3703 0.9256 0.0781
vn 0.2408 0.9675 0.0776
vn 0.1450 0.9864 0.0777
vn 0.0782 0.9938 0.0782
vn 0.0348 0.9963 0.0787
vn 0.0104 0.9968 0.0790
vn 0.5331 0.8453 0.0346
vn 0.3707 0.9281 0.0343
vn 0.2412 0.9699 0.0342
vn 0.1455 0.9887 0.0345
vn 0.0787 0.9963 0.0348
vn 0.0351 0.9987 0.0351
vn 0.0105 0.9993 0.0352
vn 0.5333 0.8458 0.0103
vn 0.3709 0.9286 0.0102
vn 0.2414 0.9704 0.0102
vn 0.1458 0.9892 0.0103
vn 0.0790 0.9968 0.0104
vn 0.0352 0.9993 0.0105
vn 0.0106 0.9999 0.0106
vn 0.5773 0.5773 0.5773
vn 0.6251 0.6251 0.4675
vn 0.4675 0.6251 0.6251
vn 0.3495 0.6625 0.6625
vn 0.2416 0.6861 0.6861
vn 0.1498 0.6991 0.6991
vn 0.0798 0.7048 0.7048
vn 0.0349 0.7067 0.7067
vn 0.0103 0.7071 0.7071
vn 0.0025 0.8459 0.5333
vn 0.0025 0.7071 0.7071
vn 0.0025 0.9286 0.3710
vn 0.0025 0.9704 0.2415
vn 0.0025 0.9893 0.1459
vn 0.0026 0.9969 0.0790
vn 0.0026 0.9994 0.0352
vn 0.0026 0.9999 0.0106
vn 0.0106 0.9999 0.0026
vn 0.0026 1.0000 0.0026
vn 0.0352 0.9994 0.0026
vn 0.0790 0.9969 0.0026
vn 0.1459 0.9893 0.0025
vn 0.2415 0.9704 0.0025
vn 0.3710 0.9286 0.0025
vn 0.5333 0.8459 0.0025
vn 0.7071 0.7071 0.0103
vn 0.7071 0.7071 0.0025
vn 0.7067 0.7067 0.0349
vn 0.7048 0.7048 0.0798
vn 0.6991 0.6991 0.1498
vn 0.6861 0.6861 0.2416
vn 0.6625 0.6625 0.3495
vn 0.7292 0.4838 0.4838
vn 0.7851 0.3539 0.5082
vn 0.8592 0.3618 0.3618
vn 0.7851 0.5082 0.3539
vn 0.8983 0.3672 0.2411
vn 0.8177 0.5224 0.2414
vn 0.9176 0.3695 0.1466
vn 0.8351 0.5295 0.1487
vn 0.9256 0.3703 0.0781
vn 0.8429 0.5322 0.0792
vn 0.9281 0.3707 0.0343
vn 0.8453 0.5331 0.0346
vn 0.9286 0.3709 0.0102
vn 0.8458 0.5333 0.0103
vn 0.8177 0.2414 0.5225
vn 0.8983 0.2411 0.3672
vn 0.9402 0.2408 0.2408
vn 0.9597 0.2406 0.1451
vn 0.9675 0.2408 0.0776
vn 0.9699 0.2412 0.0342
vn 0.9704 0.2414 0.0102
vn 0.8351 0.1487 0.5295
vn 0.9176 0.1466 0.3695
vn 0.9597 0.1451 0.2406
vn 0.9788 0.1447 0.1447
vn 0.9864 0.1450 0.0777
vn 0.9887 0.1455 0.0345
vn 0.9892 0.1458 0.0103
vn 0.8429 0.0792 0.5322
vn 0.9256 0.0781 0.3703
vn 0.9675 0.0776 0.2408
vn 0.9864 0.0777 0.1450
vn 0.9938 0.0782 0.0782
vn 0.9963 0.0787 0.0348
vn 0.9968 0.0790 0.0104
vn 0.8453 0.0346 0.5331
vn 0.9281 0.0343 0.3707
vn 0.9699 0.0342 0.2412
vn 0.9887 0.0345 0.1455
vn 0.9963 0.0348 0.0787
vn 0.9987 0.0351 0.0351
vn 0.9993 0.0352 0.0105
vn 0.8458 0.0103 0.5333
vn 0.9286 0.0102 0.3709
vn 0.9704 0.0102 0.2414
vn 0.9892 0.0103 0.1458
vn 0.9968 0.0104 0.0790
vn 0.9993 0.0105 0.0352
vn 0.9999 0.0106 0.0106
vn 0.6251 0.4675 0.6251
vn 0.8459 0.5333 0.0025
vn 0.9286 0.3710 0.0025
vn 0.9704 0.2415 0.0025
vn 0.9893 0.1459 0.0025
vn 0.9969 0.0790 0.0026
vn 0.9994 0.0352 0.0026
vn 0.9999 0.0106 0.0026
vn 0.9999 0.0026 0.0106
vn 1.0000 0.0026 0.0026
vn 0.9994 0.0026 0.0352
vn 0.9969 0.0026 0.0790
vn 0.9893 0.0025 0.1459
vn 0.9704 0.0025 0.2415
vn 0.9286 0.0025 0.3710
vn 0.8459 0.0025 0.5333
vn 0.7071 0.0103 0.7071
vn 0.7071 0.0025 0.7071
vn 0.7067 0.0349 0.7067
vn 0.7048 0.0798 0.7048
vn 0.6991 0.1498 0.6991
vn 0.6861 0.2416 0.6861
vn 0.6625 0.3495 0.6625
vn 0.0103 0.5333 0.8458
vn 0.0102 0.3709 0.9286
vn 0.0343 0.3707 0.9281
vn 0.0346 0.5331 0.8453
vn 0.0781 0.3703 0.9256
vn 0.0792 0.5322 0.8429
vn 0.1466 0.3695 0.9176
vn 0.1487 0.5295 0.8351
vn 0.2411 0.3672 0.8983
vn 0.2414 0.5224 0.8177
vn 0.3618 0.3618 0.8592
vn 0.3539 0.5082 0.7851
vn 0.5082 0.3539 0.7851
vn 0.4838 0.4838 0.7292
vn 0.0102 0.2414 0.9704
vn 0.0342 0.2412 0.9699
vn 0.0776 0.2408 0.9675
vn 0.1451 0.2406 0.9597
vn 0.2408 0.2408 0.9402
vn 0.3672 0.2411 0.8983
vn 0.5224 0.2414 0.8177
vn 0.0103 0.1458 0.9892
vn 0.0345 0.1455 0.9887
vn 0.0777 0.1450 0.9864
vn 0.1447 0.1447 0.9788
vn 0.2406 0.1451 0.9597
vn 0.3695 0.1466 0.9176
vn 0.5295 0.1487 0.8351
vn 0.0104 0.0790 0.9968
vn 0.0348 0.0787 0.9963
vn 0.0782 0.0782 0.9938
vn 0.1450 0.0777 0.9864
vn 0.2408 0.0776 0.9675
vn 0.3703 0.0781 0.9256
vn 0.5322 0.0792 0.8429
vn 0.0105 0.0352 0.9993
vn 0.0351 0.0351 0.9987
vn 0.0787 0.0348 0.9963
vn 0.1455 0.0345 0.9887
vn 0.2412 0.0342 0.9699
vn 0.3707 0.0343 0.9281
vn 0.5331 0.0346 0.8453
vn 0.0106 0.0106 0.9999
vn 0.0352 0.0105 0.9993
vn 0.0790 0.0104 0.9968
vn 0.1458 0.0103 0.9892
vn 0.2414 0.0102 0.9704
vn 0.3709 0.0102 0.9286
vn 0.5333 0.0103 0.8458
vn 0.0025 0.5333 0.8459
vn 0.5333 0.0025 0.8459
vn 0.3710 0.0025 0.9286
vn 0.2415 0.0025 0.9704
vn 0.1459 0.0025 0.9893
vn 0.0790 0.0026 0.9969
vn 0.0352 0.0026 0.9994
vn 0.0106 0.0026 0.9999
vn 0.0026 0.0106 0.9999
vn 0.0026 0.0026 1.0000
vn 0.0026 0.0352 0.9994
vn 0.0026 0.0790 0.9969
vn 0.0025 0.1459 0.9893
vn 0.0025 0.2415 0.9704
vn 0.0025 0.3710 0.9286
s 1
f 71/1/1 78/2/2 79/3/3 72/4/4
f 72/4/4 79/3/3 80/5/5 73/6/6
f 73/6/6 80/5/5 81/7/7 74/8/8
f 74/8/8 81/7/7 82/9/9 75/10/10
f 75/10/10 82/9/9 83/11/11 76/12/12
f 76/12/12 83/11/11 84/13/13 77/14/14
f 78/2/2 85/15/15 86/16/16 79/3/3
f 79/3/3 86/16/16 87/17/17 80/5/5
f 80/5/5 87/17/17 88/18/18 81/7/7
f 81/7/7 88/18/18 89/19/19 82/9/9
f 82/9/9 89/19/19 90/20/20 83/11/11
f 83/11/11 90/20/20 91/21/21 84/13/13
f 85/15/15 92/22/22 93/23/23 86/16/16
f 86/16/16 93/23/23 94/24/24 87/17/17
f 87/17/17 94/24/24 95/25/25 88/18/18
f 88/18/18 95/25/25 96/26/26 89/19/19
f 89/19/19 96/26/26 97/27/27 90/20/20
f 90/20/20 97/27/27 98/28/28 91/21/21
f 92/22/22 99/29/29 100/30/30 93/23/23
f 93/23/23 100/30/30 101/31/31 94/24/24
f 94/24/24 101/31/31 102/32/32 95/25/25
f 95/25/25 102/32/32 103/33/33 96/26/26
f 96/26/26 103/33/33 104/34/34 97/27/27
f 97/27/27 104/34/34 105/35/35 98/28/28
f 99/29/29 106/36/36 107/37/37 100/30/30
f 100/30/30 107/37/37 108/38/38 101/31/31
f 101/31/31 108/38/38 109/39/39 102/32/32
f 102/32/32 109/39/39 110/40/40 103/33/33
f 103/33/33 110/40/40 111/41/41 104/34/34
f 104/34/34 111/41/41 112/42/42 105/35/35
f 106/36/36 113/43/43 114/44/44 107/37/37
f 107/37/37 114/44/44 115/45/45 108/38/38
f 108/38/38 115/45/45 116/46/46 109/39/39
f 109/39/39 116/46/46 117/47/47 110/40/40
f 110/40/40 117/47/47 118/48/48 111/41/41
f 111/41/41 118/48/48 119/49/49 112/42/42
f 1/50/50 14/51/51 71/1/1 15/52/52
f 15/52/52 71/1/1 72/4/4 16/53/53
f 16/53/53 72/4/4 73/6/6 17/54/54
f 17/54/54 73/6/6 74/8/8 18/55/55
f 18/55/55 74/8/8 75/10/10 19/56/56
f 19/56/56 75/10/10 76/12/12 20/57/57
f 20/57/57 76/12/12 77/14/14 21/58/58
f 21/58/58 77/14/14 22/59/59 2/60/60
f 77/14/14 84/13/13 23/61/61 22/59/59
f 84/13/13 91/21/21 24/62/62 23/61/61
f 91/21/21 98/28/28 25/63/63 24/62/62
f 98/28/28 105/35/35 26/64/64 25/63/63
f 105/35/35 112/42/42 27/65/65 26/64/64
f 112/42/42 119/49/49 28/66/66 27/65/65
f 119/49/49 29/67/67 4/68/68 28/66/66
f 118/48/48 30/69/69 29/67/67 119/49/49
f 117/47/47 31/70/70 30/69/69 118/48/48
f 116/46/46 32/71/71 31/70/70 117/47/47
f 115/45/45 33/72/72 32/71/71 116/46/46
f 114/44/44 34/73/73 33/72/72 115/45/45
f 113/43/43 35/74/74 34/73/73 114/44/44
f 8/75/75 3/76/76 35/74/74 113/43/43
f 9/77/77 8/75/75 113/43/43 106/36/36
f 10/78/78 9/77/77 106/36/36 99/29/29
f 11/79/79 10/78/78 99/29/29 92/22/22
f 12/80/80 11/79/79 92/22/22 85/15/15
f 13/81/81 12/80/80 85/15/15 78/2/2
f 14/51/51 13/81/81 78/2/2 71/1/1
f 120/82/82 127/83/83 128/84/84 121/85/85
f 121/85/85 128/84/84 129/86/86 122/87/87
f 122/87/87 129/86/86 130/88/88 123/89/89
f 123/89/89 130/88/88 131/90/90 124/91/91
f 124/91/91 131/90/90 132/92/92 125/93/93
f 125/93/93 132/92/92 133/94/94 126/95/95
f 127/83/83 134/96/96 135/97/97 128/84/84
f 128/84/84 135/97/97 136/98/98 129/86/86
f 129/86/86 136/98/98 137/99/99 130/88/88
f 130/88/88 137/99/99 138/100/100 131/90/90
f 131/90/90 138/100/100 139/101/101 132/92/92
f 132/92/92 139/101/101 140/102/102 133/94/94
f 134/96/96 141/103/103 142/104/104 135/97/97
f 135/97/97 142/104/104 143/105/105 136/98/98
f 136/98/98 143/105/105 144/106/106 137/99/99
f 137/99/99 144/106/106 145/107/107 138/100/100
f 138/100/100 145/107/107 146/108/108 139/101/101
f 139/101/101 146/108/108 147/109/109 140/102/102
f 141/103/103 148/110/110 149/111/111 142/104/104
f 142/104/104 149/111/111 150/112/112 143/105/105
f 143/105/105 150/112/112 151/113/113 144/106/106
f 144/106/106 151/113/113 152/114/114 145/107/107
f 145/107/107 152/114/114 153/115/115 146/108/108
f 146/108/108 153/115/115 154/116/116 147/109/109
f 148/110/110 155/117/117 156/118/118 149/111/111
f 149/111/111 156/118/118 157/119/119 150/112/112
f 150/112/112 157/119/119 158/120/120 151/113/113
f 151/113/113 158/120/120 159/121/121 152/114/114
f 152/114/114 159/121/121 160/122/122 153/115/115
f 153/115/115 160/122/122 161/123/123 154/116/116
f 155/117/117 162/124/124 163/125/125 156/118/118
f 156/118/118 163/125/125 164/126/126 157/119/119
f 157/119/119 164/126/126 165/127/127 158/120/120
f 158/120/120 165/127/127 166/128/128 159/121/121
f 159/121/121 166/128/128 167/129/129 160/122/122
f 160/122/122 167/129/129 168/130/130 161/123/123
f 1/50/50 63/131/131 120/82/82 14/51/51
f 14/51/51 120/82/82 121/85/85 13/81/81
f 13/81/81 121/85/85 122/87/87 12/80/80
f 12/80/80 122/87/87 123/89/89 11/79/79
f 11/79/79 123/89/89 124/91/91 10/78/78
f 10/78/78 124/91/91 125/93/93 9/77/77
f 9/77/77 125/93/93 126/95/95 8/75/75
f 8/75/75 126/95/95 42/132/132 3/76/76
f 126/95/95 133/94/94 41/133/133 42/132/132
f 133/94/94 140/102/102 40/134/134 41/133/133
f 140/102/102 147/109/109 39/135/135 40/134/134
f 147/109/109 154/116/116 38/136/136 39/135/135
f 154/116/116 161/123/123 37/137/137 38/136/136
f 161/123/123 168/130/130 36/138/138 37/137/137
f 168/130/130 43/139/139 5/140/140 36/138/138
f 167/129/129 44/141/141 43/139/139 168/130/130
f 166/128/128 45/142/142 44/141/141 167/129/129
f 165/127/127 46/143/143 45/142/142 166/128/128
f 164/126/126 47/144/144 46/143/143 165/127/127
f 163/125/125 48/145/145 47/144/144 164/126/126
f 162/124/124 49/146/146 48/145/145 163/125/125
f 57/147/147 6/148/148 49/146/146 162/124/124
f 58/149/149 57/147/147 162/124/124 155/117/117
f 59/150/150 58/149/149 155/117/117 148/110/110
f 60/151/151 59/150/150 148/110/110 141/103/103
f 61/152/152 60/151/151 141/103/103 134/96/96
f 62/153/153 61/152/152 134/96/96 127/83/83
f 63/131/131 62/153/153 127/83/83 120/82/82
f 169/154/154 176/155/155 177/156/156 170/157/157
f 170/157/157 177/156/156 178/158/158 171/159/159
f 171/159/159 178/158/158 179/160/160 172/161/161
f 172/161/161 179/160/160 180/162/162 173/163/163
f 173/163/163 180/162/162 181/164/164 174/165/165
f 174/165/165 181/164/164 182/166/166 175/167/167
f 176/155/155 183/168/168 184/169/169 177/156/156
f 177/156/156 184/169/169 185/170/170 178/158/158
f 178/158/158 185/170/170 186/171/171 179/160/160
f 179/160/160 186/171/171 187/172/172 180/162/162
f 180/162/162 187/172/172 188/173/173 181/164/164
f 181/164/164 188/173/173 189/174/174 182/166/166
f 183/168/168 190/175/175 191/176/176 184/169/169
f 184/169/169 191/176/176 192/177/177 185/170/170
f 185/170/170 192/177/177 193/178/178 186/171/171
f 186/171/171 193/178/178 194/179/179 187/172/172
f 187/172/172 194/179/179 195/180/180 188/173/173
f 188/173/173 195/180/180 196/181/181 189/174/174
f 190/175/175 197/182/182 198/183/183 191/176/176
f 191/176/176 198/183/183 199/184/184 192/177/177
f 192/177/177 199/184/184 200/185/185 193/178/178
f 193/178/178 200/185/185 201/186/186 194/179/179
f 194/179/179 201/186/186 202/187/187 195/180/180
f 195/180/180 202/187/187 203/188/188 196/181/181
f 197/182/182 204/189/189 205/190/190 198/183/183
f 198/183/183 205/190/190 206/191/191 199/184/184
f 199/184/184 206/191/191 207/192/192 200/185/185
f 200/185/185 207/192/192 208/193/193 201/186/186
f 201/186/186 208/193/193 209/194/194 202/187/187
f 202/187/187 209/194/194 210/195/195 203/188/188
f 204/189/189 211/196/196 212/197/197 205/190/190
f 205/190/190 212/197/197 213/198/198 206/191/191
f 206/191/191 213/198/198 214/199/199 207/192/192
f 207/192/192 214/199/199 215/200/200 208/193/193
f 208/193/193 215/200/200 216/201/201 209/194/194
f 209/194/194 216/201/201 217/202/202 210/195/195
f 2/60/60 70/203/203 169/154/154 21/58/58
f 21/58/58 169/154/154 170/157/157 20/57/57
f 20/57/57 170/157/157 171/159/159 19/56/56
f 19/56/56 171/159/159 172/161/161 18/55/55
f 18/55/55 172/161/161 173/163/163 17/54/54
f 17/54/54 173/163/163 174/165/165 16/53/53
f 16/53/53 174/165/165 175/167/167 15/52/52
f 15/52/52 175/167/167 63/131/131 1/50/50
f 175/167/167 182/166/166 62/153/153 63/131/131
f 182/166/166 189/174/174 61/152/152 62/153/153
f 189/174/174 196/181/181 60/151/151 61/152/152
f 196/181/181 203/188/188 59/150/150 60/151/151
f 203/188/188 210/195/195 58/149/149 59/150/150
f 210/195/195 217/202/202 57/147/147 58/149/149
f 217/202/202 50/204/204 6/148/148 57/147/147
f 216/201/201 51/205/205 50/204/204 217/202/202
f 215/200/200 52/206/206 51/205/205 216/201/201
f 214/199/199 53/207/207 52/206/206 215/200/200
f 213/198/198 54/208/208 53/207/207 214/199/199
f 212/197/197 55/209/209 54/208/208 213/198/198
f 211/196/196 56/210/210 55/209/209 212/197/197
f 64/211/211 7/212/212 56/210/210 211/196/196
f 65/213/213 64/211/211 211/196/196 204/189/189
f 66/214/214 65/213/213 204/189/189 197/182/182
f 67/215/215 66/214/214 197/182/182 190/175/175
f 68/216/216 67/215/215 190/175/175 183/168/168
f 69/217/217 68/216/216 183/168/168 176/155/155
f 70/203/203 69/217/217 176/155/155 169/154/154
