# Blender v3.0.0 OBJ File: 'box_experiment.blend'
# www.blender.org
o 5
v -0.000000 0.000000 0.000000
v 1.000000 0.000000 0.000000
v -0.000000 0.000000 -1.000000
v 1.000000 0.000000 -1.000000
v -0.000000 0.000000 1.000000
v 1.000000 0.000000 1.000000
v -1.000000 0.000000 0.000000
v -1.000000 0.000000 -1.000000
v -1.000000 0.000000 1.000000
v 0.000000 0.000000 -0.875000
v 0.000000 0.000000 -0.750000
v -0.000000 0.000000 -0.625000
v -0.000000 0.000000 -0.500000
v -0.000000 0.000000 -0.375000
v -0.000000 0.000000 -0.250000
v -0.000000 0.000000 -0.125000
v 0.125000 0.000000 0.000000
v 0.250000 0.000000 0.000000
v 0.375000 0.000000 0.000000
v 0.500000 0.000000 0.000000
v 0.625000 0.000000 0.000000
v 0.750000 0.000000 0.000000
v 0.875000 0.000000 0.000000
v 1.000000 0.000000 -0.125000
v 1.000000 0.000000 -0.250000
v 1.000000 0.000000 -0.375000
v 1.000000 0.000000 -0.500000
v 1.000000 0.000000 -0.625000
v 1.000000 0.000000 -0.750000
v 1.000000 0.000000 -0.875000
v 0.875000 0.000000 -1.000000
v 0.750000 0.000000 -1.000000
v 0.625000 0.000000 -1.000000
v 0.500000 0.000000 -1.000000
v 0.375000 0.000000 -1.000000
v 0.250000 0.000000 -1.000000
v 0.125000 0.000000 -1.000000
v 0.125000 0.000000 1.000000
v 0.250000 0.000000 1.000000
v 0.375000 0.000000 1.000000
v 0.500000 0.000000 1.000000
v 0.625000 0.000000 1.000000
v 0.750000 0.000000 1.000000
v 0.875000 0.000000 1.000000
v 0.000000 0.000000 0.125000
v -0.000000 0.000000 0.250000
v -0.000000 0.000000 0.375000
v -0.000000 0.000000 0.500000
v -0.000000 0.000000 0.625000
v 0.000000 0.000000 0.750000
v 0.000000 0.000000 0.875000
v 1.000000 0.000000 0.875000
v 1.000000 0.000000 0.750000
v 1.000000 0.000000 0.625000
v 1.000000 0.000000 0.500000
v 1.000000 0.000000 0.375000
v 1.000000 0.000000 0.250000
v 1.000000 0.000000 0.125000
v -1.000000 0.000000 -0.875000
v -1.000000 0.000000 -0.750000
v -1.000000 0.000000 -0.625000
v -1.000000 0.000000 -0.500000
v -1.000000 0.000000 -0.375000
v -1.000000 0.000000 -0.250000
v -1.000000 0.000000 -0.125000
v -1.000000 0.000000 0.125000
v -1.000000 0.000000 0.250000
v -1.000000 0.000000 0.375000
v -1.000000 0.000000 0.500000
v -1.000000 0.000000 0.625000
v -1.000000 0.000000 0.750000
v -1.000000 0.000000 0.875000
v -0.125000 0.000000 0.000000
v -0.250000 0.000000 0.000000
v -0.375000 0.000000 0.000000
v -0.500000 0.000000 0.000000
v -0.625000 0.000000 0.000000
v -0.750000 0.000000 0.000000
v -0.875000 0.000000 0.000000
v -0.875000 0.000000 1.000000
v -0.750000 0.000000 1.000000
v -0.625000 0.000000 1.000000
v -0.500000 0.000000 1.000000
v -0.375000 0.000000 1.000000
v -0.250000 0.000000 1.000000
v -0.125000 0.000000 1.000000
v -0.125000 0.000000 -1.000000
v -0.250000 0.000000 -1.000000
v -0.375000 0.000000 -1.000000
v -0.500000 0.000000 -1.000000
v -0.625000 0.000000 -1.000000
v -0.750000 0.000000 -1.000000
v -0.875000 0.000000 -1.000000
v 0.125000 0.000000 -0.125000
v 0.250000 0.000000 -0.125000
v 0.375000 0.000000 -0.125000
v 0.500000 0.000000 -0.125000
v 0.625000 0.000000 -0.125000
v 0.750000 0.000000 -0.125000
v 0.875000 0.000000 -0.125000
v 0.125000 0.000000 -0.250000
v 0.250000 0.000000 -0.250000
v 0.375000 0.000000 -0.250000
v 0.500000 0.000000 -0.250000
v 0.625000 0.000000 -0.250000
v 0.750000 0.000000 -0.250000
v 0.875000 0.000000 -0.250000
v 0.125000 0.000000 -0.375000
v 0.250000 0.000000 -0.375000
v 0.375000 0.000000 -0.375000
v 0.500000 0.000000 -0.375000
v 0.625000 0.000000 -0.375000
v 0.750000 0.000000 -0.375000
v 0.875000 0.000000 -0.375000
v 0.125000 0.000000 -0.500000
v 0.250000 0.000000 -0.500000
v 0.375000 0.000000 -0.500000
v 0.500000 0.000000 -0.500000
v 0.625000 0.000000 -0.500000
v 0.750000 0.000000 -0.500000
v 0.875000 0.000000 -0.500000
v 0.125000 0.000000 -0.625000
v 0.250000 0.000000 -0.625000
v 0.375000 0.000000 -0.625000
v 0.500000 0.000000 -0.625000
v 0.625000 0.000000 -0.625000
v 0.750000 0.000000 -0.625000
v 0.875000 0.000000 -0.625000
v 0.125000 0.000000 -0.750000
v 0.250000 0.000000 -0.750000
v 0.375000 0.000000 -0.750000
v 0.500000 0.000000 -0.750000
v 0.625000 0.000000 -0.750000
v 0.750000 0.000000 -0.750000
v 0.875000 0.000000 -0.750000
v 0.125000 0.000000 -0.875000
v 0.250000 0.000000 -0.875000
v 0.375000 0.000000 -0.875000
v 0.500000 0.000000 -0.875000
v 0.625000 0.000000 -0.875000
v 0.750000 0.000000 -0.875000
v 0.875000 0.000000 -0.875000
v 0.875000 0.000000 0.125000
v 0.750000 0.000000 0.125000
v 0.625000 0.000000 0.125000
v 0.500000 0.000000 0.125000
v 0.375000 0.000000 0.125000
v 0.250000 0.000000 0.125000
v 0.125000 0.000000 0.125000
v 0.875000 0.000000 0.250000
v 0.750000 0.000000 0.250000
v 0.625000 0.000000 0.250000
v 0.500000 0.000000 0.250000
v 0.375000 0.000000 0.250000
v 0.250000 0.000000 0.250000
v 0.125000 0.000000 0.250000
v 0.875000 0.000000 0.375000
v 0.750000 0.000000 0.375000
v 0.625000 0.000000 0.375000
v 0.500000 0.000000 0.375000
v 0.375000 0.000000 0.375000
v 0.250000 0.000000 0.375000
v 0.125000 0.000000 0.375000
v 0.875000 0.000000 0.500000
v 0.750000 0.000000 0.500000
v 0.625000 0.000000 0.500000
v 0.500000 0.000000 0.500000
v 0.375000 0.000000 0.500000
v 0.250000 0.000000 0.500000
v 0.125000 0.000000 0.500000
v 0.875000 0.000000 0.625000
v 0.750000 0.000000 0.625000
v 0.625000 0.000000 0.625000
v 0.500000 0.000000 0.625000
v 0.375000 0.000000 0.625000
v 0.250000 0.000000 0.625000
v 0.125000 0.000000 0.625000
v 0.875000 0.000000 0.750000
v 0.750000 0.000000 0.750000
v 0.625000 0.000000 0.750000
v 0.500000 0.000000 0.750000
v 0.375000 0.000000 0.750000
v 0.250000 0.000000 0.750000
v 0.125000 0.000000 0.750000
v 0.875000 0.000000 0.875000
v 0.750000 0.000000 0.875000
v 0.625000 0.000000 0.875000
v 0.500000 0.000000 0.875000
v 0.375000 0.000000 0.875000
v 0.250000 0.000000 0.875000
v 0.125000 0.000000 0.875000
v -0.125000 0.000000 0.875000
v -0.125000 0.000000 0.750000
v -0.125000 0.000000 0.625000
v -0.125000 0.000000 0.500000
v -0.125000 0.000000 0.375000
v -0.125000 0.000000 0.250000
v -0.125000 0.000000 0.125000
v -0.250000 0.000000 0.875000
v -0.250000 0.000000 0.750000
v -0.250000 0.000000 0.625000
v -0.250000 0.000000 0.500000
v -0.250000 0.000000 0.375000
v -0.250000 0.000000 0.250000
v -0.250000 0.000000 0.125000
v -0.375000 0.000000 0.875000
v -0.375000 0.000000 0.750000
v -0.375000 0.000000 0.625000
v -0.375000 0.000000 0.500000
v -0.375000 0.000000 0.375000
v -0.375000 0.000000 0.250000
v -0.375000 0.000000 0.125000
v -0.500000 0.000000 0.875000
v -0.500000 0.000000 0.750000
v -0.500000 0.000000 0.625000
v -0.500000 0.000000 0.500000
v -0.500000 0.000000 0.375000
v -0.500000 0.000000 0.250000
v -0.500000 0.000000 0.125000
v -0.625000 0.000000 0.875000
v -0.625000 0.000000 0.750000
v -0.625000 0.000000 0.625000
v -0.625000 0.000000 0.500000
v -0.625000 0.000000 0.375000
v -0.625000 0.000000 0.250000
v -0.625000 0.000000 0.125000
v -0.750000 0.000000 0.875000
v -0.750000 0.000000 0.750000
v -0.750000 0.000000 0.625000
v -0.750000 0.000000 0.500000
v -0.750000 0.000000 0.375000
v -0.750000 0.000000 0.250000
v -0.750000 0.000000 0.125000
v -0.875000 0.000000 0.875000
v -0.875000 0.000000 0.750000
v -0.875000 0.000000 0.625000
v -0.875000 0.000000 0.500000
v -0.875000 0.000000 0.375000
v -0.875000 0.000000 0.250000
v -0.875000 0.000000 0.125000
v -0.125000 0.000000 -0.125000
v -0.125000 0.000000 -0.250000
v -0.125000 0.000000 -0.375000
v -0.125000 0.000000 -0.500000
v -0.125000 0.000000 -0.625000
v -0.125000 0.000000 -0.750000
v -0.125000 0.000000 -0.875000
v -0.250000 0.000000 -0.125000
v -0.250000 0.000000 -0.250000
v -0.250000 0.000000 -0.375000
v -0.250000 0.000000 -0.500000
v -0.250000 0.000000 -0.625000
v -0.250000 0.000000 -0.750000
v -0.250000 0.000000 -0.875000
v -0.375000 0.000000 -0.125000
v -0.375000 0.000000 -0.250000
v -0.375000 0.000000 -0.375000
v -0.375000 0.000000 -0.500000
v -0.375000 0.000000 -0.625000
v -0.375000 0.000000 -0.750000
v -0.375000 0.000000 -0.875000
v -0.500000 0.000000 -0.125000
v -0.500000 0.000000 -0.250000
v -0.500000 0.000000 -0.375000
v -0.500000 0.000000 -0.500000
v -0.500000 0.000000 -0.625000
v -0.500000 0.000000 -0.750000
v -0.500000 0.000000 -0.875000
v -0.625000 0.000000 -0.125000
v -0.625000 0.000000 -0.250000
v -0.625000 0.000000 -0.375000
v -0.625000 0.000000 -0.500000
v -0.625000 0.000000 -0.625000
v -0.625000 0.000000 -0.750000
v -0.625000 0.000000 -0.875000
v -0.750000 0.000000 -0.125000
v -0.750000 0.000000 -0.250000
v -0.750000 0.000000 -0.375000
v -0.750000 0.000000 -0.500000
v -0.750000 0.000000 -0.625000
v -0.750000 0.000000 -0.750000
v -0.750000 0.000000 -0.875000
v -0.875000 0.000000 -0.125000
v -0.875000 0.000000 -0.250000
v -0.875000 0.000000 -0.375000
v -0.875000 0.000000 -0.500000
v -0.875000 0.000000 -0.625000
v -0.875000 0.000000 -0.750000
v -0.875000 0.000000 -0.875000
vt 0.236454 0.236454
vt 0.320157 0.235060
vt 0.319065 0.319065
vt 0.235060 0.320157
vt 0.415588 0.231275
vt 0.414870 0.316101
vt 0.520779 0.223904
vt 0.520399 0.310330
vt 0.633766 0.211527
vt 0.633606 0.300910
vt 0.752597 0.191820
vt 0.752550 0.287381
vt 0.875325 0.162615
vt 0.875319 0.269809
vt 0.316101 0.414870
vt 0.231275 0.415588
vt 0.412921 0.412921
vt 0.519369 0.409125
vt 0.633171 0.403047
vt 0.752421 0.394958
vt 0.875303 0.385368
vt 0.310330 0.520399
vt 0.223904 0.520779
vt 0.409125 0.519369
vt 0.517361 0.517361
vt 0.632324 0.514160
vt 0.752170 0.509983
vt 0.875271 0.505154
vt 0.300910 0.633606
vt 0.211527 0.633766
vt 0.403047 0.633171
vt 0.514160 0.632324
vt 0.630974 0.630974
vt 0.751770 0.629211
vt 0.875221 0.627174
vt 0.287381 0.752550
vt 0.191820 0.752597
vt 0.394959 0.752421
vt 0.509983 0.752170
vt 0.629211 0.751770
vt 0.751248 0.751248
vt 0.875156 0.750644
vt 0.269809 0.875319
vt 0.162615 0.875325
vt 0.385368 0.875303
vt 0.505154 0.875271
vt 0.627174 0.875221
vt 0.750644 0.875156
vt 0.875081 0.875081
vt 0.166667 0.166667
vt 0.236654 0.166450
vt 0.166450 0.236654
vt 0.320313 0.164931
vt 0.415690 0.160807
vt 0.520833 0.152778
vt 0.633789 0.139106
vt 0.752604 0.116319
vt 0.875326 0.078776
vt 1.000000 0.000000
vt 1.000000 0.125000
vt 1.000000 0.250000
vt 1.000000 0.375000
vt 1.000000 0.500000
vt 1.000000 0.625000
vt 1.000000 0.750000
vt 1.000000 0.875000
vt 1.000000 1.000000
vt 0.875000 1.000000
vt 0.750000 1.000000
vt 0.625000 1.000000
vt 0.500000 1.000000
vt 0.375000 1.000000
vt 0.250000 1.000000
vt 0.125000 1.000000
vt 0.078776 0.875326
vt 0.000000 1.000000
vt 0.116319 0.752604
vt 0.139106 0.633789
vt 0.152778 0.520833
vt 0.160807 0.415690
vt 0.164931 0.320312
vt 0.875325 0.037615
vt 0.752598 0.066820
vt 0.752550 0.037381
vt 0.875319 0.019809
vt 0.633766 0.086527
vt 0.633606 0.050910
vt 0.520779 0.098904
vt 0.520399 0.060330
vt 0.415588 0.106275
vt 0.414870 0.066101
vt 0.320157 0.110060
vt 0.319065 0.069065
vt 0.236454 0.111454
vt 0.235060 0.070157
vt 0.752421 0.019958
vt 0.875303 0.010368
vt 0.633171 0.028047
vt 0.519369 0.034125
vt 0.412921 0.037921
vt 0.316101 0.039870
vt 0.231275 0.040588
vt 0.752170 0.009983
vt 0.875271 0.005154
vt 0.632324 0.014160
vt 0.517361 0.017361
vt 0.409125 0.019368
vt 0.310330 0.020399
vt 0.223904 0.020779
vt 0.751770 0.004211
vt 0.875221 0.002174
vt 0.630974 0.005974
vt 0.514160 0.007324
vt 0.403047 0.008171
vt 0.300910 0.008606
vt 0.211527 0.008766
vt 0.751248 0.001248
vt 0.875156 0.000644
vt 0.629211 0.001770
vt 0.509983 0.002170
vt 0.394959 0.002421
vt 0.287381 0.002550
vt 0.191820 0.002597
vt 0.750644 0.000156
vt 0.875081 0.000081
vt 0.627174 0.000221
vt 0.505154 0.000271
vt 0.385368 0.000303
vt 0.269809 0.000319
vt 0.162615 0.000325
vt 1.000000 0.000000
vt 0.166450 0.111654
vt 0.164931 0.070313
vt 0.160807 0.040690
vt 0.152778 0.020833
vt 0.139106 0.008789
vt 0.116319 0.002604
vt 0.078776 0.000326
vt 0.000000 0.000000
vt 0.125000 0.000000
vt 0.250000 0.000000
vt 0.375000 0.000000
vt 0.500000 0.000000
vt 0.625000 0.000000
vt 0.750000 0.000000
vt 0.875000 0.000000
vt 1.000000 0.000000
vt 1.000000 0.000000
vt 1.000000 0.000000
vt 1.000000 0.000000
vt 1.000000 0.000000
vt 1.000000 0.000000
vt 1.000000 0.000000
vt 0.037615 0.000325
vt 0.066820 0.002597
vt 0.037381 0.002550
vt 0.019809 0.000319
vt 0.086527 0.008766
vt 0.050910 0.008606
vt 0.098904 0.020779
vt 0.060330 0.020399
vt 0.106275 0.040588
vt 0.066101 0.039870
vt 0.110060 0.070157
vt 0.069065 0.069065
vt 0.111454 0.111454
vt 0.070157 0.110060
vt 0.019958 0.002421
vt 0.010368 0.000303
vt 0.028047 0.008171
vt 0.034125 0.019368
vt 0.037921 0.037921
vt 0.039870 0.066101
vt 0.040588 0.106275
vt 0.009983 0.002170
vt 0.005154 0.000271
vt 0.014160 0.007324
vt 0.017361 0.017361
vt 0.019368 0.034125
vt 0.020399 0.060330
vt 0.020779 0.098904
vt 0.004211 0.001770
vt 0.002174 0.000221
vt 0.005974 0.005974
vt 0.007324 0.014160
vt 0.008171 0.028047
vt 0.008606 0.050910
vt 0.008766 0.086527
vt 0.001248 0.001248
vt 0.000644 0.000156
vt 0.001770 0.004211
vt 0.002170 0.009983
vt 0.002421 0.019958
vt 0.002550 0.037381
vt 0.002597 0.066820
vt 0.000156 0.000644
vt 0.000081 0.000081
vt 0.000221 0.002174
vt 0.000271 0.005154
vt 0.000303 0.010368
vt 0.000319 0.019809
vt 0.000325 0.037615
vt 0.000000 0.000000
vt 0.111654 0.166450
vt 0.070313 0.164931
vt 0.040690 0.160807
vt 0.020833 0.152778
vt 0.008789 0.139106
vt 0.002604 0.116319
vt 0.000326 0.078776
vt 0.000000 0.000000
vt 0.000000 0.000000
vt 0.000000 0.000000
vt 0.000000 0.000000
vt 0.000000 0.000000
vt 0.000000 0.000000
vt 0.000000 0.000000
vt 0.000000 0.000000
vt 0.000000 0.000000
vt 0.000000 0.000000
vt 0.000000 0.000000
vt 0.000000 0.000000
vt 0.000000 0.000000
vt 0.000000 0.000000
vt 0.000000 0.000000
vt 0.111454 0.236454
vt 0.110060 0.320157
vt 0.069065 0.319065
vt 0.070157 0.235060
vt 0.106275 0.415588
vt 0.066101 0.414870
vt 0.098904 0.520779
vt 0.060330 0.520399
vt 0.086527 0.633766
vt 0.050910 0.633606
vt 0.066820 0.752597
vt 0.037381 0.752550
vt 0.037615 0.875325
vt 0.019809 0.875319
vt 0.039870 0.316101
vt 0.040588 0.231275
vt 0.037921 0.412921
vt 0.034125 0.519369
vt 0.028047 0.633171
vt 0.019958 0.752421
vt 0.010368 0.875303
vt 0.020399 0.310330
vt 0.020779 0.223904
vt 0.019368 0.409125
vt 0.017361 0.517361
vt 0.014160 0.632324
vt 0.009983 0.752170
vt 0.005154 0.875271
vt 0.008606 0.300910
vt 0.008766 0.211527
vt 0.008171 0.403047
vt 0.007324 0.514160
vt 0.005974 0.630974
vt 0.004211 0.751770
vt 0.002174 0.875221
vt 0.002550 0.287381
vt 0.002597 0.191820
vt 0.002421 0.394959
vt 0.002170 0.509983
vt 0.001770 0.629211
vt 0.001248 0.751248
vt 0.000644 0.875156
vt 0.000319 0.269809
vt 0.000325 0.162615
vt 0.000303 0.385368
vt 0.000271 0.505154
vt 0.000221 0.627174
vt 0.000156 0.750644
vt 0.000081 0.875081
vt 0.000000 1.000000
vt 0.000000 1.000000
vt 0.000000 1.000000
vt 0.000000 1.000000
vt 0.000000 1.000000
vt 0.000000 1.000000
vt 0.000000 1.000000
vt 0.000000 1.000000
vt 0.000000 0.875000
vt 0.000000 0.750000
vt 0.000000 0.625000
vt 0.000000 0.500000
vt 0.000000 0.375000
vt 0.000000 0.250000
vt 0.000000 0.125000
vn 0.0000 1.0000 0.0000
s 1
f 94/1/1 95/2/1 102/3/1 101/4/1
f 95/2/1 96/5/1 103/6/1 102/3/1
f 96/5/1 97/7/1 104/8/1 103/6/1
f 97/7/1 98/9/1 105/10/1 104/8/1
f 98/9/1 99/11/1 106/12/1 105/10/1
f 99/11/1 100/13/1 107/14/1 106/12/1
f 101/4/1 102/3/1 109/15/1 108/16/1
f 102/3/1 103/6/1 110/17/1 109/15/1
f 103/6/1 104/8/1 111/18/1 110/17/1
f 104/8/1 105/10/1 112/19/1 111/18/1
f 105/10/1 106/12/1 113/20/1 112/19/1
f 106/12/1 107/14/1 114/21/1 113/20/1
f 108/16/1 109/15/1 116/22/1 115/23/1
f 109/15/1 110/17/1 117/24/1 116/22/1
f 110/17/1 111/18/1 118/25/1 117/24/1
f 111/18/1 112/19/1 119/26/1 118/25/1
f 112/19/1 113/20/1 120/27/1 119/26/1
f 113/20/1 114/21/1 121/28/1 120/27/1
f 115/23/1 116/22/1 123/29/1 122/30/1
f 116/22/1 117/24/1 124/31/1 123/29/1
f 117/24/1 118/25/1 125/32/1 124/31/1
f 118/25/1 119/26/1 126/33/1 125/32/1
f 119/26/1 120/27/1 127/34/1 126/33/1
f 120/27/1 121/28/1 128/35/1 127/34/1
f 122/30/1 123/29/1 130/36/1 129/37/1
f 123/29/1 124/31/1 131/38/1 130/36/1
f 124/31/1 125/32/1 132/39/1 131/38/1
f 125/32/1 126/33/1 133/40/1 132/39/1
f 126/33/1 127/34/1 134/41/1 133/40/1
f 127/34/1 128/35/1 135/42/1 134/41/1
f 129/37/1 130/36/1 137/43/1 136/44/1
f 130/36/1 131/38/1 138/45/1 137/43/1
f 131/38/1 132/39/1 139/46/1 138/45/1
f 132/39/1 133/40/1 140/47/1 139/46/1
f 133/40/1 134/41/1 141/48/1 140/47/1
f 134/41/1 135/42/1 142/49/1 141/48/1
f 1/50/1 17/51/1 94/1/1 16/52/1
f 17/51/1 18/53/1 95/2/1 94/1/1
f 18/53/1 19/54/1 96/5/1 95/2/1
f 19/54/1 20/55/1 97/7/1 96/5/1
f 20/55/1 21/56/1 98/9/1 97/7/1
f 21/56/1 22/57/1 99/11/1 98/9/1
f 22/57/1 23/58/1 100/13/1 99/11/1
f 23/58/1 2/59/1 24/60/1 100/13/1
f 100/13/1 24/60/1 25/61/1 107/14/1
f 107/14/1 25/61/1 26/62/1 114/21/1
f 114/21/1 26/62/1 27/63/1 121/28/1
f 121/28/1 27/63/1 28/64/1 128/35/1
f 128/35/1 28/64/1 29/65/1 135/42/1
f 135/42/1 29/65/1 30/66/1 142/49/1
f 142/49/1 30/66/1 4/67/1 31/68/1
f 141/48/1 142/49/1 31/68/1 32/69/1
f 140/47/1 141/48/1 32/69/1 33/70/1
f 139/46/1 140/47/1 33/70/1 34/71/1
f 138/45/1 139/46/1 34/71/1 35/72/1
f 137/43/1 138/45/1 35/72/1 36/73/1
f 136/44/1 137/43/1 36/73/1 37/74/1
f 10/75/1 136/44/1 37/74/1 3/76/1
f 11/77/1 129/37/1 136/44/1 10/75/1
f 12/78/1 122/30/1 129/37/1 11/77/1
f 13/79/1 115/23/1 122/30/1 12/78/1
f 14/80/1 108/16/1 115/23/1 13/79/1
f 15/81/1 101/4/1 108/16/1 14/80/1
f 16/52/1 94/1/1 101/4/1 15/81/1
f 143/82/1 144/83/1 151/84/1 150/85/1
f 144/83/1 145/86/1 152/87/1 151/84/1
f 145/86/1 146/88/1 153/89/1 152/87/1
f 146/88/1 147/90/1 154/91/1 153/89/1
f 147/90/1 148/92/1 155/93/1 154/91/1
f 148/92/1 149/94/1 156/95/1 155/93/1
f 150/85/1 151/84/1 158/96/1 157/97/1
f 151/84/1 152/87/1 159/98/1 158/96/1
f 152/87/1 153/89/1 160/99/1 159/98/1
f 153/89/1 154/91/1 161/100/1 160/99/1
f 154/91/1 155/93/1 162/101/1 161/100/1
f 155/93/1 156/95/1 163/102/1 162/101/1
f 157/97/1 158/96/1 165/103/1 164/104/1
f 158/96/1 159/98/1 166/105/1 165/103/1
f 159/98/1 160/99/1 167/106/1 166/105/1
f 160/99/1 161/100/1 168/107/1 167/106/1
f 161/100/1 162/101/1 169/108/1 168/107/1
f 162/101/1 163/102/1 170/109/1 169/108/1
f 164/104/1 165/103/1 172/110/1 171/111/1
f 165/103/1 166/105/1 173/112/1 172/110/1
f 166/105/1 167/106/1 174/113/1 173/112/1
f 167/106/1 168/107/1 175/114/1 174/113/1
f 168/107/1 169/108/1 176/115/1 175/114/1
f 169/108/1 170/109/1 177/116/1 176/115/1
f 171/111/1 172/110/1 179/117/1 178/118/1
f 172/110/1 173/112/1 180/119/1 179/117/1
f 173/112/1 174/113/1 181/120/1 180/119/1
f 174/113/1 175/114/1 182/121/1 181/120/1
f 175/114/1 176/115/1 183/122/1 182/121/1
f 176/115/1 177/116/1 184/123/1 183/122/1
f 178/118/1 179/117/1 186/124/1 185/125/1
f 179/117/1 180/119/1 187/126/1 186/124/1
f 180/119/1 181/120/1 188/127/1 187/126/1
f 181/120/1 182/121/1 189/128/1 188/127/1
f 182/121/1 183/122/1 190/129/1 189/128/1
f 183/122/1 184/123/1 191/130/1 190/129/1
f 2/59/1 23/58/1 143/82/1 58/131/1
f 23/58/1 22/57/1 144/83/1 143/82/1
f 22/57/1 21/56/1 145/86/1 144/83/1
f 21/56/1 20/55/1 146/88/1 145/86/1
f 20/55/1 19/54/1 147/90/1 146/88/1
f 19/54/1 18/53/1 148/92/1 147/90/1
f 18/53/1 17/51/1 149/94/1 148/92/1
f 17/51/1 1/50/1 45/132/1 149/94/1
f 149/94/1 45/132/1 46/133/1 156/95/1
f 156/95/1 46/133/1 47/134/1 163/102/1
f 163/102/1 47/134/1 48/135/1 170/109/1
f 170/109/1 48/135/1 49/136/1 177/116/1
f 177/116/1 49/136/1 50/137/1 184/123/1
f 184/123/1 50/137/1 51/138/1 191/130/1
f 191/130/1 51/138/1 5/139/1 38/140/1
f 190/129/1 191/130/1 38/140/1 39/141/1
f 189/128/1 190/129/1 39/141/1 40/142/1
f 188/127/1 189/128/1 40/142/1 41/143/1
f 187/126/1 188/127/1 41/143/1 42/144/1
f 186/124/1 187/126/1 42/144/1 43/145/1
f 185/125/1 186/124/1 43/145/1 44/146/1
f 52/147/1 185/125/1 44/146/1 6/148/1
f 53/149/1 178/118/1 185/125/1 52/147/1
f 54/150/1 171/111/1 178/118/1 53/149/1
f 55/151/1 164/104/1 171/111/1 54/150/1
f 56/152/1 157/97/1 164/104/1 55/151/1
f 57/153/1 150/85/1 157/97/1 56/152/1
f 58/131/1 143/82/1 150/85/1 57/153/1
f 192/154/1 193/155/1 200/156/1 199/157/1
f 193/155/1 194/158/1 201/159/1 200/156/1
f 194/158/1 195/160/1 202/161/1 201/159/1
f 195/160/1 196/162/1 203/163/1 202/161/1
f 196/162/1 197/164/1 204/165/1 203/163/1
f 197/164/1 198/166/1 205/167/1 204/165/1
f 199/157/1 200/156/1 207/168/1 206/169/1
f 200/156/1 201/159/1 208/170/1 207/168/1
f 201/159/1 202/161/1 209/171/1 208/170/1
f 202/161/1 203/163/1 210/172/1 209/171/1
f 203/163/1 204/165/1 211/173/1 210/172/1
f 204/165/1 205/167/1 212/174/1 211/173/1
f 206/169/1 207/168/1 214/175/1 213/176/1
f 207/168/1 208/170/1 215/177/1 214/175/1
f 208/170/1 209/171/1 216/178/1 215/177/1
f 209/171/1 210/172/1 217/179/1 216/178/1
f 210/172/1 211/173/1 218/180/1 217/179/1
f 211/173/1 212/174/1 219/181/1 218/180/1
f 213/176/1 214/175/1 221/182/1 220/183/1
f 214/175/1 215/177/1 222/184/1 221/182/1
f 215/177/1 216/178/1 223/185/1 222/184/1
f 216/178/1 217/179/1 224/186/1 223/185/1
f 217/179/1 218/180/1 225/187/1 224/186/1
f 218/180/1 219/181/1 226/188/1 225/187/1
f 220/183/1 221/182/1 228/189/1 227/190/1
f 221/182/1 222/184/1 229/191/1 228/189/1
f 222/184/1 223/185/1 230/192/1 229/191/1
f 223/185/1 224/186/1 231/193/1 230/192/1
f 224/186/1 225/187/1 232/194/1 231/193/1
f 225/187/1 226/188/1 233/195/1 232/194/1
f 227/190/1 228/189/1 235/196/1 234/197/1
f 228/189/1 229/191/1 236/198/1 235/196/1
f 229/191/1 230/192/1 237/199/1 236/198/1
f 230/192/1 231/193/1 238/200/1 237/199/1
f 231/193/1 232/194/1 239/201/1 238/200/1
f 232/194/1 233/195/1 240/202/1 239/201/1
f 5/139/1 51/138/1 192/154/1 86/203/1
f 51/138/1 50/137/1 193/155/1 192/154/1
f 50/137/1 49/136/1 194/158/1 193/155/1
f 49/136/1 48/135/1 195/160/1 194/158/1
f 48/135/1 47/134/1 196/162/1 195/160/1
f 47/134/1 46/133/1 197/164/1 196/162/1
f 46/133/1 45/132/1 198/166/1 197/164/1
f 45/132/1 1/50/1 73/204/1 198/166/1
f 198/166/1 73/204/1 74/205/1 205/167/1
f 205/167/1 74/205/1 75/206/1 212/174/1
f 212/174/1 75/206/1 76/207/1 219/181/1
f 219/181/1 76/207/1 77/208/1 226/188/1
f 226/188/1 77/208/1 78/209/1 233/195/1
f 233/195/1 78/209/1 79/210/1 240/202/1
f 240/202/1 79/210/1 7/211/1 66/212/1
f 239/201/1 240/202/1 66/212/1 67/213/1
f 238/200/1 239/201/1 67/213/1 68/214/1
f 237/199/1 238/200/1 68/214/1 69/215/1
f 236/198/1 237/199/1 69/215/1 70/216/1
f 235/196/1 236/198/1 70/216/1 71/217/1
f 234/197/1 235/196/1 71/217/1 72/218/1
f 80/219/1 234/197/1 72/218/1 9/220/1
f 81/221/1 227/190/1 234/197/1 80/219/1
f 82/222/1 220/183/1 227/190/1 81/221/1
f 83/223/1 213/176/1 220/183/1 82/222/1
f 84/224/1 206/169/1 213/176/1 83/223/1
f 85/225/1 199/157/1 206/169/1 84/224/1
f 86/203/1 192/154/1 199/157/1 85/225/1
f 241/226/1 242/227/1 249/228/1 248/229/1
f 242/227/1 243/230/1 250/231/1 249/228/1
f 243/230/1 244/232/1 251/233/1 250/231/1
f 244/232/1 245/234/1 252/235/1 251/233/1
f 245/234/1 246/236/1 253/237/1 252/235/1
f 246/236/1 247/238/1 254/239/1 253/237/1
f 248/229/1 249/228/1 256/240/1 255/241/1
f 249/228/1 250/231/1 257/242/1 256/240/1
f 250/231/1 251/233/1 258/243/1 257/242/1
f 251/233/1 252/235/1 259/244/1 258/243/1
f 252/235/1 253/237/1 260/245/1 259/244/1
f 253/237/1 254/239/1 261/246/1 260/245/1
f 255/241/1 256/240/1 263/247/1 262/248/1
f 256/240/1 257/242/1 264/249/1 263/247/1
f 257/242/1 258/243/1 265/250/1 264/249/1
f 258/243/1 259/244/1 266/251/1 265/250/1
f 259/244/1 260/245/1 267/252/1 266/251/1
f 260/245/1 261/246/1 268/253/1 267/252/1
f 262/248/1 263/247/1 270/254/1 269/255/1
f 263/247/1 264/249/1 271/256/1 270/254/1
f 264/249/1 265/250/1 272/257/1 271/256/1
f 265/250/1 266/251/1 273/258/1 272/257/1
f 266/251/1 267/252/1 274/259/1 273/258/1
f 267/252/1 268/253/1 275/260/1 274/259/1
f 269/255/1 270/254/1 277/261/1 276/262/1
f 270/254/1 271/256/1 278/263/1 277/261/1
f 271/256/1 272/257/1 279/264/1 278/263/1
f 272/257/1 273/258/1 280/265/1 279/264/1
f 273/258/1 274/259/1 281/266/1 280/265/1
f 274/259/1 275/260/1 282/267/1 281/266/1
f 276/262/1 277/261/1 284/268/1 283/269/1
f 277/261/1 278/263/1 285/270/1 284/268/1
f 278/263/1 279/264/1 286/271/1 285/270/1
f 279/264/1 280/265/1 287/272/1 286/271/1
f 280/265/1 281/266/1 288/273/1 287/272/1
f 281/266/1 282/267/1 289/274/1 288/273/1
f 1/50/1 16/52/1 241/226/1 73/204/1
f 16/52/1 15/81/1 242/227/1 241/226/1
f 15/81/1 14/80/1 243/230/1 242/227/1
f 14/80/1 13/79/1 244/232/1 243/230/1
f 13/79/1 12/78/1 245/234/1 244/232/1
f 12/78/1 11/77/1 246/236/1 245/234/1
f 11/77/1 10/75/1 247/238/1 246/236/1
f 10/75/1 3/76/1 87/275/1 247/238/1
f 247/238/1 87/275/1 88/276/1 254/239/1
f 254/239/1 88/276/1 89/277/1 261/246/1
f 261/246/1 89/277/1 90/278/1 268/253/1
f 268/253/1 90/278/1 91/279/1 275/260/1
f 275/260/1 91/279/1 92/280/1 282/267/1
f 282/267/1 92/280/1 93/281/1 289/274/1
f 289/274/1 93/281/1 8/282/1 59/283/1
f 288/273/1 289/274/1 59/283/1 60/284/1
f 287/272/1 288/273/1 60/284/1 61/285/1
f 286/271/1 287/272/1 61/285/1 62/286/1
f 285/270/1 286/271/1 62/286/1 63/287/1
f 284/268/1 285/270/1 63/287/1 64/288/1
f 283/269/1 284/268/1 64/288/1 65/289/1
f 79/210/1 283/269/1 65/289/1 7/211/1
f 78/209/1 276/262/1 283/269/1 79/210/1
f 77/208/1 269/255/1 276/262/1 78/209/1
f 76/207/1 262/248/1 269/255/1 77/208/1
f 75/206/1 255/241/1 262/248/1 76/207/1
f 74/205/1 248/229/1 255/241/1 75/206/1
f 73/204/1 241/226/1 248/229/1 74/205/1
